<?xml version="1.0" encoding="UTF-8"?>
<svg width="14px" height="20px" viewBox="0 0 14 20" version="1.1" xmlns="http://www.w3.org/2000/svg" xmlns:xlink="http://www.w3.org/1999/xlink">
    <!-- Generator: Sketch 50.2 (55047) - http://www.bohemiancoding.com/sketch -->
    <title>black/app</title>
    <desc>Created with Sketch.</desc>
    <defs></defs>
    <g id="Page-1" stroke="none" stroke-width="1" fill="none" fill-rule="evenodd">
        <g id="sprite-sheet" transform="translate(-248.000000, -5.000000)">
            <g id="black/app" transform="translate(240.000000, 0.000000)">
                <rect id="Rectangle-14" fill-rule="nonzero" x="0" y="0" width="30" height="30"></rect>
                <g id="icon/onderweg" transform="translate(8.000000, 5.000000)">
                    <g>
                        <path d="M13,0 L1,0 C0.4495,0 0,0.45 0,1 L0,19 C0,19.5505 0.4495,20 1,20 L13,20 C13.5505,20 14,19.5505 14,19 L14,1 C14,0.45 13.5505,0 13,0 M12.76,1 C12.89008,1 13,1.11140541 13,1.24324324 L13,18.7567568 C13,18.8885946 12.89008,19 12.76,19 L1.24,19 C1.10992,19 1,18.8885946 1,18.7567568 L1,1.24324324 C1,1.11140541 1.10992,1 1.24,1 L12.76,1" id="Fill-2" fill="#2C3B45"></path>
                        <path d="M0,16 L14,16 L14,4 L0,4 L0,16 Z M1,15 L13,15 L13,5 L1,5 L1,15 Z" id="Fill-5" fill="#2C3B45"></path>
                        <polygon id="Stroke-7" stroke="#2C3B45" stroke-linecap="round" stroke-linejoin="round" points="8 2 7.25 2 6.5 2 7.25 2"></polygon>
                    </g>
                </g>
            </g>
        </g>
    </g>
</svg>