<?xml version="1.0" encoding="UTF-8"?>
<svg width="14px" height="10px" viewBox="0 0 14 10" version="1.1" xmlns="http://www.w3.org/2000/svg" xmlns:xlink="http://www.w3.org/1999/xlink">
    <!-- Generator: Sketch 50.2 (55047) - http://www.bohemiancoding.com/sketch -->
    <title>black/arrowleft</title>
    <desc>Created with Sketch.</desc>
    <defs></defs>
    <g id="Page-1" stroke="none" stroke-width="1" fill="none" fill-rule="evenodd">
        <g id="sprite-sheet" transform="translate(-128.000000, -10.000000)">
            <g id="black/arrowleft" transform="translate(120.000000, 0.000000)">
                <rect id="Rectangle-8" fill-rule="nonzero" x="0" y="0" width="30" height="30"></rect>
                <path d="M19.8724358,11.2304973 L12.3890139,18.7130693 L16.5116176,18.7130693 C16.8865931,18.7130693 17.1905708,19.0170676 17.1905708,19.3920685 C17.1905708,19.7670695 16.8865931,20.0710678 16.5116176,20.0710678 L10.750021,20.0710678 C10.5726111,20.0701084 10.4025796,19.9999473 10.2761117,19.875516 C10.2747538,19.874158 10.272038,19.874158 10.27068,19.871442 C10.2679642,19.868726 10.2679642,19.86601 10.2652484,19.863294 C10.2048058,19.8020475 10.1568425,19.7296363 10.1240262,19.6500883 C10.0897281,19.569307 10.0717306,19.4825438 10.0710678,19.3947845 L10.0710678,13.6300807 C10.0710678,13.2550798 10.3750455,12.9510815 10.750021,12.9510815 C11.1249965,12.9510815 11.4289742,13.2550798 11.4289742,13.6300807 L11.4289742,17.7529643 L18.9110381,10.2703923 C19.1761458,10.0048917 19.6062742,10.0045877 19.8717568,10.2697134 C20.1372394,10.534839 20.1375434,10.9649966 19.8724358,11.2304973 Z" id="Path" fill="#333D47" transform="translate(15.071068, 15.071068) scale(-1, 1) rotate(-135.000000) translate(-15.071068, -15.071068) "></path>
            </g>
        </g>
    </g>
</svg>