<?xml version="1.0" encoding="UTF-8"?>
<svg width="16px" height="14px" viewBox="0 0 16 14" version="1.1" xmlns="http://www.w3.org/2000/svg" xmlns:xlink="http://www.w3.org/1999/xlink">
    <!-- Generator: Sketch 50.2 (55047) - http://www.bohemiancoding.com/sketch -->
    <title>black/bio</title>
    <desc>Created with Sketch.</desc>
    <defs></defs>
    <g id="Page-1" stroke="none" stroke-width="1" fill="none" fill-rule="evenodd">
        <g id="sprite-sheet" transform="translate(-427.000000, -8.000000)">
            <g id="black/bio" transform="translate(420.000000, 0.000000)">
                <rect id="Mask" transform="translate(15.000000, 15.000000) scale(-1, 1) translate(-15.000000, -15.000000) " x="0" y="0" width="30" height="30"></rect>
                <g id="bio" transform="translate(7.500000, 8.500000)" stroke="#333D47" stroke-linecap="round" stroke-linejoin="round">
                    <g id="Group-15" transform="translate(4.214360, 3.792924)">
                        <path d="M0,4.83411887 C0.289181887,4.29764526 1.03681859,3.21016351 2.60298708,2.23113179" id="Stroke-1"></path>
                        <path d="M2.15506653,3.97302659 C5.644308,4.89017711 6.32154006,0.131674201 6.32154006,0.131674201 C-0.382429272,-0.64121889 0.274112668,2.21324526 0.502997154,2.85762171 C0.711376251,3.33602241 1.18484755,3.67753794 2.15506653,3.97302659 Z" id="Stroke-3"></path>
                    </g>
                    <path d="M0.421436004,7.00508765 L0.421436004,11.3787721" id="Stroke-5"></path>
                    <path d="M0.421436004,9.6930281 C0.421436004,10.4971064 3.58009432,11.148841 7.47645598,11.148841 C11.3729717,11.148841 14.53163,10.4971064 14.53163,9.6930281" id="Stroke-7"></path>
                    <path d="M0.421436004,11.3787721 C0.421436004,12.1828504 3.58009432,12.834585 7.47645598,12.834585 C11.3729717,12.834585 14.53163,12.1828504 14.53163,11.3787721" id="Stroke-9"></path>
                    <path d="M14.5316454,7.00508765 L14.5316454,11.3787721" id="Stroke-11"></path>
                    <path d="M14.5316454,7.00508765 C14.5316454,3.13628352 11.3729871,0 7.47647138,0 C3.58010973,0 0.421451412,3.13628352 0.421451412,7.00508765" id="Stroke-13"></path>
                </g>
            </g>
        </g>
    </g>
</svg>