<?xml version="1.0" encoding="UTF-8"?>
<svg width="12px" height="12px" viewBox="0 0 12 12" version="1.1" xmlns="http://www.w3.org/2000/svg" xmlns:xlink="http://www.w3.org/1999/xlink">
    <!-- Generator: Sketch 50.2 (55047) - http://www.bohemiancoding.com/sketch -->
    <title>black/instagram</title>
    <desc>Created with Sketch.</desc>
    <defs></defs>
    <g id="Page-1" stroke="none" stroke-width="1" fill="none" fill-rule="evenodd">
        <g id="sprite-sheet" transform="translate(-99.000000, -9.000000)">
            <g id="black/instagram" transform="translate(90.000000, 0.000000)">
                <rect id="Mask" x="0" y="0" width="30" height="30"></rect>
                <path d="M19.4307692,19.8 L10.5692308,19.8 C10.3654154,19.8 10.2,19.632 10.2,19.425 L10.2,13.8 L11.6769231,13.8 C11.4845538,14.08125 11.4195692,14.605875 11.4195692,14.938875 C11.4195692,16.947 13.032,18.580875 15.0136615,18.580875 C16.9956923,18.580875 18.6081231,16.947 18.6081231,14.938875 C18.6081231,14.605875 18.5616,14.089125 18.3230769,13.8 L19.8,13.8 L19.8,19.425 C19.8,19.632 19.6345846,19.8 19.4307692,19.8 M14.999805,12.6 C16.3254896,12.6 17.4,13.6746152 17.4,14.9998045 C17.4,16.3253848 16.3254896,17.4 14.999805,17.4 C13.6745104,17.4 12.6,16.3253848 12.6,14.9998045 C12.6,13.6746152 13.6745104,12.6 14.999805,12.6 M17.76,10.8 L18.84,10.8 C19.03872,10.8 19.2,10.96128 19.2,11.16 L19.2,12.24 C19.2,12.43872 19.03872,12.6 18.84,12.6 L17.76,12.6 C17.56128,12.6 17.4,12.43872 17.4,12.24 L17.4,11.16 C17.4,10.96128 17.56128,10.8 17.76,10.8 M19.5735,9 L10.4265,9 C9.638625,9 9,9.637125 9,10.423125 L9,19.576875 C9,20.362875 9.638625,21 10.4265,21 L19.5735,21 C20.361375,21 21,20.362875 21,19.576875 L21,10.423125 C21,9.637125 20.361375,9 19.5735,9" id="Fill-23" fill="#333D47"></path>
            </g>
        </g>
    </g>
</svg>