<?xml version="1.0" encoding="UTF-8"?>
<svg width="13px" height="13px" viewBox="0 0 13 13" version="1.1" xmlns="http://www.w3.org/2000/svg" xmlns:xlink="http://www.w3.org/1999/xlink">
    <!-- Generator: Sketch 50.2 (55047) - http://www.bohemiancoding.com/sketch -->
    <title>black/search</title>
    <desc>Created with Sketch.</desc>
    <defs></defs>
    <g id="Page-1" stroke="none" stroke-width="1" fill="none" fill-rule="evenodd">
        <g id="sprite-sheet" transform="translate(-188.000000, -9.000000)">
            <g id="black/search" transform="translate(180.000000, 0.000000)">
                <rect id="Rectangle-13" fill-rule="nonzero" x="0" y="0" width="30" height="30"></rect>
                <g id="Group-11" transform="translate(9.000000, 9.000000)">
                    <path d="M0,12 L3.75,8.25" id="Stroke-1" stroke="#333D47" stroke-width="1.8" stroke-linecap="round" stroke-linejoin="round"></path>
                    <path d="M6.50892857,0 C3.74673214,0 1.5,2.29270109 1.5,5.11141304 C1.5,7.92919565 3.74673214,10.2228261 6.50892857,10.2228261 C9.27021429,10.2228261 11.5178571,7.92919565 11.5178571,5.11141304 C11.5178571,2.29270109 9.27021429,0 6.50892857,0 M6.50892857,1.85869565 C8.26842857,1.85869565 9.69642857,3.31405435 9.69642857,5.11141304 C9.69642857,6.90784239 8.26842857,8.36413043 6.50892857,8.36413043 C4.74760714,8.36413043 3.32142857,6.90784239 3.32142857,5.11141304 C3.32142857,3.31405435 4.74760714,1.85869565 6.50892857,1.85869565" id="Fill-3" fill="#333D47"></path>
                </g>
            </g>
        </g>
    </g>
</svg>