<?xml version="1.0" encoding="UTF-8"?>
<svg width="12px" height="23px" viewBox="0 0 12 23" version="1.1" xmlns="http://www.w3.org/2000/svg" xmlns:xlink="http://www.w3.org/1999/xlink">
    <!-- Generator: Sketch 50.2 (55047) - http://www.bohemiancoding.com/sketch -->
    <title>black/slimladen</title>
    <desc>Created with Sketch.</desc>
    <defs></defs>
    <g id="Page-1" stroke="none" stroke-width="1" fill="none" fill-rule="evenodd">
        <g id="sprite-sheet" transform="translate(-339.000000, -2.000000)">
            <g id="black/slimladen" transform="translate(330.000000, 0.000000)">
                <rect id="Rectangle-16" fill-rule="nonzero" x="0" y="0" width="30" height="30"></rect>
                <g id="icon/slimladen" transform="translate(9.000000, 3.000000)">
                    <path d="M11.5,5 L0.5,5 C0.2245,5 0,5.24490909 0,5.54545455 L0,9.90909091 C0,10.2090909 0.1005,10.6738182 0.2235,10.9427273 L1.7765,14.33 C1.8995,14.5983636 2,15.0630909 2,15.3636364 L2,16.4545455 C2,16.7545455 2.2245,17 2.5,17 L9.5,17 C9.775,17 10,16.7545455 10,16.4545455 L10,15.3636364 C10,15.0630909 10.1005,14.5983636 10.2235,14.33 L11.7765,10.9427273 C11.8995,10.6738182 12,10.2090909 12,9.90909091 L12,5.54545455 C12,5.24490909 11.775,5 11.5,5 M11,6.09090909 L11,9.90909091 C11,10.0405455 10.936,10.3361818 10.882,10.4545455 L9.329,13.8418182 C9.1355,14.2645455 9,14.8907273 9,15.3636364 L9,15.9090909 L3,15.9090909 L3,15.3636364 C3,14.8907273 2.8645,14.2645455 2.671,13.8423636 L1.118,10.454 C1.064,10.3361818 1,10.0405455 1,9.90909091 L1,6.09090909 L11,6.09090909" id="Fill-1" fill="#2C3B45"></path>
                    <path d="M9,0 L9,5.48780488" id="Stroke-3" stroke="#2C3B45" stroke-linecap="round" stroke-linejoin="round"></path>
                    <path d="M6,16.5 L6,21.5" id="Stroke-5" stroke="#2C3B45" stroke-linecap="round" stroke-linejoin="round"></path>
                    <path d="M3,5.48780488 L3,0" id="Stroke-7" stroke="#2C3B45" stroke-linecap="round" stroke-linejoin="round"></path>
                    <path d="M4,13.4146341 L4,11.5853659" id="Stroke-9" stroke="#2C3B45" stroke-linecap="round" stroke-linejoin="round"></path>
                    <path d="M6,13.4146341 L6,11.5853659" id="Stroke-11" stroke="#2C3B45" stroke-linecap="round" stroke-linejoin="round"></path>
                    <path d="M8,13.4146341 L8,11.5853659" id="Stroke-13" stroke="#2C3B45" stroke-linecap="round" stroke-linejoin="round"></path>
                </g>
            </g>
        </g>
    </g>
</svg>