<?xml version="1.0" encoding="UTF-8"?>
<svg width="16px" height="14px" viewBox="0 0 16 14" version="1.1" xmlns="http://www.w3.org/2000/svg" xmlns:xlink="http://www.w3.org/1999/xlink">
    <!-- Generator: Sketch 50.2 (55047) - http://www.bohemiancoding.com/sketch -->
    <title>black/solar</title>
    <desc>Created with Sketch.</desc>
    <defs></defs>
    <g id="Page-1" stroke="none" stroke-width="1" fill="none" fill-rule="evenodd">
        <g id="sprite-sheet" transform="translate(-367.000000, -8.000000)">
            <g id="black/solar" transform="translate(360.000000, 0.000000)">
                <rect id="Mask" transform="translate(15.000000, 15.000000) scale(-1, 1) translate(-15.000000, -15.000000) " x="0" y="0" width="30" height="30"></rect>
                <g id="icon/solarpanel" transform="translate(7.500000, 8.500000)" stroke="#333D47" stroke-linecap="round" stroke-linejoin="round">
                    <path d="M0.88342045,3.81212824 L13.844099,3.81212824" id="Stroke-1"></path>
                    <polygon id="Stroke-3" points="5.92761509 10.5133323 8.79975056 10.5133323 8.79975056 7.46949645 5.92761509 7.46949645"></polygon>
                    <g id="Group-12" transform="translate(0.000000, 0.096928)">
                        <path d="M9.06040074,10.4163887 L5.66714949,10.4163887 C4.57077603,10.4163887 3.68189525,11.3103241 3.68189525,12.4132775 L3.68189525,12.5317881 L11.045655,12.5317881 L11.045655,12.4132775 C11.045655,11.3103241 10.1567742,10.4163887 9.06040074,10.4163887 Z" id="Stroke-4"></path>
                        <polygon id="Stroke-6" points="12.9605401 0.0578319529 1.76701009 0.0578319529 1.53812214e-05 7.37253742 14.7275349 7.37253742"></polygon>
                        <path d="M4.90913214,7.37258383 L5.49807911,0.057878367" id="Stroke-8"></path>
                        <path d="M9.81835657,7.37258383 L9.2294096,0.057878367" id="Stroke-10"></path>
                    </g>
                </g>
            </g>
        </g>
    </g>
</svg>