<?xml version="1.0" encoding="UTF-8"?>
<svg width="690px" height="90px" viewBox="0 0 690 90" version="1.1" xmlns="http://www.w3.org/2000/svg" xmlns:xlink="http://www.w3.org/1999/xlink">
    <!-- Generator: Sketch 51.2 (57519) - http://www.bohemiancoding.com/sketch -->
    <title>sprite-sheet</title>
    <desc>Created with Sketch.</desc>
    <defs></defs>
    <g id="sprite-sheet" stroke="none" stroke-width="1" fill="none" fill-rule="evenodd">
        <g id="black/facebook">
            <rect id="Mask" x="0" y="0" width="30" height="30"></rect>
            <path d="M18.254925,10.5912 L17.012475,10.592025 C16.03815,10.592025 15.849225,11.05485 15.849225,11.733825 L15.849225,13.232025 L18.17325,13.232025 L17.870475,15.57915 L15.849225,15.57915 L15.849225,21.6 L13.4262,21.6 L13.4262,15.57915 L11.4,15.57915 L11.4,13.232025 L13.4262,13.232025 L13.4262,11.502 C13.4262,9.493125 14.652975,8.4 16.44405,8.4 C17.30205,8.4 18.0396,8.463525 18.254925,8.4924 L18.254925,10.5912 Z" id="Path" fill="#333D47" fill-rule="nonzero"></path>
        </g>
        <g id="black/twitter" transform="translate(30.000000, 0.000000)">
            <rect id="Mask" x="0" y="0" width="30" height="30"></rect>
            <path d="M21,11.4072909 C20.558625,11.6120361 20.083875,11.7504941 19.585875,11.8128591 C20.094375,11.4939742 20.48475,10.9895635 20.6685,10.3882715 C20.193,10.6832301 19.66575,10.897389 19.105125,11.0130975 C18.655875,10.5126091 18.016125,10.2 17.308125,10.2 C15.948375,10.2 14.84625,11.3527706 14.84625,12.7750048 C14.84625,12.9766122 14.868,13.1731206 14.91,13.3617843 C12.863625,13.2543126 11.04975,12.2290175 9.8355,10.6710709 C9.623625,11.0515362 9.502125,11.4939742 9.502125,11.9658296 C9.502125,12.8589425 9.93675,13.6473294 10.597125,14.1089867 C10.193625,14.0956508 9.814125,13.9799423 9.48225,13.786964 C9.481875,13.7979465 9.481875,13.8085368 9.481875,13.8195193 C9.481875,15.0672102 10.3305,16.1078023 11.457,16.3443184 C11.250375,16.4031532 11.032875,16.4345318 10.80825,16.4345318 C10.649625,16.4345318 10.4955,16.4184503 10.345125,16.3886406 C10.65825,17.4115824 11.567625,18.1560392 12.645,18.1768275 C11.802375,18.8675485 10.74075,19.2790002 9.58725,19.2790002 C9.3885,19.2790002 9.19275,19.266841 9,19.2433071 C10.089375,19.9736435 11.3835,20.4 12.774,20.4 C17.3025,20.4 19.778625,16.4761084 19.778625,13.0734936 C19.778625,12.9617074 19.776375,12.8507056 19.7715,12.7400961 C20.252625,12.3772813 20.67,11.9238608 21,11.4072909" id="Fill-1" fill="#333D47"></path>
        </g>
        <g id="black/youtube" transform="translate(60.000000, 0.000000)">
            <rect id="Mask" x="0" y="0" width="30" height="30"></rect>
            <path d="M13.761,16.5490381 L13.760625,13.193442 L17.002875,14.8770249 L13.761,16.5490381 Z M20.88,12.6119696 C20.88,12.6119696 20.762625,11.7890256 20.403,11.4266317 C19.946625,10.9507798 19.435125,10.9485405 19.20075,10.9209224 C17.5215,10.8 15.002625,10.8 15.002625,10.8 L14.997375,10.8 C14.997375,10.8 12.4785,10.8 10.79925,10.9209224 C10.5645,10.9485405 10.053375,10.9507798 9.596625,11.4266317 C9.237,11.7890256 9.12,12.6119696 9.12,12.6119696 C9.12,12.6119696 9,13.5786022 9,14.5448616 L9,15.451033 C9,16.4176656 9.12,17.383925 9.12,17.383925 C9.12,17.383925 9.237,18.206869 9.596625,18.5692629 C10.053375,19.0451149 10.653,19.0301862 10.92,19.0798241 C11.88,19.1716355 15,19.2 15,19.2 C15,19.2 17.5215,19.1962678 19.20075,19.0753454 C19.435125,19.0473542 19.946625,19.0451149 20.403,18.5692629 C20.762625,18.206869 20.88,17.383925 20.88,17.383925 C20.88,17.383925 21,16.4176656 21,15.451033 L21,14.5448616 C21,13.5786022 20.88,12.6119696 20.88,12.6119696 L20.88,12.6119696 Z" id="Fill-25" fill="#333D47"></path>
        </g>
        <g id="black/instagram" transform="translate(90.000000, 0.000000)">
            <rect id="Mask" x="0" y="0" width="30" height="30"></rect>
            <path d="M19.4307692,19.8 L10.5692308,19.8 C10.3654154,19.8 10.2,19.632 10.2,19.425 L10.2,13.8 L11.6769231,13.8 C11.4845538,14.08125 11.4195692,14.605875 11.4195692,14.938875 C11.4195692,16.947 13.032,18.580875 15.0136615,18.580875 C16.9956923,18.580875 18.6081231,16.947 18.6081231,14.938875 C18.6081231,14.605875 18.5616,14.089125 18.3230769,13.8 L19.8,13.8 L19.8,19.425 C19.8,19.632 19.6345846,19.8 19.4307692,19.8 M14.999805,12.6 C16.3254896,12.6 17.4,13.6746152 17.4,14.9998045 C17.4,16.3253848 16.3254896,17.4 14.999805,17.4 C13.6745104,17.4 12.6,16.3253848 12.6,14.9998045 C12.6,13.6746152 13.6745104,12.6 14.999805,12.6 M17.76,10.8 L18.84,10.8 C19.03872,10.8 19.2,10.96128 19.2,11.16 L19.2,12.24 C19.2,12.43872 19.03872,12.6 18.84,12.6 L17.76,12.6 C17.56128,12.6 17.4,12.43872 17.4,12.24 L17.4,11.16 C17.4,10.96128 17.56128,10.8 17.76,10.8 M19.5735,9 L10.4265,9 C9.638625,9 9,9.637125 9,10.423125 L9,19.576875 C9,20.362875 9.638625,21 10.4265,21 L19.5735,21 C20.361375,21 21,20.362875 21,19.576875 L21,10.423125 C21,9.637125 20.361375,9 19.5735,9" id="Fill-23" fill="#333D47"></path>
        </g>
        <g id="black/arrowleft" transform="translate(120.000000, 0.000000)">
            <rect id="Rectangle-8" fill-rule="nonzero" x="0" y="0" width="30" height="30"></rect>
            <path d="M19.8724358,11.2304973 L12.3890139,18.7130693 L16.5116176,18.7130693 C16.8865931,18.7130693 17.1905708,19.0170676 17.1905708,19.3920685 C17.1905708,19.7670695 16.8865931,20.0710678 16.5116176,20.0710678 L10.750021,20.0710678 C10.5726111,20.0701084 10.4025796,19.9999473 10.2761117,19.875516 C10.2747538,19.874158 10.272038,19.874158 10.27068,19.871442 C10.2679642,19.868726 10.2679642,19.86601 10.2652484,19.863294 C10.2048058,19.8020475 10.1568425,19.7296363 10.1240262,19.6500883 C10.0897281,19.569307 10.0717306,19.4825438 10.0710678,19.3947845 L10.0710678,13.6300807 C10.0710678,13.2550798 10.3750455,12.9510815 10.750021,12.9510815 C11.1249965,12.9510815 11.4289742,13.2550798 11.4289742,13.6300807 L11.4289742,17.7529643 L18.9110381,10.2703923 C19.1761458,10.0048917 19.6062742,10.0045877 19.8717568,10.2697134 C20.1372394,10.534839 20.1375434,10.9649966 19.8724358,11.2304973 Z" id="Path" fill="#333D47" transform="translate(15.071068, 15.071068) scale(-1, 1) rotate(-135.000000) translate(-15.071068, -15.071068) "></path>
        </g>
        <g id="white/arrowleft" transform="translate(150.000000, 30.000000)">
            <rect id="Rectangle-8" fill-rule="nonzero" x="0" y="0" width="30" height="30"></rect>
            <path d="M19.8724358,11.2304973 L12.3890139,18.7130693 L16.5116176,18.7130693 C16.8865931,18.7130693 17.1905708,19.0170676 17.1905708,19.3920685 C17.1905708,19.7670695 16.8865931,20.0710678 16.5116176,20.0710678 L10.750021,20.0710678 C10.5726111,20.0701084 10.4025796,19.9999473 10.2761117,19.875516 C10.2747538,19.874158 10.272038,19.874158 10.27068,19.871442 C10.2679642,19.868726 10.2679642,19.86601 10.2652484,19.863294 C10.2048058,19.8020475 10.1568425,19.7296363 10.1240262,19.6500883 C10.0897281,19.569307 10.0717306,19.4825438 10.0710678,19.3947845 L10.0710678,13.6300807 C10.0710678,13.2550798 10.3750455,12.9510815 10.750021,12.9510815 C11.1249965,12.9510815 11.4289742,13.2550798 11.4289742,13.6300807 L11.4289742,17.7529643 L18.9110381,10.2703923 C19.1761458,10.0048917 19.6062742,10.0045877 19.8717568,10.2697134 C20.1372394,10.534839 20.1375434,10.9649966 19.8724358,11.2304973 Z" id="Path" fill="#FFFFFF" transform="translate(15.071068, 15.071068) rotate(-135.000000) translate(-15.071068, -15.071068) "></path>
        </g>
        <g id="black/arrowright" transform="translate(150.000000, 0.000000)">
            <rect id="Rectangle-8" fill-rule="nonzero" x="0" y="0" width="30" height="30"></rect>
            <path d="M19.8724358,11.2304973 L12.3890139,18.7130693 L16.5116176,18.7130693 C16.8865931,18.7130693 17.1905708,19.0170676 17.1905708,19.3920685 C17.1905708,19.7670695 16.8865931,20.0710678 16.5116176,20.0710678 L10.750021,20.0710678 C10.5726111,20.0701084 10.4025796,19.9999473 10.2761117,19.875516 C10.2747538,19.874158 10.272038,19.874158 10.27068,19.871442 C10.2679642,19.868726 10.2679642,19.86601 10.2652484,19.863294 C10.2048058,19.8020475 10.1568425,19.7296363 10.1240262,19.6500883 C10.0897281,19.569307 10.0717306,19.4825438 10.0710678,19.3947845 L10.0710678,13.6300807 C10.0710678,13.2550798 10.3750455,12.9510815 10.750021,12.9510815 C11.1249965,12.9510815 11.4289742,13.2550798 11.4289742,13.6300807 L11.4289742,17.7529643 L18.9110381,10.2703923 C19.1761458,10.0048917 19.6062742,10.0045877 19.8717568,10.2697134 C20.1372394,10.534839 20.1375434,10.9649966 19.8724358,11.2304973 Z" id="Path" fill="#333D47" transform="translate(15.071068, 15.071068) rotate(-135.000000) translate(-15.071068, -15.071068) "></path>
        </g>
        <g id="black/search" transform="translate(180.000000, 0.000000)">
            <rect id="Rectangle-13" fill-rule="nonzero" x="0" y="0" width="30" height="30"></rect>
            <g id="Group-11" transform="translate(9.000000, 9.000000)">
                <path d="M0,12 L3.75,8.25" id="Stroke-1" stroke="#333D47" stroke-width="1.8" stroke-linecap="round" stroke-linejoin="round"></path>
                <path d="M6.50892857,0 C3.74673214,0 1.5,2.29270109 1.5,5.11141304 C1.5,7.92919565 3.74673214,10.2228261 6.50892857,10.2228261 C9.27021429,10.2228261 11.5178571,7.92919565 11.5178571,5.11141304 C11.5178571,2.29270109 9.27021429,0 6.50892857,0 M6.50892857,1.85869565 C8.26842857,1.85869565 9.69642857,3.31405435 9.69642857,5.11141304 C9.69642857,6.90784239 8.26842857,8.36413043 6.50892857,8.36413043 C4.74760714,8.36413043 3.32142857,6.90784239 3.32142857,5.11141304 C3.32142857,3.31405435 4.74760714,1.85869565 6.50892857,1.85869565" id="Fill-3" fill="#333D47"></path>
            </g>
        </g>
        <g id="black/thumsbup" transform="translate(210.000000, 0.000000)">
            <rect id="Rectangle-14" fill-rule="nonzero" x="0" y="0" width="30" height="30"></rect>
            <g id="icon/thumbsup" transform="translate(6.500000, 7.500000)" stroke="#2C3B45" stroke-linecap="round" stroke-linejoin="round">
                <g>
                    <polygon id="Stroke-1" points="0 14.9895 3.995 14.9895 3.995 7 0 7"></polygon>
                    <path d="M4,6.991 C6.206,6.991 7.9945,5.2025 7.9945,2.996 L7.9945,0 L8.9935,0 C10.0965,0 10.9905,0.8945 10.9905,1.9975 L10.9905,5.992 L14.9715,5.992" id="Stroke-3"></path>
                    <path d="M14.986,6 C16.089,6 17.172,6.8115 16.9835,7.9975 C16.795,9.1835 15.985,13.4075 15.985,13.4075 C15.6425,14.989 14.4685,15.0005 14.207,14.989 L5.997,14.989 L4,13.99" id="Stroke-4"></path>
                </g>
            </g>
        </g>
        <g id="black/app" transform="translate(240.000000, 0.000000)">
            <rect id="Rectangle-14" fill-rule="nonzero" x="0" y="0" width="30" height="30"></rect>
            <g id="icon/onderweg" transform="translate(8.000000, 5.000000)">
                <g>
                    <path d="M13,0 L1,0 C0.4495,0 0,0.45 0,1 L0,19 C0,19.5505 0.4495,20 1,20 L13,20 C13.5505,20 14,19.5505 14,19 L14,1 C14,0.45 13.5505,0 13,0 M12.76,1 C12.89008,1 13,1.11140541 13,1.24324324 L13,18.7567568 C13,18.8885946 12.89008,19 12.76,19 L1.24,19 C1.10992,19 1,18.8885946 1,18.7567568 L1,1.24324324 C1,1.11140541 1.10992,1 1.24,1 L12.76,1" id="Fill-2" fill="#2C3B45"></path>
                    <path d="M0,16 L14,16 L14,4 L0,4 L0,16 Z M1,15 L13,15 L13,5 L1,5 L1,15 Z" id="Fill-5" fill="#2C3B45"></path>
                    <polygon id="Stroke-7" stroke="#2C3B45" stroke-linecap="round" stroke-linejoin="round" points="8 2 7.25 2 6.5 2 7.25 2"></polygon>
                </g>
            </g>
        </g>
        <g id="black/app" transform="translate(570.000000, 0.000000)">
            <rect id="Rectangle-14" fill-rule="nonzero" x="0" y="0" width="30" height="30"></rect>
            <g id="icon/onderweg" transform="translate(0.000000, 5.000000)">
                <g>
                    <path d="M13,0 L1,0 C0.4495,0 0,0.45 0,1 L0,19 C0,19.5505 0.4495,20 1,20 L13,20 C13.5505,20 14,19.5505 14,19 L14,1 C14,0.45 13.5505,0 13,0 M12.76,1 C12.89008,1 13,1.11140541 13,1.24324324 L13,18.7567568 C13,18.8885946 12.89008,19 12.76,19 L1.24,19 C1.10992,19 1,18.8885946 1,18.7567568 L1,1.24324324 C1,1.11140541 1.10992,1 1.24,1 L12.76,1" id="Fill-2" fill="#2C3B45"></path>
                    <path d="M0,16 L14,16 L14,4 L0,4 L0,16 Z M1,15 L13,15 L13,5 L1,5 L1,15 Z" id="Fill-5" fill="#2C3B45"></path>
                    <polygon id="Stroke-7" stroke="#2C3B45" stroke-linecap="round" stroke-linejoin="round" points="8 2 7.25 2 6.5 2 7.25 2"></polygon>
                </g>
            </g>
        </g>
        <g id="black/laadpas" transform="translate(270.000000, 0.000000)">
            <rect id="Rectangle-14" fill-rule="nonzero" x="0" y="0" width="30" height="30"></rect>
            <g id="icon/laadpas" transform="translate(5.000000, 8.000000)">
                <path d="M19.5,0.5 L0.5,0.5 C0.500892037,0.5 0.5,0.500892653 0.5,0.5 L0.5,13.5 C0.5,13.4991073 0.500892037,13.5 0.5,13.5 L19.5,13.5 C19.4986072,13.5 19.5,13.4986081 19.5,13.5 L19.5,0.5 C19.5,0.501391865 19.4986072,0.5 19.5,0.5 Z" id="Fill-1" stroke="#333D47"></path>
                <path d="M1,9 L19,9" id="Stroke-4" stroke="#2C3B45" stroke-width="0.75" stroke-linecap="round" stroke-linejoin="round"></path>
                <path d="M1,9 L19,9" id="Stroke-6" stroke="#2C3B45" stroke-linecap="round" stroke-linejoin="round"></path>
                <path d="M5,5 L9,5" id="Stroke-8" stroke="#2C3B45" stroke-linecap="round" stroke-linejoin="round"></path>
            </g>
        </g>
        <g id="black/laadpas" transform="translate(600.000000, 0.000000)">
            <rect id="Rectangle-14" fill-rule="nonzero" x="0" y="0" width="30" height="30"></rect>
            <g id="icon/laadpas" transform="translate(0.000000, 8.000000)">
                <path d="M19.5,0.5 L0.5,0.5 C0.500892037,0.5 0.5,0.500892653 0.5,0.5 L0.5,13.5 C0.5,13.4991073 0.500892037,13.5 0.5,13.5 L19.5,13.5 C19.4986072,13.5 19.5,13.4986081 19.5,13.5 L19.5,0.5 C19.5,0.501391865 19.4986072,0.5 19.5,0.5 Z" id="Fill-1" stroke="#333D47"></path>
                <path d="M1,9 L19,9" id="Stroke-4" stroke="#2C3B45" stroke-width="0.75" stroke-linecap="round" stroke-linejoin="round"></path>
                <path d="M1,9 L19,9" id="Stroke-6" stroke="#2C3B45" stroke-linecap="round" stroke-linejoin="round"></path>
                <path d="M5,5 L9,5" id="Stroke-8" stroke="#2C3B45" stroke-linecap="round" stroke-linejoin="round"></path>
            </g>
        </g>
        <g id="black/laadpal" transform="translate(300.000000, 0.000000)">
            <rect id="Rectangle-15" fill-rule="nonzero" x="0" y="0" width="30" height="30"></rect>
            <g id="icon/laadpaal" transform="translate(8.000000, 6.000000)">
                <path d="M7,18 L7,9" id="Stroke-1" stroke="#2C3B45" stroke-linecap="round" stroke-linejoin="round"></path>
                <path d="M7,7 L7,6" id="Stroke-3" stroke="#2C3B45" stroke-linecap="round" stroke-linejoin="round"></path>
                <polygon id="Clip-5" points="0 18 14 18 14 18.375 0 18.375"></polygon>
                <path d="M0,18 L14,18" id="Stroke-4" stroke="#2C3B45" stroke-linecap="round" stroke-linejoin="round"></path>
                <path d="M3.5,3.5 L10.5,3.5" id="Stroke-7" stroke="#2C3B45" stroke-linecap="round" stroke-linejoin="round"></path>
                <polygon id="Stroke-8" stroke="#2C3B45" stroke-linecap="round" stroke-linejoin="round" points="3.5 9 10.5 9 10.5 0 3.5 0"></polygon>
            </g>
        </g>
        <g id="black/laadpal" transform="translate(630.000000, 0.000000)">
            <rect id="Rectangle-15" fill-rule="nonzero" x="0" y="0" width="30" height="30"></rect>
            <g id="icon/laadpaal" transform="translate(0.000000, 6.000000)">
                <path d="M7,18 L7,9" id="Stroke-1" stroke="#2C3B45" stroke-linecap="round" stroke-linejoin="round"></path>
                <path d="M7,7 L7,6" id="Stroke-3" stroke="#2C3B45" stroke-linecap="round" stroke-linejoin="round"></path>
                <polygon id="Clip-5" points="0 18 14 18 14 18.375 0 18.375"></polygon>
                <path d="M0,18 L14,18" id="Stroke-4" stroke="#2C3B45" stroke-linecap="round" stroke-linejoin="round"></path>
                <path d="M3.5,3.5 L10.5,3.5" id="Stroke-7" stroke="#2C3B45" stroke-linecap="round" stroke-linejoin="round"></path>
                <polygon id="Stroke-8" stroke="#2C3B45" stroke-linecap="round" stroke-linejoin="round" points="3.5 9 10.5 9 10.5 0 3.5 0"></polygon>
            </g>
        </g>
        <g id="black/slimladen" transform="translate(330.000000, 0.000000)">
            <rect id="Rectangle-16" fill-rule="nonzero" x="0" y="0" width="30" height="30"></rect>
            <g id="icon/slimladen" transform="translate(9.000000, 3.000000)">
                <path d="M11.5,5 L0.5,5 C0.2245,5 0,5.24490909 0,5.54545455 L0,9.90909091 C0,10.2090909 0.1005,10.6738182 0.2235,10.9427273 L1.7765,14.33 C1.8995,14.5983636 2,15.0630909 2,15.3636364 L2,16.4545455 C2,16.7545455 2.2245,17 2.5,17 L9.5,17 C9.775,17 10,16.7545455 10,16.4545455 L10,15.3636364 C10,15.0630909 10.1005,14.5983636 10.2235,14.33 L11.7765,10.9427273 C11.8995,10.6738182 12,10.2090909 12,9.90909091 L12,5.54545455 C12,5.24490909 11.775,5 11.5,5 M11,6.09090909 L11,9.90909091 C11,10.0405455 10.936,10.3361818 10.882,10.4545455 L9.329,13.8418182 C9.1355,14.2645455 9,14.8907273 9,15.3636364 L9,15.9090909 L3,15.9090909 L3,15.3636364 C3,14.8907273 2.8645,14.2645455 2.671,13.8423636 L1.118,10.454 C1.064,10.3361818 1,10.0405455 1,9.90909091 L1,6.09090909 L11,6.09090909" id="Fill-1" fill="#2C3B45"></path>
                <path d="M9,0 L9,5.48780488" id="Stroke-3" stroke="#2C3B45" stroke-linecap="round" stroke-linejoin="round"></path>
                <path d="M6,16.5 L6,21.5" id="Stroke-5" stroke="#2C3B45" stroke-linecap="round" stroke-linejoin="round"></path>
                <path d="M3,5.48780488 L3,0" id="Stroke-7" stroke="#2C3B45" stroke-linecap="round" stroke-linejoin="round"></path>
                <path d="M4,13.4146341 L4,11.5853659" id="Stroke-9" stroke="#2C3B45" stroke-linecap="round" stroke-linejoin="round"></path>
                <path d="M6,13.4146341 L6,11.5853659" id="Stroke-11" stroke="#2C3B45" stroke-linecap="round" stroke-linejoin="round"></path>
                <path d="M8,13.4146341 L8,11.5853659" id="Stroke-13" stroke="#2C3B45" stroke-linecap="round" stroke-linejoin="round"></path>
            </g>
        </g>
        <g id="black/slimladen" transform="translate(660.000000, 0.000000)">
            <rect id="Rectangle-16" fill-rule="nonzero" x="0" y="0" width="30" height="30"></rect>
            <g id="icon/slimladen" transform="translate(0.000000, 3.000000)">
                <path d="M11.5,5 L0.5,5 C0.2245,5 0,5.24490909 0,5.54545455 L0,9.90909091 C0,10.2090909 0.1005,10.6738182 0.2235,10.9427273 L1.7765,14.33 C1.8995,14.5983636 2,15.0630909 2,15.3636364 L2,16.4545455 C2,16.7545455 2.2245,17 2.5,17 L9.5,17 C9.775,17 10,16.7545455 10,16.4545455 L10,15.3636364 C10,15.0630909 10.1005,14.5983636 10.2235,14.33 L11.7765,10.9427273 C11.8995,10.6738182 12,10.2090909 12,9.90909091 L12,5.54545455 C12,5.24490909 11.775,5 11.5,5 M11,6.09090909 L11,9.90909091 C11,10.0405455 10.936,10.3361818 10.882,10.4545455 L9.329,13.8418182 C9.1355,14.2645455 9,14.8907273 9,15.3636364 L9,15.9090909 L3,15.9090909 L3,15.3636364 C3,14.8907273 2.8645,14.2645455 2.671,13.8423636 L1.118,10.454 C1.064,10.3361818 1,10.0405455 1,9.90909091 L1,6.09090909 L11,6.09090909" id="Fill-1" fill="#2C3B45"></path>
                <path d="M9,0 L9,5.48780488" id="Stroke-3" stroke="#2C3B45" stroke-linecap="round" stroke-linejoin="round"></path>
                <path d="M6,16.5 L6,21.5" id="Stroke-5" stroke="#2C3B45" stroke-linecap="round" stroke-linejoin="round"></path>
                <path d="M3,5.48780488 L3,0" id="Stroke-7" stroke="#2C3B45" stroke-linecap="round" stroke-linejoin="round"></path>
                <path d="M4,13.4146341 L4,11.5853659" id="Stroke-9" stroke="#2C3B45" stroke-linecap="round" stroke-linejoin="round"></path>
                <path d="M6,13.4146341 L6,11.5853659" id="Stroke-11" stroke="#2C3B45" stroke-linecap="round" stroke-linejoin="round"></path>
                <path d="M8,13.4146341 L8,11.5853659" id="Stroke-13" stroke="#2C3B45" stroke-linecap="round" stroke-linejoin="round"></path>
            </g>
        </g>
        <g id="white/slimladen" transform="translate(330.000000, 30.000000)">
            <rect id="Rectangle-16" fill-rule="nonzero" x="0" y="0" width="30" height="30"></rect>
            <g id="icon/slimladen" transform="translate(9.000000, 3.000000)">
                <path d="M11.5,5 L0.5,5 C0.2245,5 0,5.24490909 0,5.54545455 L0,9.90909091 C0,10.2090909 0.1005,10.6738182 0.2235,10.9427273 L1.7765,14.33 C1.8995,14.5983636 2,15.0630909 2,15.3636364 L2,16.4545455 C2,16.7545455 2.2245,17 2.5,17 L9.5,17 C9.775,17 10,16.7545455 10,16.4545455 L10,15.3636364 C10,15.0630909 10.1005,14.5983636 10.2235,14.33 L11.7765,10.9427273 C11.8995,10.6738182 12,10.2090909 12,9.90909091 L12,5.54545455 C12,5.24490909 11.775,5 11.5,5 M11,6.09090909 L11,9.90909091 C11,10.0405455 10.936,10.3361818 10.882,10.4545455 L9.329,13.8418182 C9.1355,14.2645455 9,14.8907273 9,15.3636364 L9,15.9090909 L3,15.9090909 L3,15.3636364 C3,14.8907273 2.8645,14.2645455 2.671,13.8423636 L1.118,10.454 C1.064,10.3361818 1,10.0405455 1,9.90909091 L1,6.09090909 L11,6.09090909" id="Fill-1" fill="#FFFFFF"></path>
                <path d="M9,0 L9,5.48780488" id="Stroke-3" stroke="#FFFFFF" stroke-linecap="round" stroke-linejoin="round"></path>
                <path d="M6,16.5 L6,21.5" id="Stroke-5" stroke="#FFFFFF" stroke-linecap="round" stroke-linejoin="round"></path>
                <path d="M3,5.48780488 L3,0" id="Stroke-7" stroke="#FFFFFF" stroke-linecap="round" stroke-linejoin="round"></path>
                <path d="M4,13.4146341 L4,11.5853659" id="Stroke-9" stroke="#FFFFFF" stroke-linecap="round" stroke-linejoin="round"></path>
                <path d="M6,13.4146341 L6,11.5853659" id="Stroke-11" stroke="#FFFFFF" stroke-linecap="round" stroke-linejoin="round"></path>
                <path d="M8,13.4146341 L8,11.5853659" id="Stroke-13" stroke="#FFFFFF" stroke-linecap="round" stroke-linejoin="round"></path>
            </g>
        </g>
        <g id="white/slimladen" transform="translate(660.000000, 30.000000)">
            <rect id="Rectangle-16" fill-rule="nonzero" x="0" y="0" width="30" height="30"></rect>
            <g id="icon/slimladen" transform="translate(0.000000, 3.000000)">
                <path d="M11.5,5 L0.5,5 C0.2245,5 0,5.24490909 0,5.54545455 L0,9.90909091 C0,10.2090909 0.1005,10.6738182 0.2235,10.9427273 L1.7765,14.33 C1.8995,14.5983636 2,15.0630909 2,15.3636364 L2,16.4545455 C2,16.7545455 2.2245,17 2.5,17 L9.5,17 C9.775,17 10,16.7545455 10,16.4545455 L10,15.3636364 C10,15.0630909 10.1005,14.5983636 10.2235,14.33 L11.7765,10.9427273 C11.8995,10.6738182 12,10.2090909 12,9.90909091 L12,5.54545455 C12,5.24490909 11.775,5 11.5,5 M11,6.09090909 L11,9.90909091 C11,10.0405455 10.936,10.3361818 10.882,10.4545455 L9.329,13.8418182 C9.1355,14.2645455 9,14.8907273 9,15.3636364 L9,15.9090909 L3,15.9090909 L3,15.3636364 C3,14.8907273 2.8645,14.2645455 2.671,13.8423636 L1.118,10.454 C1.064,10.3361818 1,10.0405455 1,9.90909091 L1,6.09090909 L11,6.09090909" id="Fill-1" fill="#FFFFFF"></path>
                <path d="M9,0 L9,5.48780488" id="Stroke-3" stroke="#FFFFFF" stroke-linecap="round" stroke-linejoin="round"></path>
                <path d="M6,16.5 L6,21.5" id="Stroke-5" stroke="#FFFFFF" stroke-linecap="round" stroke-linejoin="round"></path>
                <path d="M3,5.48780488 L3,0" id="Stroke-7" stroke="#FFFFFF" stroke-linecap="round" stroke-linejoin="round"></path>
                <path d="M4,13.4146341 L4,11.5853659" id="Stroke-9" stroke="#FFFFFF" stroke-linecap="round" stroke-linejoin="round"></path>
                <path d="M6,13.4146341 L6,11.5853659" id="Stroke-11" stroke="#FFFFFF" stroke-linecap="round" stroke-linejoin="round"></path>
                <path d="M8,13.4146341 L8,11.5853659" id="Stroke-13" stroke="#FFFFFF" stroke-linecap="round" stroke-linejoin="round"></path>
            </g>
        </g>
        <g id="white/facebook" transform="translate(0.000000, 30.000000)">
            <rect id="Mask" x="0" y="0" width="30" height="30"></rect>
            <path d="M18.254925,10.5912 L17.012475,10.592025 C16.03815,10.592025 15.849225,11.05485 15.849225,11.733825 L15.849225,13.232025 L18.17325,13.232025 L17.870475,15.57915 L15.849225,15.57915 L15.849225,21.6 L13.4262,21.6 L13.4262,15.57915 L11.4,15.57915 L11.4,13.232025 L13.4262,13.232025 L13.4262,11.502 C13.4262,9.493125 14.652975,8.4 16.44405,8.4 C17.30205,8.4 18.0396,8.463525 18.254925,8.4924 L18.254925,10.5912 Z" id="Path" fill="#FFFFFF" fill-rule="nonzero"></path>
        </g>
        <g id="white/twitter" transform="translate(30.000000, 30.000000)">
            <rect id="Mask" x="0" y="0" width="30" height="30"></rect>
            <path d="M21,11.4072909 C20.558625,11.6120361 20.083875,11.7504941 19.585875,11.8128591 C20.094375,11.4939742 20.48475,10.9895635 20.6685,10.3882715 C20.193,10.6832301 19.66575,10.897389 19.105125,11.0130975 C18.655875,10.5126091 18.016125,10.2 17.308125,10.2 C15.948375,10.2 14.84625,11.3527706 14.84625,12.7750048 C14.84625,12.9766122 14.868,13.1731206 14.91,13.3617843 C12.863625,13.2543126 11.04975,12.2290175 9.8355,10.6710709 C9.623625,11.0515362 9.502125,11.4939742 9.502125,11.9658296 C9.502125,12.8589425 9.93675,13.6473294 10.597125,14.1089867 C10.193625,14.0956508 9.814125,13.9799423 9.48225,13.786964 C9.481875,13.7979465 9.481875,13.8085368 9.481875,13.8195193 C9.481875,15.0672102 10.3305,16.1078023 11.457,16.3443184 C11.250375,16.4031532 11.032875,16.4345318 10.80825,16.4345318 C10.649625,16.4345318 10.4955,16.4184503 10.345125,16.3886406 C10.65825,17.4115824 11.567625,18.1560392 12.645,18.1768275 C11.802375,18.8675485 10.74075,19.2790002 9.58725,19.2790002 C9.3885,19.2790002 9.19275,19.266841 9,19.2433071 C10.089375,19.9736435 11.3835,20.4 12.774,20.4 C17.3025,20.4 19.778625,16.4761084 19.778625,13.0734936 C19.778625,12.9617074 19.776375,12.8507056 19.7715,12.7400961 C20.252625,12.3772813 20.67,11.9238608 21,11.4072909" id="Fill-1" fill="#FFFFFF"></path>
        </g>
        <g id="white/youtube" transform="translate(60.000000, 30.000000)">
            <rect id="Mask" x="0" y="0" width="30" height="30"></rect>
            <path d="M13.761,16.5490381 L13.760625,13.193442 L17.002875,14.8770249 L13.761,16.5490381 Z M20.88,12.6119696 C20.88,12.6119696 20.762625,11.7890256 20.403,11.4266317 C19.946625,10.9507798 19.435125,10.9485405 19.20075,10.9209224 C17.5215,10.8 15.002625,10.8 15.002625,10.8 L14.997375,10.8 C14.997375,10.8 12.4785,10.8 10.79925,10.9209224 C10.5645,10.9485405 10.053375,10.9507798 9.596625,11.4266317 C9.237,11.7890256 9.12,12.6119696 9.12,12.6119696 C9.12,12.6119696 9,13.5786022 9,14.5448616 L9,15.451033 C9,16.4176656 9.12,17.383925 9.12,17.383925 C9.12,17.383925 9.237,18.206869 9.596625,18.5692629 C10.053375,19.0451149 10.653,19.0301862 10.92,19.0798241 C11.88,19.1716355 15,19.2 15,19.2 C15,19.2 17.5215,19.1962678 19.20075,19.0753454 C19.435125,19.0473542 19.946625,19.0451149 20.403,18.5692629 C20.762625,18.206869 20.88,17.383925 20.88,17.383925 C20.88,17.383925 21,16.4176656 21,15.451033 L21,14.5448616 C21,13.5786022 20.88,12.6119696 20.88,12.6119696 L20.88,12.6119696 Z" id="Fill-25" fill="#FFFFFF"></path>
        </g>
        <g id="white/instagram" transform="translate(90.000000, 30.000000)">
            <rect id="Mask" x="0" y="0" width="30" height="30"></rect>
            <path d="M19.4307692,19.8 L10.5692308,19.8 C10.3654154,19.8 10.2,19.632 10.2,19.425 L10.2,13.8 L11.6769231,13.8 C11.4845538,14.08125 11.4195692,14.605875 11.4195692,14.938875 C11.4195692,16.947 13.032,18.580875 15.0136615,18.580875 C16.9956923,18.580875 18.6081231,16.947 18.6081231,14.938875 C18.6081231,14.605875 18.5616,14.089125 18.3230769,13.8 L19.8,13.8 L19.8,19.425 C19.8,19.632 19.6345846,19.8 19.4307692,19.8 M14.999805,12.6 C16.3254896,12.6 17.4,13.6746152 17.4,14.9998045 C17.4,16.3253848 16.3254896,17.4 14.999805,17.4 C13.6745104,17.4 12.6,16.3253848 12.6,14.9998045 C12.6,13.6746152 13.6745104,12.6 14.999805,12.6 M17.76,10.8 L18.84,10.8 C19.03872,10.8 19.2,10.96128 19.2,11.16 L19.2,12.24 C19.2,12.43872 19.03872,12.6 18.84,12.6 L17.76,12.6 C17.56128,12.6 17.4,12.43872 17.4,12.24 L17.4,11.16 C17.4,10.96128 17.56128,10.8 17.76,10.8 M19.5735,9 L10.4265,9 C9.638625,9 9,9.637125 9,10.423125 L9,19.576875 C9,20.362875 9.638625,21 10.4265,21 L19.5735,21 C20.361375,21 21,20.362875 21,19.576875 L21,10.423125 C21,9.637125 20.361375,9 19.5735,9" id="Fill-23" fill="#FFFFFF"></path>
        </g>
        <g id="white/arrowright" transform="translate(120.000000, 30.000000)">
            <rect id="Rectangle-8" fill-rule="nonzero" x="0" y="0" width="30" height="30"></rect>
            <path d="M19.8724358,11.2304973 L12.3890139,18.7130693 L16.5116176,18.7130693 C16.8865931,18.7130693 17.1905708,19.0170676 17.1905708,19.3920685 C17.1905708,19.7670695 16.8865931,20.0710678 16.5116176,20.0710678 L10.750021,20.0710678 C10.5726111,20.0701084 10.4025796,19.9999473 10.2761117,19.875516 C10.2747538,19.874158 10.272038,19.874158 10.27068,19.871442 C10.2679642,19.868726 10.2679642,19.86601 10.2652484,19.863294 C10.2048058,19.8020475 10.1568425,19.7296363 10.1240262,19.6500883 C10.0897281,19.569307 10.0717306,19.4825438 10.0710678,19.3947845 L10.0710678,13.6300807 C10.0710678,13.2550798 10.3750455,12.9510815 10.750021,12.9510815 C11.1249965,12.9510815 11.4289742,13.2550798 11.4289742,13.6300807 L11.4289742,17.7529643 L18.9110381,10.2703923 C19.1761458,10.0048917 19.6062742,10.0045877 19.8717568,10.2697134 C20.1372394,10.534839 20.1375434,10.9649966 19.8724358,11.2304973 Z" id="Path" fill="#FFFFFF" transform="translate(15.071068, 15.071068) scale(-1, 1) rotate(-135.000000) translate(-15.071068, -15.071068) "></path>
        </g>
        <g id="white/search" transform="translate(180.000000, 30.000000)">
            <rect id="Rectangle-13" fill-rule="nonzero" x="0" y="0" width="30" height="30"></rect>
            <g id="Group-11" transform="translate(9.000000, 9.000000)">
                <path d="M0,12 L3.75,8.25" id="Stroke-1" stroke="#FFFFFF" stroke-width="1.8" stroke-linecap="round" stroke-linejoin="round"></path>
                <path d="M6.50892857,0 C3.74673214,0 1.5,2.29270109 1.5,5.11141304 C1.5,7.92919565 3.74673214,10.2228261 6.50892857,10.2228261 C9.27021429,10.2228261 11.5178571,7.92919565 11.5178571,5.11141304 C11.5178571,2.29270109 9.27021429,0 6.50892857,0 M6.50892857,1.85869565 C8.26842857,1.85869565 9.69642857,3.31405435 9.69642857,5.11141304 C9.69642857,6.90784239 8.26842857,8.36413043 6.50892857,8.36413043 C4.74760714,8.36413043 3.32142857,6.90784239 3.32142857,5.11141304 C3.32142857,3.31405435 4.74760714,1.85869565 6.50892857,1.85869565" id="Fill-3" fill="#FFFFFF"></path>
            </g>
        </g>
        <g id="white/thumsbup" transform="translate(210.000000, 30.000000)">
            <rect id="Rectangle-14" fill-rule="nonzero" x="0" y="0" width="30" height="30"></rect>
            <g id="icon/thumbsup" transform="translate(6.500000, 7.500000)" stroke="#FFFFFF" stroke-linecap="round" stroke-linejoin="round">
                <g>
                    <polygon id="Stroke-1" points="0 14.9895 3.995 14.9895 3.995 7 0 7"></polygon>
                    <path d="M4,6.991 C6.206,6.991 7.9945,5.2025 7.9945,2.996 L7.9945,0 L8.9935,0 C10.0965,0 10.9905,0.8945 10.9905,1.9975 L10.9905,5.992 L14.9715,5.992" id="Stroke-3"></path>
                    <path d="M14.986,6 C16.089,6 17.172,6.8115 16.9835,7.9975 C16.795,9.1835 15.985,13.4075 15.985,13.4075 C15.6425,14.989 14.4685,15.0005 14.207,14.989 L5.997,14.989 L4,13.99" id="Stroke-4"></path>
                </g>
            </g>
        </g>
        <g id="white/laadpas" transform="translate(270.000000, 30.000000)">
            <rect id="Rectangle-14" fill-rule="nonzero" x="0" y="0" width="30" height="30"></rect>
            <g id="icon/laadpas" transform="translate(5.000000, 8.000000)" stroke="#FFFFFF">
                <path d="M19.5,0.5 L0.5,0.5 C0.500892037,0.5 0.5,0.500892653 0.5,0.5 L0.5,13.5 C0.5,13.4991073 0.500892037,13.5 0.5,13.5 L19.5,13.5 C19.4986072,13.5 19.5,13.4986081 19.5,13.5 L19.5,0.5 C19.5,0.501391865 19.4986072,0.5 19.5,0.5 Z" id="Fill-1"></path>
                <path d="M1,9 L19,9" id="Stroke-4" stroke-width="0.75" stroke-linecap="round" stroke-linejoin="round"></path>
                <path d="M1,9 L19,9" id="Stroke-6" stroke-linecap="round" stroke-linejoin="round"></path>
                <path d="M5,5 L9,5" id="Stroke-8" stroke-linecap="round" stroke-linejoin="round"></path>
            </g>
        </g>
        <g id="white/laadpas" transform="translate(600.000000, 30.000000)">
            <rect id="Rectangle-14" fill-rule="nonzero" x="0" y="0" width="30" height="30"></rect>
            <g id="icon/laadpas" transform="translate(0.000000, 8.000000)" stroke="#FFFFFF">
                <path d="M19.5,0.5 L0.5,0.5 C0.500892037,0.5 0.5,0.500892653 0.5,0.5 L0.5,13.5 C0.5,13.4991073 0.500892037,13.5 0.5,13.5 L19.5,13.5 C19.4986072,13.5 19.5,13.4986081 19.5,13.5 L19.5,0.5 C19.5,0.501391865 19.4986072,0.5 19.5,0.5 Z" id="Fill-1"></path>
                <path d="M1,9 L19,9" id="Stroke-4" stroke-width="0.75" stroke-linecap="round" stroke-linejoin="round"></path>
                <path d="M1,9 L19,9" id="Stroke-6" stroke-linecap="round" stroke-linejoin="round"></path>
                <path d="M5,5 L9,5" id="Stroke-8" stroke-linecap="round" stroke-linejoin="round"></path>
            </g>
        </g>
        <g id="white/laadpal" transform="translate(300.000000, 30.000000)">
            <rect id="Rectangle-15" fill-rule="nonzero" x="0" y="0" width="30" height="30"></rect>
            <g id="icon/laadpaal" transform="translate(8.000000, 6.000000)">
                <path d="M7,18 L7,9" id="Stroke-1" stroke="#FFFFFF" stroke-linecap="round" stroke-linejoin="round"></path>
                <path d="M7,7 L7,6" id="Stroke-3" stroke="#FFFFFF" stroke-linecap="round" stroke-linejoin="round"></path>
                <polygon id="Clip-5" points="0 18 14 18 14 18.375 0 18.375"></polygon>
                <path d="M0,18 L14,18" id="Stroke-4" stroke="#FFFFFF" stroke-linecap="round" stroke-linejoin="round"></path>
                <path d="M3.5,3.5 L10.5,3.5" id="Stroke-7" stroke="#FFFFFF" stroke-linecap="round" stroke-linejoin="round"></path>
                <polygon id="Stroke-8" stroke="#FFFFFF" stroke-linecap="round" stroke-linejoin="round" points="3.5 9 10.5 9 10.5 0 3.5 0"></polygon>
            </g>
        </g>
        <g id="white/laadpal" transform="translate(630.000000, 30.000000)">
            <rect id="Rectangle-15" fill-rule="nonzero" x="0" y="0" width="30" height="30"></rect>
            <g id="icon/laadpaal" transform="translate(0.000000, 6.000000)">
                <path d="M7,18 L7,9" id="Stroke-1" stroke="#FFFFFF" stroke-linecap="round" stroke-linejoin="round"></path>
                <path d="M7,7 L7,6" id="Stroke-3" stroke="#FFFFFF" stroke-linecap="round" stroke-linejoin="round"></path>
                <polygon id="Clip-5" points="0 18 14 18 14 18.375 0 18.375"></polygon>
                <path d="M0,18 L14,18" id="Stroke-4" stroke="#FFFFFF" stroke-linecap="round" stroke-linejoin="round"></path>
                <path d="M3.5,3.5 L10.5,3.5" id="Stroke-7" stroke="#FFFFFF" stroke-linecap="round" stroke-linejoin="round"></path>
                <polygon id="Stroke-8" stroke="#FFFFFF" stroke-linecap="round" stroke-linejoin="round" points="3.5 9 10.5 9 10.5 0 3.5 0"></polygon>
            </g>
        </g>
        <g id="white/windmill" transform="translate(390.000000, 30.000000)">
            <rect id="Mask" transform="translate(15.000000, 15.000000) scale(-1, 1) translate(-15.000000, -15.000000) " x="0" y="0" width="30" height="30"></rect>
            <g id="Group-13" transform="translate(10.000000, 7.000000)" stroke="#FFFFFF" stroke-linejoin="round">
                <path d="M4.89528571,15.4073956 L4.89528571,5.73130667" id="Stroke-1"></path>
                <path d="M-7.14285714e-05,15.4073956 L9.79064286,15.4073956" id="Stroke-3" stroke-linecap="round"></path>
                <path d="M4.04846429,4.53272889 C0.263821429,5.02517333 0.89025,7.76046222 0.89025,7.76046222 L4.40096429,5.74232889" id="Stroke-5" stroke-linecap="round"></path>
                <path d="M5.65978571,4.26346667 C7.05585714,0.816 4.40121429,0 4.40121429,0 L4.40121429,4.04551111" id="Stroke-7" stroke-linecap="round"></path>
                <path d="M5.04385714,5.74627556 C7.35064286,8.69987556 9.39635714,6.81116444 9.39635714,6.81116444 L5.77742857,4.73116444" id="Stroke-9" stroke-linecap="round"></path>
                <path d="M5.74210714,4.88828444 C5.74210714,4.42250667 5.36282143,4.04526222 4.89532143,4.04526222 C4.42746429,4.04526222 4.04889286,4.42250667 4.04889286,4.88828444 C4.04889286,5.35370667 4.42746429,5.73130667 4.89532143,5.73130667 C5.36282143,5.73130667 5.74210714,5.35370667 5.74210714,4.88828444 Z" id="Stroke-11" stroke-linecap="round"></path>
            </g>
        </g>
        <g id="black/windmill" transform="translate(390.000000, 0.000000)">
            <rect id="Mask" transform="translate(15.000000, 15.000000) scale(-1, 1) translate(-15.000000, -15.000000) " x="0" y="0" width="30" height="30"></rect>
            <g id="Group-13" transform="translate(10.000000, 7.000000)" stroke="#2C3B45" stroke-linejoin="round">
                <path d="M4.89528571,15.4073956 L4.89528571,5.73130667" id="Stroke-1"></path>
                <path d="M-7.14285714e-05,15.4073956 L9.79064286,15.4073956" id="Stroke-3" stroke-linecap="round"></path>
                <path d="M4.04846429,4.53272889 C0.263821429,5.02517333 0.89025,7.76046222 0.89025,7.76046222 L4.40096429,5.74232889" id="Stroke-5" stroke-linecap="round"></path>
                <path d="M5.65978571,4.26346667 C7.05585714,0.816 4.40121429,0 4.40121429,0 L4.40121429,4.04551111" id="Stroke-7" stroke-linecap="round"></path>
                <path d="M5.04385714,5.74627556 C7.35064286,8.69987556 9.39635714,6.81116444 9.39635714,6.81116444 L5.77742857,4.73116444" id="Stroke-9" stroke-linecap="round"></path>
                <path d="M5.74210714,4.88828444 C5.74210714,4.42250667 5.36282143,4.04526222 4.89532143,4.04526222 C4.42746429,4.04526222 4.04889286,4.42250667 4.04889286,4.88828444 C4.04889286,5.35370667 4.42746429,5.73130667 4.89532143,5.73130667 C5.36282143,5.73130667 5.74210714,5.35370667 5.74210714,4.88828444 Z" id="Stroke-11" stroke-linecap="round"></path>
            </g>
        </g>
        <g id="black/solar" transform="translate(360.000000, 0.000000)">
            <rect id="Mask" transform="translate(15.000000, 15.000000) scale(-1, 1) translate(-15.000000, -15.000000) " x="0" y="0" width="30" height="30"></rect>
            <g id="icon/solarpanel" transform="translate(7.500000, 8.500000)" stroke="#333D47" stroke-linecap="round" stroke-linejoin="round">
                <path d="M0.88342045,3.81212824 L13.844099,3.81212824" id="Stroke-1"></path>
                <polygon id="Stroke-3" points="5.92761509 10.5133323 8.79975056 10.5133323 8.79975056 7.46949645 5.92761509 7.46949645"></polygon>
                <g id="Group-12" transform="translate(0.000000, 0.096928)">
                    <path d="M9.06040074,10.4163887 L5.66714949,10.4163887 C4.57077603,10.4163887 3.68189525,11.3103241 3.68189525,12.4132775 L3.68189525,12.5317881 L11.045655,12.5317881 L11.045655,12.4132775 C11.045655,11.3103241 10.1567742,10.4163887 9.06040074,10.4163887 Z" id="Stroke-4"></path>
                    <polygon id="Stroke-6" points="12.9605401 0.0578319529 1.76701009 0.0578319529 1.53812214e-05 7.37253742 14.7275349 7.37253742"></polygon>
                    <path d="M4.90913214,7.37258383 L5.49807911,0.057878367" id="Stroke-8"></path>
                    <path d="M9.81835657,7.37258383 L9.2294096,0.057878367" id="Stroke-10"></path>
                </g>
            </g>
        </g>
        <g id="white/solar" transform="translate(360.000000, 30.000000)">
            <rect id="Mask" transform="translate(15.000000, 15.000000) scale(-1, 1) translate(-15.000000, -15.000000) " x="0" y="0" width="30" height="30"></rect>
            <g id="icon/solarpanel" transform="translate(7.500000, 8.500000)" stroke="#FFFFFF" stroke-linecap="round" stroke-linejoin="round">
                <path d="M0.88342045,3.81212824 L13.844099,3.81212824" id="Stroke-1"></path>
                <polygon id="Stroke-3" points="5.92761509 10.5133323 8.79975056 10.5133323 8.79975056 7.46949645 5.92761509 7.46949645"></polygon>
                <g id="Group-12" transform="translate(0.000000, 0.096928)">
                    <path d="M9.06040074,10.4163887 L5.66714949,10.4163887 C4.57077603,10.4163887 3.68189525,11.3103241 3.68189525,12.4132775 L3.68189525,12.5317881 L11.045655,12.5317881 L11.045655,12.4132775 C11.045655,11.3103241 10.1567742,10.4163887 9.06040074,10.4163887 Z" id="Stroke-4"></path>
                    <polygon id="Stroke-6" points="12.9605401 0.0578319529 1.76701009 0.0578319529 1.53812214e-05 7.37253742 14.7275349 7.37253742"></polygon>
                    <path d="M4.90913214,7.37258383 L5.49807911,0.057878367" id="Stroke-8"></path>
                    <path d="M9.81835657,7.37258383 L9.2294096,0.057878367" id="Stroke-10"></path>
                </g>
            </g>
        </g>
        <g id="black/bio" transform="translate(420.000000, 0.000000)">
            <rect id="Mask" transform="translate(15.000000, 15.000000) scale(-1, 1) translate(-15.000000, -15.000000) " x="0" y="0" width="30" height="30"></rect>
            <g id="bio" transform="translate(7.500000, 8.500000)" stroke="#333D47" stroke-linecap="round" stroke-linejoin="round">
                <g id="Group-15" transform="translate(4.214360, 3.792924)">
                    <path d="M0,4.83411887 C0.289181887,4.29764526 1.03681859,3.21016351 2.60298708,2.23113179" id="Stroke-1"></path>
                    <path d="M2.15506653,3.97302659 C5.644308,4.89017711 6.32154006,0.131674201 6.32154006,0.131674201 C-0.382429272,-0.64121889 0.274112668,2.21324526 0.502997154,2.85762171 C0.711376251,3.33602241 1.18484755,3.67753794 2.15506653,3.97302659 Z" id="Stroke-3"></path>
                </g>
                <path d="M0.421436004,7.00508765 L0.421436004,11.3787721" id="Stroke-5"></path>
                <path d="M0.421436004,9.6930281 C0.421436004,10.4971064 3.58009432,11.148841 7.47645598,11.148841 C11.3729717,11.148841 14.53163,10.4971064 14.53163,9.6930281" id="Stroke-7"></path>
                <path d="M0.421436004,11.3787721 C0.421436004,12.1828504 3.58009432,12.834585 7.47645598,12.834585 C11.3729717,12.834585 14.53163,12.1828504 14.53163,11.3787721" id="Stroke-9"></path>
                <path d="M14.5316454,7.00508765 L14.5316454,11.3787721" id="Stroke-11"></path>
                <path d="M14.5316454,7.00508765 C14.5316454,3.13628352 11.3729871,0 7.47647138,0 C3.58010973,0 0.421451412,3.13628352 0.421451412,7.00508765" id="Stroke-13"></path>
            </g>
        </g>
        <g id="black/winddirection" transform="translate(450.000000, 0.000000)">
            <rect id="Mask" transform="translate(15.000000, 15.000000) scale(-1, 1) translate(-15.000000, -15.000000) " x="0" y="0" width="30" height="30"></rect>
            <g id="Group-5" transform="translate(6.000000, 6.000000)" stroke="#2C3B45" stroke-linecap="round" stroke-linejoin="round" stroke-width="2">
                <polygon id="Stroke-1" points="11.1248471 17.8897765 17.6620235 -0.000105882353 -0.000211764706 6.26495294 8.24114118 9.28471765"></polygon>
                <path d="M17.6618647,-0.000105882353 L8.22139412,9.2646" id="Stroke-3"></path>
            </g>
        </g>
        <g id="black/sun" transform="translate(480.000000, 0.000000)">
            <rect id="Mask" transform="translate(15.000000, 15.000000) scale(-1, 1) translate(-15.000000, -15.000000) " x="0" y="0" width="30" height="30"></rect>
            <g id="Group" transform="translate(5.000000, 5.000000)" stroke="#2C3B45" stroke-linecap="round" stroke-linejoin="round" stroke-width="2">
                <path d="M13.0386452,13.0385806 C11.2960645,14.7811613 8.47090323,14.7811613 6.72832258,13.0385806 C4.98574194,11.296 4.98574194,8.47083871 6.72832258,6.72825806 C8.47090323,4.98567742 11.2960645,4.98567742 13.0386452,6.72825806 C14.7812258,8.47083871 14.7812258,11.296 13.0386452,13.0385806 Z M16.8715484,2.89470968 L15.1283226,4.63793548 L16.8715484,2.89470968 Z M9.88316129,-0.000129032258 L9.88316129,2.46503226 L9.88316129,-0.000129032258 Z M2.89477419,2.89470968 L4.638,4.63793548 L2.89477419,2.89470968 Z M-6.4516129e-05,9.88309677 L2.46509677,9.88309677 L-6.4516129e-05,9.88309677 Z M2.89477419,16.8714839 L4.638,15.1282581 L2.89477419,16.8714839 Z M9.88316129,19.7669677 L9.88316129,17.3011613 L9.88316129,19.7669677 Z M16.8715484,16.8714839 L15.1283226,15.1282581 L16.8715484,16.8714839 Z M19.7670323,9.88309677 L17.3005806,9.88309677 L19.7670323,9.88309677 Z" id="Stroke-1"></path>
                <path d="M6.72819355,6.72812903 C4.9856129,8.47070968 4.9856129,11.295871 6.72819355,13.0384516 C8.47077419,14.7810323 11.2959355,14.7810323 13.0385161,13.0384516 C14.7810968,11.295871 14.7810968,8.47070968 13.0385161,6.72812903 C11.2959355,4.98554839 8.47077419,4.98554839 6.72819355,6.72812903 Z" id="Stroke-3"></path>
            </g>
        </g>
        <g id="black/profile" transform="translate(510.000000, 0.000000)">
            <rect id="Mask" transform="translate(15.000000, 15.000000) scale(-1, 1) translate(-15.000000, -15.000000) " x="0" y="0" width="30" height="30"></rect>
            <g id="profile" transform="translate(8.000000, 6.000000)" fill="#2C3B45">
                <path d="M7.00048978,0 C4.79062079,0 3,1.79062079 3,4.00048978 C3,6.20937921 4.79062079,8 7.00048978,8 C9.20937921,8 11,6.20937921 11,4.00048978 C11,1.79062079 9.20937921,0 7.00048978,0" id="Fill-1"></path>
                <path d="M2.333,9.3333 C1.045,9.3333 0,10.3773 0,11.6663 L0,18.0505371 L14,18.0505371 L14,11.6663 C14,10.3773 12.955,9.3333 11.666,9.3333 L2.333,9.3333 Z" id="Fill-4"></path>
            </g>
        </g>
        <g id="white/profile" transform="translate(510.000000, 30.000000)">
            <rect id="Mask" transform="translate(15.000000, 15.000000) scale(-1, 1) translate(-15.000000, -15.000000) " x="0" y="0" width="30" height="30"></rect>
            <g id="profile" transform="translate(8.000000, 6.000000)" fill="#FFFFFF">
                <path d="M7.00048978,0 C4.79062079,0 3,1.79062079 3,4.00048978 C3,6.20937921 4.79062079,8 7.00048978,8 C9.20937921,8 11,6.20937921 11,4.00048978 C11,1.79062079 9.20937921,0 7.00048978,0" id="Fill-1"></path>
                <path d="M11.666,9.3333 L2.333,9.3333 C1.045,9.3333 0,10.3773 0,11.6663 L0,18.3333 L14,18.3333 L14,11.6663 C14,10.3773 12.955,9.3333 11.666,9.3333" id="Fill-4"></path>
            </g>
        </g>
        <g id="grey/profile" transform="translate(510.000000, 60.000000)">
            <rect id="Mask" transform="translate(15.000000, 15.000000) scale(-1, 1) translate(-15.000000, -15.000000) " x="0" y="0" width="30" height="30"></rect>
            <g id="profile" transform="translate(8.000000, 6.000000)" fill="#778EA6">
                <path d="M7.00048978,0 C4.79062079,0 3,1.79062079 3,4.00048978 C3,6.20937921 4.79062079,8 7.00048978,8 C9.20937921,8 11,6.20937921 11,4.00048978 C11,1.79062079 9.20937921,0 7.00048978,0" id="Fill-1"></path>
                <path d="M11.666,9.3333 L2.333,9.3333 C1.045,9.3333 0,10.3773 0,11.6663 L0,18.3333 L14,18.3333 L14,11.6663 C14,10.3773 12.955,9.3333 11.666,9.3333" id="Fill-4"></path>
            </g>
        </g>
        <g id="black/phone" transform="translate(540.000000, 0.000000)">
            <rect id="Mask" transform="translate(15.000000, 15.000000) scale(-1, 1) translate(-15.000000, -15.000000) " x="0" y="0" width="30" height="30"></rect>
            <g id="Group-3" transform="translate(7.000000, 6.000000)" fill="#2C3B45">
                <path d="M11.4314537,0.93576891 L10.4916133,4.35050942 C10.2975158,5.07376265 10.5063692,5.84515813 11.0387185,6.37584239 L11.2418965,6.57288971 C11.5812834,6.89421119 11.6868451,7.38906867 11.5063685,7.81675092 C10.6981966,9.58457888 9.3735664,11.0736297 7.70387405,12.0969322 C7.29638284,12.3376434 6.78332985,12.3051754 6.40989084,12.0174415 L6.18628147,11.8450251 C5.58242264,11.3938316 4.77992604,11.2908295 4.07731586,11.5740851 L0.767443038,12.9399813 C0.592641799,13.0149936 0.4371368,13.1280719 0.312278772,13.2691399 C0.106830562,13.4986552 -0.00440659091,13.7953458 0.000133701025,14.1021126 C0.00126877401,15.3258213 0.599452237,16.4722784 1.60739705,17.1843358 L1.83668179,17.33548 L1.95586445,17.4138511 C2.00921288,17.4597542 2.08072248,17.495581 2.14201642,17.5269294 C2.20444544,17.5649954 2.27027967,17.598583 2.3361139,17.6276923 C4.78106111,18.8122154 8.92975287,17.1014863 12.4586948,13.4740243 C12.4813962,13.4538717 12.5006925,13.43148 12.5188536,13.4079687 C12.6505221,13.2590636 12.7821906,13.1101585 12.9161292,12.9601338 L13.0523379,12.80787 C13.1862766,12.6567257 13.317945,12.5078207 13.4496135,12.3600352 C13.472315,12.3410022 13.4916112,12.3174909 13.5086373,12.2939795 C16.676626,8.37318569 17.8559668,4.08964563 16.35086,1.85830864 C16.3077273,1.79673135 16.2668646,1.73515406 16.2282722,1.68813141 C16.1840043,1.62767371 16.1374663,1.56945518 16.086388,1.515715 L15.992177,1.43286556 C15.9354233,1.38472332 15.8775346,1.30075429 15.7935392,1.21118732 C15.7106789,1.12273995 15.6130626,1.02981422 15.5165814,0.945845193 C14.6913833,0.227070306 13.5926327,-0.106566635 12.5006925,0.0300229853 C12.1919526,0.0669693579 11.9070493,0.214754849 11.7016011,0.446509368 C11.575608,0.587577337 11.4836671,0.754395807 11.4314537,0.93576891" id="Fill-1"></path>
            </g>
        </g>
        <g id="white/phone" transform="translate(540.000000, 30.000000)">
            <rect id="Mask" transform="translate(15.000000, 15.000000) scale(-1, 1) translate(-15.000000, -15.000000) " x="0" y="0" width="30" height="30"></rect>
            <g id="Group-3" transform="translate(7.000000, 6.000000)" fill="#FFFFFF">
                <path d="M11.4314537,0.93576891 L10.4916133,4.35050942 C10.2975158,5.07376265 10.5063692,5.84515813 11.0387185,6.37584239 L11.2418965,6.57288971 C11.5812834,6.89421119 11.6868451,7.38906867 11.5063685,7.81675092 C10.6981966,9.58457888 9.3735664,11.0736297 7.70387405,12.0969322 C7.29638284,12.3376434 6.78332985,12.3051754 6.40989084,12.0174415 L6.18628147,11.8450251 C5.58242264,11.3938316 4.77992604,11.2908295 4.07731586,11.5740851 L0.767443038,12.9399813 C0.592641799,13.0149936 0.4371368,13.1280719 0.312278772,13.2691399 C0.106830562,13.4986552 -0.00440659091,13.7953458 0.000133701025,14.1021126 C0.00126877401,15.3258213 0.599452237,16.4722784 1.60739705,17.1843358 L1.83668179,17.33548 L1.95586445,17.4138511 C2.00921288,17.4597542 2.08072248,17.495581 2.14201642,17.5269294 C2.20444544,17.5649954 2.27027967,17.598583 2.3361139,17.6276923 C4.78106111,18.8122154 8.92975287,17.1014863 12.4586948,13.4740243 C12.4813962,13.4538717 12.5006925,13.43148 12.5188536,13.4079687 C12.6505221,13.2590636 12.7821906,13.1101585 12.9161292,12.9601338 L13.0523379,12.80787 C13.1862766,12.6567257 13.317945,12.5078207 13.4496135,12.3600352 C13.472315,12.3410022 13.4916112,12.3174909 13.5086373,12.2939795 C16.676626,8.37318569 17.8559668,4.08964563 16.35086,1.85830864 C16.3077273,1.79673135 16.2668646,1.73515406 16.2282722,1.68813141 C16.1840043,1.62767371 16.1374663,1.56945518 16.086388,1.515715 L15.992177,1.43286556 C15.9354233,1.38472332 15.8775346,1.30075429 15.7935392,1.21118732 C15.7106789,1.12273995 15.6130626,1.02981422 15.5165814,0.945845193 C14.6913833,0.227070306 13.5926327,-0.106566635 12.5006925,0.0300229853 C12.1919526,0.0669693579 11.9070493,0.214754849 11.7016011,0.446509368 C11.575608,0.587577337 11.4836671,0.754395807 11.4314537,0.93576891" id="Fill-1"></path>
            </g>
        </g>
        <g id="grey/phone" transform="translate(540.000000, 60.000000)">
            <rect id="Mask" transform="translate(15.000000, 15.000000) scale(-1, 1) translate(-15.000000, -15.000000) " x="0" y="0" width="30" height="30"></rect>
            <g id="Group-3" transform="translate(7.000000, 6.000000)" fill="#778EA6">
                <path d="M11.4314537,0.93576891 L10.4916133,4.35050942 C10.2975158,5.07376265 10.5063692,5.84515813 11.0387185,6.37584239 L11.2418965,6.57288971 C11.5812834,6.89421119 11.6868451,7.38906867 11.5063685,7.81675092 C10.6981966,9.58457888 9.3735664,11.0736297 7.70387405,12.0969322 C7.29638284,12.3376434 6.78332985,12.3051754 6.40989084,12.0174415 L6.18628147,11.8450251 C5.58242264,11.3938316 4.77992604,11.2908295 4.07731586,11.5740851 L0.767443038,12.9399813 C0.592641799,13.0149936 0.4371368,13.1280719 0.312278772,13.2691399 C0.106830562,13.4986552 -0.00440659091,13.7953458 0.000133701025,14.1021126 C0.00126877401,15.3258213 0.599452237,16.4722784 1.60739705,17.1843358 L1.83668179,17.33548 L1.95586445,17.4138511 C2.00921288,17.4597542 2.08072248,17.495581 2.14201642,17.5269294 C2.20444544,17.5649954 2.27027967,17.598583 2.3361139,17.6276923 C4.78106111,18.8122154 8.92975287,17.1014863 12.4586948,13.4740243 C12.4813962,13.4538717 12.5006925,13.43148 12.5188536,13.4079687 C12.6505221,13.2590636 12.7821906,13.1101585 12.9161292,12.9601338 L13.0523379,12.80787 C13.1862766,12.6567257 13.317945,12.5078207 13.4496135,12.3600352 C13.472315,12.3410022 13.4916112,12.3174909 13.5086373,12.2939795 C16.676626,8.37318569 17.8559668,4.08964563 16.35086,1.85830864 C16.3077273,1.79673135 16.2668646,1.73515406 16.2282722,1.68813141 C16.1840043,1.62767371 16.1374663,1.56945518 16.086388,1.515715 L15.992177,1.43286556 C15.9354233,1.38472332 15.8775346,1.30075429 15.7935392,1.21118732 C15.7106789,1.12273995 15.6130626,1.02981422 15.5165814,0.945845193 C14.6913833,0.227070306 13.5926327,-0.106566635 12.5006925,0.0300229853 C12.1919526,0.0669693579 11.9070493,0.214754849 11.7016011,0.446509368 C11.575608,0.587577337 11.4836671,0.754395807 11.4314537,0.93576891" id="Fill-1"></path>
            </g>
        </g>
        <g id="grey/facebook" transform="translate(0.000000, 60.000000)">
            <rect id="Mask" x="0" y="0" width="30" height="30"></rect>
            <path d="M18.254925,10.5912 L17.012475,10.592025 C16.03815,10.592025 15.849225,11.05485 15.849225,11.733825 L15.849225,13.232025 L18.17325,13.232025 L17.870475,15.57915 L15.849225,15.57915 L15.849225,21.6 L13.4262,21.6 L13.4262,15.57915 L11.4,15.57915 L11.4,13.232025 L13.4262,13.232025 L13.4262,11.502 C13.4262,9.493125 14.652975,8.4 16.44405,8.4 C17.30205,8.4 18.0396,8.463525 18.254925,8.4924 L18.254925,10.5912 Z" id="Path" fill="#778EA6" fill-rule="nonzero"></path>
        </g>
        <g id="grey/twitter" transform="translate(30.000000, 60.000000)">
            <rect id="Mask" x="0" y="0" width="30" height="30"></rect>
            <path d="M21,11.4072909 C20.558625,11.6120361 20.083875,11.7504941 19.585875,11.8128591 C20.094375,11.4939742 20.48475,10.9895635 20.6685,10.3882715 C20.193,10.6832301 19.66575,10.897389 19.105125,11.0130975 C18.655875,10.5126091 18.016125,10.2 17.308125,10.2 C15.948375,10.2 14.84625,11.3527706 14.84625,12.7750048 C14.84625,12.9766122 14.868,13.1731206 14.91,13.3617843 C12.863625,13.2543126 11.04975,12.2290175 9.8355,10.6710709 C9.623625,11.0515362 9.502125,11.4939742 9.502125,11.9658296 C9.502125,12.8589425 9.93675,13.6473294 10.597125,14.1089867 C10.193625,14.0956508 9.814125,13.9799423 9.48225,13.786964 C9.481875,13.7979465 9.481875,13.8085368 9.481875,13.8195193 C9.481875,15.0672102 10.3305,16.1078023 11.457,16.3443184 C11.250375,16.4031532 11.032875,16.4345318 10.80825,16.4345318 C10.649625,16.4345318 10.4955,16.4184503 10.345125,16.3886406 C10.65825,17.4115824 11.567625,18.1560392 12.645,18.1768275 C11.802375,18.8675485 10.74075,19.2790002 9.58725,19.2790002 C9.3885,19.2790002 9.19275,19.266841 9,19.2433071 C10.089375,19.9736435 11.3835,20.4 12.774,20.4 C17.3025,20.4 19.778625,16.4761084 19.778625,13.0734936 C19.778625,12.9617074 19.776375,12.8507056 19.7715,12.7400961 C20.252625,12.3772813 20.67,11.9238608 21,11.4072909" id="Fill-1" fill="#778EA6"></path>
        </g>
        <g id="black/youtube" transform="translate(60.000000, 60.000000)">
            <rect id="Mask" x="0" y="0" width="30" height="30"></rect>
            <path d="M13.761,16.5490381 L13.760625,13.193442 L17.002875,14.8770249 L13.761,16.5490381 Z M20.88,12.6119696 C20.88,12.6119696 20.762625,11.7890256 20.403,11.4266317 C19.946625,10.9507798 19.435125,10.9485405 19.20075,10.9209224 C17.5215,10.8 15.002625,10.8 15.002625,10.8 L14.997375,10.8 C14.997375,10.8 12.4785,10.8 10.79925,10.9209224 C10.5645,10.9485405 10.053375,10.9507798 9.596625,11.4266317 C9.237,11.7890256 9.12,12.6119696 9.12,12.6119696 C9.12,12.6119696 9,13.5786022 9,14.5448616 L9,15.451033 C9,16.4176656 9.12,17.383925 9.12,17.383925 C9.12,17.383925 9.237,18.206869 9.596625,18.5692629 C10.053375,19.0451149 10.653,19.0301862 10.92,19.0798241 C11.88,19.1716355 15,19.2 15,19.2 C15,19.2 17.5215,19.1962678 19.20075,19.0753454 C19.435125,19.0473542 19.946625,19.0451149 20.403,18.5692629 C20.762625,18.206869 20.88,17.383925 20.88,17.383925 C20.88,17.383925 21,16.4176656 21,15.451033 L21,14.5448616 C21,13.5786022 20.88,12.6119696 20.88,12.6119696 L20.88,12.6119696 Z" id="Fill-25" fill="#778EA6"></path>
        </g>
        <g id="grey/instagram" transform="translate(90.000000, 60.000000)">
            <rect id="Mask" x="0" y="0" width="30" height="30"></rect>
            <path d="M19.4307692,19.8 L10.5692308,19.8 C10.3654154,19.8 10.2,19.632 10.2,19.425 L10.2,13.8 L11.6769231,13.8 C11.4845538,14.08125 11.4195692,14.605875 11.4195692,14.938875 C11.4195692,16.947 13.032,18.580875 15.0136615,18.580875 C16.9956923,18.580875 18.6081231,16.947 18.6081231,14.938875 C18.6081231,14.605875 18.5616,14.089125 18.3230769,13.8 L19.8,13.8 L19.8,19.425 C19.8,19.632 19.6345846,19.8 19.4307692,19.8 M14.999805,12.6 C16.3254896,12.6 17.4,13.6746152 17.4,14.9998045 C17.4,16.3253848 16.3254896,17.4 14.999805,17.4 C13.6745104,17.4 12.6,16.3253848 12.6,14.9998045 C12.6,13.6746152 13.6745104,12.6 14.999805,12.6 M17.76,10.8 L18.84,10.8 C19.03872,10.8 19.2,10.96128 19.2,11.16 L19.2,12.24 C19.2,12.43872 19.03872,12.6 18.84,12.6 L17.76,12.6 C17.56128,12.6 17.4,12.43872 17.4,12.24 L17.4,11.16 C17.4,10.96128 17.56128,10.8 17.76,10.8 M19.5735,9 L10.4265,9 C9.638625,9 9,9.637125 9,10.423125 L9,19.576875 C9,20.362875 9.638625,21 10.4265,21 L19.5735,21 C20.361375,21 21,20.362875 21,19.576875 L21,10.423125 C21,9.637125 20.361375,9 19.5735,9" id="Fill-23" fill="#778EA6"></path>
        </g>
        <g id="grey/arrowleft" transform="translate(120.000000, 60.000000)">
            <rect id="Rectangle-8" fill-rule="nonzero" x="0" y="0" width="30" height="30"></rect>
            <path d="M19.8724358,11.2304973 L12.3890139,18.7130693 L16.5116176,18.7130693 C16.8865931,18.7130693 17.1905708,19.0170676 17.1905708,19.3920685 C17.1905708,19.7670695 16.8865931,20.0710678 16.5116176,20.0710678 L10.750021,20.0710678 C10.5726111,20.0701084 10.4025796,19.9999473 10.2761117,19.875516 C10.2747538,19.874158 10.272038,19.874158 10.27068,19.871442 C10.2679642,19.868726 10.2679642,19.86601 10.2652484,19.863294 C10.2048058,19.8020475 10.1568425,19.7296363 10.1240262,19.6500883 C10.0897281,19.569307 10.0717306,19.4825438 10.0710678,19.3947845 L10.0710678,13.6300807 C10.0710678,13.2550798 10.3750455,12.9510815 10.750021,12.9510815 C11.1249965,12.9510815 11.4289742,13.2550798 11.4289742,13.6300807 L11.4289742,17.7529643 L18.9110381,10.2703923 C19.1761458,10.0048917 19.6062742,10.0045877 19.8717568,10.2697134 C20.1372394,10.534839 20.1375434,10.9649966 19.8724358,11.2304973 Z" id="Path" fill="#778EA6" transform="translate(15.071068, 15.071068) scale(-1, 1) rotate(-135.000000) translate(-15.071068, -15.071068) "></path>
        </g>
        <g id="grey/arrowright" transform="translate(150.000000, 60.000000)">
            <rect id="Rectangle-8" fill-rule="nonzero" x="0" y="0" width="30" height="30"></rect>
            <path d="M19.8724358,11.2304973 L12.3890139,18.7130693 L16.5116176,18.7130693 C16.8865931,18.7130693 17.1905708,19.0170676 17.1905708,19.3920685 C17.1905708,19.7670695 16.8865931,20.0710678 16.5116176,20.0710678 L10.750021,20.0710678 C10.5726111,20.0701084 10.4025796,19.9999473 10.2761117,19.875516 C10.2747538,19.874158 10.272038,19.874158 10.27068,19.871442 C10.2679642,19.868726 10.2679642,19.86601 10.2652484,19.863294 C10.2048058,19.8020475 10.1568425,19.7296363 10.1240262,19.6500883 C10.0897281,19.569307 10.0717306,19.4825438 10.0710678,19.3947845 L10.0710678,13.6300807 C10.0710678,13.2550798 10.3750455,12.9510815 10.750021,12.9510815 C11.1249965,12.9510815 11.4289742,13.2550798 11.4289742,13.6300807 L11.4289742,17.7529643 L18.9110381,10.2703923 C19.1761458,10.0048917 19.6062742,10.0045877 19.8717568,10.2697134 C20.1372394,10.534839 20.1375434,10.9649966 19.8724358,11.2304973 Z" id="Path" fill="#778EA6" transform="translate(15.071068, 15.071068) rotate(-135.000000) translate(-15.071068, -15.071068) "></path>
        </g>
        <g id="grey/search" transform="translate(180.000000, 60.000000)">
            <rect id="Rectangle-13" fill-rule="nonzero" x="0" y="0" width="30" height="30"></rect>
            <g id="Group-11" transform="translate(9.000000, 9.000000)">
                <path d="M0,12 L3.75,8.25" id="Stroke-1" stroke="#778EA6" stroke-width="1.8" stroke-linecap="round" stroke-linejoin="round"></path>
                <path d="M6.50892857,0 C3.74673214,0 1.5,2.29270109 1.5,5.11141304 C1.5,7.92919565 3.74673214,10.2228261 6.50892857,10.2228261 C9.27021429,10.2228261 11.5178571,7.92919565 11.5178571,5.11141304 C11.5178571,2.29270109 9.27021429,0 6.50892857,0 M6.50892857,1.85869565 C8.26842857,1.85869565 9.69642857,3.31405435 9.69642857,5.11141304 C9.69642857,6.90784239 8.26842857,8.36413043 6.50892857,8.36413043 C4.74760714,8.36413043 3.32142857,6.90784239 3.32142857,5.11141304 C3.32142857,3.31405435 4.74760714,1.85869565 6.50892857,1.85869565" id="Fill-3" fill="#778EA6"></path>
            </g>
        </g>
        <g id="grey/thumsbup" transform="translate(210.000000, 60.000000)">
            <rect id="Rectangle-14" fill-rule="nonzero" x="0" y="0" width="30" height="30"></rect>
            <g id="icon/thumbsup" transform="translate(6.500000, 7.500000)" stroke="#778EA6" stroke-linecap="round" stroke-linejoin="round">
                <g>
                    <polygon id="Stroke-1" points="0 14.9895 3.995 14.9895 3.995 7 0 7"></polygon>
                    <path d="M4,6.991 C6.206,6.991 7.9945,5.2025 7.9945,2.996 L7.9945,0 L8.9935,0 C10.0965,0 10.9905,0.8945 10.9905,1.9975 L10.9905,5.992 L14.9715,5.992" id="Stroke-3"></path>
                    <path d="M14.986,6 C16.089,6 17.172,6.8115 16.9835,7.9975 C16.795,9.1835 15.985,13.4075 15.985,13.4075 C15.6425,14.989 14.4685,15.0005 14.207,14.989 L5.997,14.989 L4,13.99" id="Stroke-4"></path>
                </g>
            </g>
        </g>
        <g id="grey/app" transform="translate(240.000000, 60.000000)">
            <rect id="Rectangle-14" fill-rule="nonzero" x="0" y="0" width="30" height="30"></rect>
            <g id="icon/onderweg" transform="translate(8.000000, 5.000000)">
                <g>
                    <path d="M13,0 L1,0 C0.4495,0 0,0.45 0,1 L0,19 C0,19.5505 0.4495,20 1,20 L13,20 C13.5505,20 14,19.5505 14,19 L14,1 C14,0.45 13.5505,0 13,0 M12.76,1 C12.89008,1 13,1.11140541 13,1.24324324 L13,18.7567568 C13,18.8885946 12.89008,19 12.76,19 L1.24,19 C1.10992,19 1,18.8885946 1,18.7567568 L1,1.24324324 C1,1.11140541 1.10992,1 1.24,1 L12.76,1" id="Fill-2" fill="#778EA6"></path>
                    <path d="M0,16 L14,16 L14,4 L0,4 L0,16 Z M1,15 L13,15 L13,5 L1,5 L1,15 Z" id="Fill-5" fill="#778EA6"></path>
                    <polygon id="Stroke-7" stroke="#778EA6" stroke-linecap="round" stroke-linejoin="round" points="8 2 7.25 2 6.5 2 7.25 2"></polygon>
                </g>
            </g>
        </g>
        <g id="grey/app" transform="translate(570.000000, 60.000000)">
            <rect id="Rectangle-14" fill-rule="nonzero" x="0" y="0" width="30" height="30"></rect>
            <g id="icon/onderweg" transform="translate(0.000000, 5.000000)">
                <g>
                    <path d="M13,0 L1,0 C0.4495,0 0,0.45 0,1 L0,19 C0,19.5505 0.4495,20 1,20 L13,20 C13.5505,20 14,19.5505 14,19 L14,1 C14,0.45 13.5505,0 13,0 M12.76,1 C12.89008,1 13,1.11140541 13,1.24324324 L13,18.7567568 C13,18.8885946 12.89008,19 12.76,19 L1.24,19 C1.10992,19 1,18.8885946 1,18.7567568 L1,1.24324324 C1,1.11140541 1.10992,1 1.24,1 L12.76,1" id="Fill-2" fill="#778EA6"></path>
                    <path d="M0,16 L14,16 L14,4 L0,4 L0,16 Z M1,15 L13,15 L13,5 L1,5 L1,15 Z" id="Fill-5" fill="#778EA6"></path>
                    <polygon id="Stroke-7" stroke="#778EA6" stroke-linecap="round" stroke-linejoin="round" points="8 2 7.25 2 6.5 2 7.25 2"></polygon>
                </g>
            </g>
        </g>
        <g id="grey/laadpas" transform="translate(270.000000, 60.000000)">
            <rect id="Rectangle-14" fill-rule="nonzero" x="0" y="0" width="30" height="30"></rect>
            <g id="icon/laadpas" transform="translate(5.000000, 8.000000)">
                <path d="M19.5,0.5 L0.5,0.5 C0.500892037,0.5 0.5,0.500892653 0.5,0.5 L0.5,13.5 C0.5,13.4991073 0.500892037,13.5 0.5,13.5 L19.5,13.5 C19.4986072,13.5 19.5,13.4986081 19.5,13.5 L19.5,0.5 C19.5,0.501391865 19.4986072,0.5 19.5,0.5 Z" id="Fill-1" stroke="#778EA6"></path>
                <path d="M1,9 L19,9" id="Stroke-4" stroke="#2C3B45" stroke-width="0.75" stroke-linecap="round" stroke-linejoin="round"></path>
                <path d="M1,9 L19,9" id="Stroke-6" stroke="#778EA6" stroke-linecap="round" stroke-linejoin="round"></path>
                <path d="M5,5 L9,5" id="Stroke-8" stroke="#778EA6" stroke-linecap="round" stroke-linejoin="round"></path>
            </g>
        </g>
        <g id="grey/laadpas" transform="translate(600.000000, 60.000000)">
            <rect id="Rectangle-14" fill-rule="nonzero" x="0" y="0" width="30" height="30"></rect>
            <g id="icon/laadpas" transform="translate(0.000000, 8.000000)">
                <path d="M19.5,0.5 L0.5,0.5 C0.500892037,0.5 0.5,0.500892653 0.5,0.5 L0.5,13.5 C0.5,13.4991073 0.500892037,13.5 0.5,13.5 L19.5,13.5 C19.4986072,13.5 19.5,13.4986081 19.5,13.5 L19.5,0.5 C19.5,0.501391865 19.4986072,0.5 19.5,0.5 Z" id="Fill-1" stroke="#778EA6"></path>
                <path d="M1,9 L19,9" id="Stroke-4" stroke="#2C3B45" stroke-width="0.75" stroke-linecap="round" stroke-linejoin="round"></path>
                <path d="M1,9 L19,9" id="Stroke-6" stroke="#778EA6" stroke-linecap="round" stroke-linejoin="round"></path>
                <path d="M5,5 L9,5" id="Stroke-8" stroke="#778EA6" stroke-linecap="round" stroke-linejoin="round"></path>
            </g>
        </g>
        <g id="grey/laadpal" transform="translate(300.000000, 60.000000)">
            <rect id="Rectangle-15" fill-rule="nonzero" x="0" y="0" width="30" height="30"></rect>
            <g id="icon/laadpaal" transform="translate(8.000000, 6.000000)">
                <path d="M7,18 L7,9" id="Stroke-1" stroke="#778EA6" stroke-linecap="round" stroke-linejoin="round"></path>
                <path d="M7,7 L7,6" id="Stroke-3" stroke="#778EA6" stroke-linecap="round" stroke-linejoin="round"></path>
                <polygon id="Clip-5" points="0 18 14 18 14 18.375 0 18.375"></polygon>
                <path d="M0,18 L14,18" id="Stroke-4" stroke="#778EA6" stroke-linecap="round" stroke-linejoin="round"></path>
                <path d="M3.5,3.5 L10.5,3.5" id="Stroke-7" stroke="#778EA6" stroke-linecap="round" stroke-linejoin="round"></path>
                <polygon id="Stroke-8" stroke="#778EA6" stroke-linecap="round" stroke-linejoin="round" points="3.5 9 10.5 9 10.5 0 3.5 0"></polygon>
            </g>
        </g>
        <g id="grey/laadpal" transform="translate(630.000000, 60.000000)">
            <rect id="Rectangle-15" fill-rule="nonzero" x="0" y="0" width="30" height="30"></rect>
            <g id="icon/laadpaal" transform="translate(0.000000, 6.000000)">
                <path d="M7,18 L7,9" id="Stroke-1" stroke="#778EA6" stroke-linecap="round" stroke-linejoin="round"></path>
                <path d="M7,7 L7,6" id="Stroke-3" stroke="#778EA6" stroke-linecap="round" stroke-linejoin="round"></path>
                <polygon id="Clip-5" points="0 18 14 18 14 18.375 0 18.375"></polygon>
                <path d="M0,18 L14,18" id="Stroke-4" stroke="#778EA6" stroke-linecap="round" stroke-linejoin="round"></path>
                <path d="M3.5,3.5 L10.5,3.5" id="Stroke-7" stroke="#778EA6" stroke-linecap="round" stroke-linejoin="round"></path>
                <polygon id="Stroke-8" stroke="#778EA6" stroke-linecap="round" stroke-linejoin="round" points="3.5 9 10.5 9 10.5 0 3.5 0"></polygon>
            </g>
        </g>
        <g id="grey/slimladen" transform="translate(330.000000, 60.000000)">
            <rect id="Rectangle-16" fill-rule="nonzero" x="0" y="0" width="30" height="30"></rect>
            <g id="icon/slimladen" transform="translate(9.000000, 3.000000)">
                <path d="M11.5,5 L0.5,5 C0.2245,5 0,5.24490909 0,5.54545455 L0,9.90909091 C0,10.2090909 0.1005,10.6738182 0.2235,10.9427273 L1.7765,14.33 C1.8995,14.5983636 2,15.0630909 2,15.3636364 L2,16.4545455 C2,16.7545455 2.2245,17 2.5,17 L9.5,17 C9.775,17 10,16.7545455 10,16.4545455 L10,15.3636364 C10,15.0630909 10.1005,14.5983636 10.2235,14.33 L11.7765,10.9427273 C11.8995,10.6738182 12,10.2090909 12,9.90909091 L12,5.54545455 C12,5.24490909 11.775,5 11.5,5 M11,6.09090909 L11,9.90909091 C11,10.0405455 10.936,10.3361818 10.882,10.4545455 L9.329,13.8418182 C9.1355,14.2645455 9,14.8907273 9,15.3636364 L9,15.9090909 L3,15.9090909 L3,15.3636364 C3,14.8907273 2.8645,14.2645455 2.671,13.8423636 L1.118,10.454 C1.064,10.3361818 1,10.0405455 1,9.90909091 L1,6.09090909 L11,6.09090909" id="Fill-1" fill="#778EA6"></path>
                <path d="M9,0 L9,5.48780488" id="Stroke-3" stroke="#778EA6" stroke-linecap="round" stroke-linejoin="round"></path>
                <path d="M6,16.5 L6,21.5" id="Stroke-5" stroke="#778EA6" stroke-linecap="round" stroke-linejoin="round"></path>
                <path d="M3,5.48780488 L3,0" id="Stroke-7" stroke="#778EA6" stroke-linecap="round" stroke-linejoin="round"></path>
                <path d="M4,13.4146341 L4,11.5853659" id="Stroke-9" stroke="#778EA6" stroke-linecap="round" stroke-linejoin="round"></path>
                <path d="M6,13.4146341 L6,11.5853659" id="Stroke-11" stroke="#778EA6" stroke-linecap="round" stroke-linejoin="round"></path>
                <path d="M8,13.4146341 L8,11.5853659" id="Stroke-13" stroke="#778EA6" stroke-linecap="round" stroke-linejoin="round"></path>
            </g>
        </g>
        <g id="grey/slimladen" transform="translate(660.000000, 60.000000)">
            <rect id="Rectangle-16" fill-rule="nonzero" x="0" y="0" width="30" height="30"></rect>
            <g id="icon/slimladen" transform="translate(0.000000, 3.000000)">
                <path d="M11.5,5 L0.5,5 C0.2245,5 0,5.24490909 0,5.54545455 L0,9.90909091 C0,10.2090909 0.1005,10.6738182 0.2235,10.9427273 L1.7765,14.33 C1.8995,14.5983636 2,15.0630909 2,15.3636364 L2,16.4545455 C2,16.7545455 2.2245,17 2.5,17 L9.5,17 C9.775,17 10,16.7545455 10,16.4545455 L10,15.3636364 C10,15.0630909 10.1005,14.5983636 10.2235,14.33 L11.7765,10.9427273 C11.8995,10.6738182 12,10.2090909 12,9.90909091 L12,5.54545455 C12,5.24490909 11.775,5 11.5,5 M11,6.09090909 L11,9.90909091 C11,10.0405455 10.936,10.3361818 10.882,10.4545455 L9.329,13.8418182 C9.1355,14.2645455 9,14.8907273 9,15.3636364 L9,15.9090909 L3,15.9090909 L3,15.3636364 C3,14.8907273 2.8645,14.2645455 2.671,13.8423636 L1.118,10.454 C1.064,10.3361818 1,10.0405455 1,9.90909091 L1,6.09090909 L11,6.09090909" id="Fill-1" fill="#778EA6"></path>
                <path d="M9,0 L9,5.48780488" id="Stroke-3" stroke="#778EA6" stroke-linecap="round" stroke-linejoin="round"></path>
                <path d="M6,16.5 L6,21.5" id="Stroke-5" stroke="#778EA6" stroke-linecap="round" stroke-linejoin="round"></path>
                <path d="M3,5.48780488 L3,0" id="Stroke-7" stroke="#778EA6" stroke-linecap="round" stroke-linejoin="round"></path>
                <path d="M4,13.4146341 L4,11.5853659" id="Stroke-9" stroke="#778EA6" stroke-linecap="round" stroke-linejoin="round"></path>
                <path d="M6,13.4146341 L6,11.5853659" id="Stroke-11" stroke="#778EA6" stroke-linecap="round" stroke-linejoin="round"></path>
                <path d="M8,13.4146341 L8,11.5853659" id="Stroke-13" stroke="#778EA6" stroke-linecap="round" stroke-linejoin="round"></path>
            </g>
        </g>
        <g id="grey/windmill" transform="translate(390.000000, 60.000000)">
            <rect id="Mask" transform="translate(15.000000, 15.000000) scale(-1, 1) translate(-15.000000, -15.000000) " x="0" y="0" width="30" height="30"></rect>
            <g id="Group-13" transform="translate(10.000000, 7.000000)" stroke="#778EA6" stroke-linejoin="round">
                <path d="M4.89528571,15.4073956 L4.89528571,5.73130667" id="Stroke-1"></path>
                <path d="M-7.14285714e-05,15.4073956 L9.79064286,15.4073956" id="Stroke-3" stroke-linecap="round"></path>
                <path d="M4.04846429,4.53272889 C0.263821429,5.02517333 0.89025,7.76046222 0.89025,7.76046222 L4.40096429,5.74232889" id="Stroke-5" stroke-linecap="round"></path>
                <path d="M5.65978571,4.26346667 C7.05585714,0.816 4.40121429,0 4.40121429,0 L4.40121429,4.04551111" id="Stroke-7" stroke-linecap="round"></path>
                <path d="M5.04385714,5.74627556 C7.35064286,8.69987556 9.39635714,6.81116444 9.39635714,6.81116444 L5.77742857,4.73116444" id="Stroke-9" stroke-linecap="round"></path>
                <path d="M5.74210714,4.88828444 C5.74210714,4.42250667 5.36282143,4.04526222 4.89532143,4.04526222 C4.42746429,4.04526222 4.04889286,4.42250667 4.04889286,4.88828444 C4.04889286,5.35370667 4.42746429,5.73130667 4.89532143,5.73130667 C5.36282143,5.73130667 5.74210714,5.35370667 5.74210714,4.88828444 Z" id="Stroke-11" stroke-linecap="round"></path>
            </g>
        </g>
        <g id="grey/solar" transform="translate(360.000000, 60.000000)">
            <rect id="Mask" transform="translate(15.000000, 15.000000) scale(-1, 1) translate(-15.000000, -15.000000) " x="0" y="0" width="30" height="30"></rect>
            <g id="icon/solarpanel" transform="translate(7.500000, 8.500000)" stroke="#778EA6" stroke-linecap="round" stroke-linejoin="round">
                <path d="M0.88342045,3.81212824 L13.844099,3.81212824" id="Stroke-1"></path>
                <polygon id="Stroke-3" points="5.92761509 10.5133323 8.79975056 10.5133323 8.79975056 7.46949645 5.92761509 7.46949645"></polygon>
                <g id="Group-12" transform="translate(0.000000, 0.096928)">
                    <path d="M9.06040074,10.4163887 L5.66714949,10.4163887 C4.57077603,10.4163887 3.68189525,11.3103241 3.68189525,12.4132775 L3.68189525,12.5317881 L11.045655,12.5317881 L11.045655,12.4132775 C11.045655,11.3103241 10.1567742,10.4163887 9.06040074,10.4163887 Z" id="Stroke-4"></path>
                    <polygon id="Stroke-6" points="12.9605401 0.0578319529 1.76701009 0.0578319529 1.53812214e-05 7.37253742 14.7275349 7.37253742"></polygon>
                    <path d="M4.90913214,7.37258383 L5.49807911,0.057878367" id="Stroke-8"></path>
                    <path d="M9.81835657,7.37258383 L9.2294096,0.057878367" id="Stroke-10"></path>
                </g>
            </g>
        </g>
        <g id="grey/bio" transform="translate(420.000000, 60.000000)">
            <rect id="Mask" transform="translate(15.000000, 15.000000) scale(-1, 1) translate(-15.000000, -15.000000) " x="0" y="0" width="30" height="30"></rect>
            <g id="bio" transform="translate(7.500000, 8.500000)" stroke="#778EA6" stroke-linecap="round" stroke-linejoin="round">
                <g id="Group-15" transform="translate(4.214360, 3.792924)">
                    <path d="M0,4.83411887 C0.289181887,4.29764526 1.03681859,3.21016351 2.60298708,2.23113179" id="Stroke-1"></path>
                    <path d="M2.15506653,3.97302659 C5.644308,4.89017711 6.32154006,0.131674201 6.32154006,0.131674201 C-0.382429272,-0.64121889 0.274112668,2.21324526 0.502997154,2.85762171 C0.711376251,3.33602241 1.18484755,3.67753794 2.15506653,3.97302659 Z" id="Stroke-3"></path>
                </g>
                <path d="M0.421436004,7.00508765 L0.421436004,11.3787721" id="Stroke-5"></path>
                <path d="M0.421436004,9.6930281 C0.421436004,10.4971064 3.58009432,11.148841 7.47645598,11.148841 C11.3729717,11.148841 14.53163,10.4971064 14.53163,9.6930281" id="Stroke-7"></path>
                <path d="M0.421436004,11.3787721 C0.421436004,12.1828504 3.58009432,12.834585 7.47645598,12.834585 C11.3729717,12.834585 14.53163,12.1828504 14.53163,11.3787721" id="Stroke-9"></path>
                <path d="M14.5316454,7.00508765 L14.5316454,11.3787721" id="Stroke-11"></path>
                <path d="M14.5316454,7.00508765 C14.5316454,3.13628352 11.3729871,0 7.47647138,0 C3.58010973,0 0.421451412,3.13628352 0.421451412,7.00508765" id="Stroke-13"></path>
            </g>
        </g>
        <g id="grey/winddirection" transform="translate(450.000000, 60.000000)">
            <rect id="Mask" transform="translate(15.000000, 15.000000) scale(-1, 1) translate(-15.000000, -15.000000) " x="0" y="0" width="30" height="30"></rect>
            <g id="Group-5" transform="translate(6.000000, 6.000000)" stroke="#778EA6" stroke-linecap="round" stroke-linejoin="round" stroke-width="2">
                <polygon id="Stroke-1" points="11.1248471 17.8897765 17.6620235 -0.000105882353 -0.000211764706 6.26495294 8.24114118 9.28471765"></polygon>
                <path d="M17.6618647,-0.000105882353 L8.22139412,9.2646" id="Stroke-3"></path>
            </g>
        </g>
        <g id="grey/sun" transform="translate(480.000000, 60.000000)">
            <rect id="Mask" transform="translate(15.000000, 15.000000) scale(-1, 1) translate(-15.000000, -15.000000) " x="0" y="0" width="30" height="30"></rect>
            <g id="Group" transform="translate(5.000000, 5.000000)" stroke="#778EA6" stroke-linecap="round" stroke-linejoin="round" stroke-width="2">
                <path d="M13.0386452,13.0385806 C11.2960645,14.7811613 8.47090323,14.7811613 6.72832258,13.0385806 C4.98574194,11.296 4.98574194,8.47083871 6.72832258,6.72825806 C8.47090323,4.98567742 11.2960645,4.98567742 13.0386452,6.72825806 C14.7812258,8.47083871 14.7812258,11.296 13.0386452,13.0385806 Z M16.8715484,2.89470968 L15.1283226,4.63793548 L16.8715484,2.89470968 Z M9.88316129,-0.000129032258 L9.88316129,2.46503226 L9.88316129,-0.000129032258 Z M2.89477419,2.89470968 L4.638,4.63793548 L2.89477419,2.89470968 Z M-6.4516129e-05,9.88309677 L2.46509677,9.88309677 L-6.4516129e-05,9.88309677 Z M2.89477419,16.8714839 L4.638,15.1282581 L2.89477419,16.8714839 Z M9.88316129,19.7669677 L9.88316129,17.3011613 L9.88316129,19.7669677 Z M16.8715484,16.8714839 L15.1283226,15.1282581 L16.8715484,16.8714839 Z M19.7670323,9.88309677 L17.3005806,9.88309677 L19.7670323,9.88309677 Z" id="Stroke-1"></path>
                <path d="M6.72819355,6.72812903 C4.9856129,8.47070968 4.9856129,11.295871 6.72819355,13.0384516 C8.47077419,14.7810323 11.2959355,14.7810323 13.0385161,13.0384516 C14.7810968,11.295871 14.7810968,8.47070968 13.0385161,6.72812903 C11.2959355,4.98554839 8.47077419,4.98554839 6.72819355,6.72812903 Z" id="Stroke-3"></path>
            </g>
        </g>
        <g id="white/winddirection" transform="translate(450.000000, 30.000000)">
            <rect id="Mask" transform="translate(15.000000, 15.000000) scale(-1, 1) translate(-15.000000, -15.000000) " x="0" y="0" width="30" height="30"></rect>
            <g id="Group-5" transform="translate(6.000000, 6.000000)" stroke="#FFFFFF" stroke-linecap="round" stroke-linejoin="round" stroke-width="2">
                <polygon id="Stroke-1" points="11.1248471 17.8897765 17.6620235 -0.000105882353 -0.000211764706 6.26495294 8.24114118 9.28471765"></polygon>
                <path d="M17.6618647,-0.000105882353 L8.22139412,9.2646" id="Stroke-3"></path>
            </g>
        </g>
        <g id="white/sun" transform="translate(480.000000, 30.000000)">
            <rect id="Mask" transform="translate(15.000000, 15.000000) scale(-1, 1) translate(-15.000000, -15.000000) " x="0" y="0" width="30" height="30"></rect>
            <g id="Group" transform="translate(5.000000, 5.000000)" stroke="#FFFFFF" stroke-linecap="round" stroke-linejoin="round" stroke-width="2">
                <path d="M13.0386452,13.0385806 C11.2960645,14.7811613 8.47090323,14.7811613 6.72832258,13.0385806 C4.98574194,11.296 4.98574194,8.47083871 6.72832258,6.72825806 C8.47090323,4.98567742 11.2960645,4.98567742 13.0386452,6.72825806 C14.7812258,8.47083871 14.7812258,11.296 13.0386452,13.0385806 Z M16.8715484,2.89470968 L15.1283226,4.63793548 L16.8715484,2.89470968 Z M9.88316129,-0.000129032258 L9.88316129,2.46503226 L9.88316129,-0.000129032258 Z M2.89477419,2.89470968 L4.638,4.63793548 L2.89477419,2.89470968 Z M-6.4516129e-05,9.88309677 L2.46509677,9.88309677 L-6.4516129e-05,9.88309677 Z M2.89477419,16.8714839 L4.638,15.1282581 L2.89477419,16.8714839 Z M9.88316129,19.7669677 L9.88316129,17.3011613 L9.88316129,19.7669677 Z M16.8715484,16.8714839 L15.1283226,15.1282581 L16.8715484,16.8714839 Z M19.7670323,9.88309677 L17.3005806,9.88309677 L19.7670323,9.88309677 Z" id="Stroke-1"></path>
                <path d="M6.72819355,6.72812903 C4.9856129,8.47070968 4.9856129,11.295871 6.72819355,13.0384516 C8.47077419,14.7810323 11.2959355,14.7810323 13.0385161,13.0384516 C14.7810968,11.295871 14.7810968,8.47070968 13.0385161,6.72812903 C11.2959355,4.98554839 8.47077419,4.98554839 6.72819355,6.72812903 Z" id="Stroke-3"></path>
            </g>
        </g>
        <g id="white/bio" transform="translate(420.000000, 30.000000)">
            <rect id="Mask" transform="translate(15.000000, 15.000000) scale(-1, 1) translate(-15.000000, -15.000000) " x="0" y="0" width="30" height="30"></rect>
            <g id="bio" transform="translate(7.500000, 8.500000)" stroke="#FFFFFF" stroke-linecap="round" stroke-linejoin="round">
                <g id="Group-15" transform="translate(4.214360, 3.792924)">
                    <path d="M0,4.83411887 C0.289181887,4.29764526 1.03681859,3.21016351 2.60298708,2.23113179" id="Stroke-1"></path>
                    <path d="M2.15506653,3.97302659 C5.644308,4.89017711 6.32154006,0.131674201 6.32154006,0.131674201 C-0.382429272,-0.64121889 0.274112668,2.21324526 0.502997154,2.85762171 C0.711376251,3.33602241 1.18484755,3.67753794 2.15506653,3.97302659 Z" id="Stroke-3"></path>
                </g>
                <path d="M0.421436004,7.00508765 L0.421436004,11.3787721" id="Stroke-5"></path>
                <path d="M0.421436004,9.6930281 C0.421436004,10.4971064 3.58009432,11.148841 7.47645598,11.148841 C11.3729717,11.148841 14.53163,10.4971064 14.53163,9.6930281" id="Stroke-7"></path>
                <path d="M0.421436004,11.3787721 C0.421436004,12.1828504 3.58009432,12.834585 7.47645598,12.834585 C11.3729717,12.834585 14.53163,12.1828504 14.53163,11.3787721" id="Stroke-9"></path>
                <path d="M14.5316454,7.00508765 L14.5316454,11.3787721" id="Stroke-11"></path>
                <path d="M14.5316454,7.00508765 C14.5316454,3.13628352 11.3729871,0 7.47647138,0 C3.58010973,0 0.421451412,3.13628352 0.421451412,7.00508765" id="Stroke-13"></path>
            </g>
        </g>
        <g id="white/app" transform="translate(240.000000, 30.000000)">
            <rect id="Rectangle-14" fill-rule="nonzero" x="0" y="0" width="30" height="30"></rect>
            <g id="icon/onderweg" transform="translate(8.000000, 5.000000)">
                <g>
                    <path d="M13,0 L1,0 C0.4495,0 0,0.45 0,1 L0,19 C0,19.5505 0.4495,20 1,20 L13,20 C13.5505,20 14,19.5505 14,19 L14,1 C14,0.45 13.5505,0 13,0 M12.76,1 C12.89008,1 13,1.11140541 13,1.24324324 L13,18.7567568 C13,18.8885946 12.89008,19 12.76,19 L1.24,19 C1.10992,19 1,18.8885946 1,18.7567568 L1,1.24324324 C1,1.11140541 1.10992,1 1.24,1 L12.76,1" id="Fill-2" fill="#FFFFFF"></path>
                    <path d="M0,16 L14,16 L14,4 L0,4 L0,16 Z M1,15 L13,15 L13,5 L1,5 L1,15 Z" id="Fill-5" fill="#FFFFFF"></path>
                    <polygon id="Stroke-7" stroke="#FFFFFF" stroke-linecap="round" stroke-linejoin="round" points="8 2 7.25 2 6.5 2 7.25 2"></polygon>
                </g>
            </g>
        </g>
        <g id="white/app" transform="translate(570.000000, 30.000000)">
            <rect id="Rectangle-14" fill-rule="nonzero" x="0" y="0" width="30" height="30"></rect>
            <g id="icon/onderweg" transform="translate(0.000000, 5.000000)">
                <g>
                    <path d="M13,0 L1,0 C0.4495,0 0,0.45 0,1 L0,19 C0,19.5505 0.4495,20 1,20 L13,20 C13.5505,20 14,19.5505 14,19 L14,1 C14,0.45 13.5505,0 13,0 M12.76,1 C12.89008,1 13,1.11140541 13,1.24324324 L13,18.7567568 C13,18.8885946 12.89008,19 12.76,19 L1.24,19 C1.10992,19 1,18.8885946 1,18.7567568 L1,1.24324324 C1,1.11140541 1.10992,1 1.24,1 L12.76,1" id="Fill-2" fill="#FFFFFF"></path>
                    <path d="M0,16 L14,16 L14,4 L0,4 L0,16 Z M1,15 L13,15 L13,5 L1,5 L1,15 Z" id="Fill-5" fill="#FFFFFF"></path>
                    <polygon id="Stroke-7" stroke="#FFFFFF" stroke-linecap="round" stroke-linejoin="round" points="8 2 7.25 2 6.5 2 7.25 2"></polygon>
                </g>
            </g>
        </g>
        <path d="" id="Path-2" stroke="#979797" fill-rule="nonzero"></path>
    </g>
</svg>