<?xml version="1.0" encoding="UTF-8"?>
<svg width="22px" height="22px" viewBox="0 0 22 22" version="1.1" xmlns="http://www.w3.org/2000/svg" xmlns:xlink="http://www.w3.org/1999/xlink">
    <!-- Generator: Sketch 50.2 (55047) - http://www.bohemiancoding.com/sketch -->
    <title>black/sun</title>
    <desc>Created with Sketch.</desc>
    <defs></defs>
    <g id="Page-1" stroke="none" stroke-width="1" fill="none" fill-rule="evenodd">
        <g id="sprite-sheet" transform="translate(-484.000000, -4.000000)">
            <g id="black/sun" transform="translate(480.000000, 0.000000)">
                <rect id="Mask" transform="translate(15.000000, 15.000000) scale(-1, 1) translate(-15.000000, -15.000000) " x="0" y="0" width="30" height="30"></rect>
                <g id="Group" transform="translate(5.000000, 5.000000)" stroke="#2C3B45" stroke-linecap="round" stroke-linejoin="round" stroke-width="2">
                    <path d="M13.0386452,13.0385806 C11.2960645,14.7811613 8.47090323,14.7811613 6.72832258,13.0385806 C4.98574194,11.296 4.98574194,8.47083871 6.72832258,6.72825806 C8.47090323,4.98567742 11.2960645,4.98567742 13.0386452,6.72825806 C14.7812258,8.47083871 14.7812258,11.296 13.0386452,13.0385806 Z M16.8715484,2.89470968 L15.1283226,4.63793548 L16.8715484,2.89470968 Z M9.88316129,-0.000129032258 L9.88316129,2.46503226 L9.88316129,-0.000129032258 Z M2.89477419,2.89470968 L4.638,4.63793548 L2.89477419,2.89470968 Z M-6.4516129e-05,9.88309677 L2.46509677,9.88309677 L-6.4516129e-05,9.88309677 Z M2.89477419,16.8714839 L4.638,15.1282581 L2.89477419,16.8714839 Z M9.88316129,19.7669677 L9.88316129,17.3011613 L9.88316129,19.7669677 Z M16.8715484,16.8714839 L15.1283226,15.1282581 L16.8715484,16.8714839 Z M19.7670323,9.88309677 L17.3005806,9.88309677 L19.7670323,9.88309677 Z" id="Stroke-1"></path>
                    <path d="M6.72819355,6.72812903 C4.9856129,8.47070968 4.9856129,11.295871 6.72819355,13.0384516 C8.47077419,14.7810323 11.2959355,14.7810323 13.0385161,13.0384516 C14.7810968,11.295871 14.7810968,8.47070968 13.0385161,6.72812903 C11.2959355,4.98554839 8.47077419,4.98554839 6.72819355,6.72812903 Z" id="Stroke-3"></path>
                </g>
            </g>
        </g>
    </g>
</svg>