<?xml version="1.0" encoding="UTF-8"?>
<svg width="18px" height="16px" viewBox="0 0 18 16" version="1.1" xmlns="http://www.w3.org/2000/svg" xmlns:xlink="http://www.w3.org/1999/xlink">
    <!-- Generator: Sketch 50.2 (55047) - http://www.bohemiancoding.com/sketch -->
    <title>black/thumsbup</title>
    <desc>Created with Sketch.</desc>
    <defs></defs>
    <g id="Page-1" stroke="none" stroke-width="1" fill="none" fill-rule="evenodd">
        <g id="sprite-sheet" transform="translate(-216.000000, -7.000000)">
            <g id="black/thumsbup" transform="translate(210.000000, 0.000000)">
                <rect id="Rectangle-14" fill-rule="nonzero" x="0" y="0" width="30" height="30"></rect>
                <g id="icon/thumbsup" transform="translate(6.500000, 7.500000)" stroke="#2C3B45" stroke-linecap="round" stroke-linejoin="round">
                    <g>
                        <polygon id="Stroke-1" points="0 14.9895 3.995 14.9895 3.995 7 0 7"></polygon>
                        <path d="M4,6.991 C6.206,6.991 7.9945,5.2025 7.9945,2.996 L7.9945,0 L8.9935,0 C10.0965,0 10.9905,0.8945 10.9905,1.9975 L10.9905,5.992 L14.9715,5.992" id="Stroke-3"></path>
                        <path d="M14.986,6 C16.089,6 17.172,6.8115 16.9835,7.9975 C16.795,9.1835 15.985,13.4075 15.985,13.4075 C15.6425,14.989 14.4685,15.0005 14.207,14.989 L5.997,14.989 L4,13.99" id="Stroke-4"></path>
                    </g>
                </g>
            </g>
        </g>
    </g>
</svg>