<?xml version="1.0" encoding="UTF-8"?>
<svg width="12px" height="11px" viewBox="0 0 12 11" version="1.1" xmlns="http://www.w3.org/2000/svg" xmlns:xlink="http://www.w3.org/1999/xlink">
    <!-- Generator: Sketch 50.2 (55047) - http://www.bohemiancoding.com/sketch -->
    <title>black/twitter</title>
    <desc>Created with Sketch.</desc>
    <defs></defs>
    <g id="Page-1" stroke="none" stroke-width="1" fill="none" fill-rule="evenodd">
        <g id="sprite-sheet" transform="translate(-39.000000, -10.000000)">
            <g id="black/twitter" transform="translate(30.000000, 0.000000)">
                <rect id="Mask" x="0" y="0" width="30" height="30"></rect>
                <path d="M21,11.4072909 C20.558625,11.6120361 20.083875,11.7504941 19.585875,11.8128591 C20.094375,11.4939742 20.48475,10.9895635 20.6685,10.3882715 C20.193,10.6832301 19.66575,10.897389 19.105125,11.0130975 C18.655875,10.5126091 18.016125,10.2 17.308125,10.2 C15.948375,10.2 14.84625,11.3527706 14.84625,12.7750048 C14.84625,12.9766122 14.868,13.1731206 14.91,13.3617843 C12.863625,13.2543126 11.04975,12.2290175 9.8355,10.6710709 C9.623625,11.0515362 9.502125,11.4939742 9.502125,11.9658296 C9.502125,12.8589425 9.93675,13.6473294 10.597125,14.1089867 C10.193625,14.0956508 9.814125,13.9799423 9.48225,13.786964 C9.481875,13.7979465 9.481875,13.8085368 9.481875,13.8195193 C9.481875,15.0672102 10.3305,16.1078023 11.457,16.3443184 C11.250375,16.4031532 11.032875,16.4345318 10.80825,16.4345318 C10.649625,16.4345318 10.4955,16.4184503 10.345125,16.3886406 C10.65825,17.4115824 11.567625,18.1560392 12.645,18.1768275 C11.802375,18.8675485 10.74075,19.2790002 9.58725,19.2790002 C9.3885,19.2790002 9.19275,19.266841 9,19.2433071 C10.089375,19.9736435 11.3835,20.4 12.774,20.4 C17.3025,20.4 19.778625,16.4761084 19.778625,13.0734936 C19.778625,12.9617074 19.776375,12.8507056 19.7715,12.7400961 C20.252625,12.3772813 20.67,11.9238608 21,11.4072909" id="Fill-1" fill="#333D47"></path>
            </g>
        </g>
    </g>
</svg>