<svg viewBox="0 0 12 17" xmlns="http://www.w3.org/2000/svg"><g fill-rule="nonzero"><path d="M6.395 16.407h-1V6.731h1z"/><path d="M1 16.907a.5.5 0 0 1 0-1h9.79a.5.5 0 0 1 0 1H1zM5.152 6.309a.5.5 0 1 1 .498.867L2.14 9.194a.5.5 0 0 1-.737-.322 2.977 2.977 0 0 1 .318-2.005c.534-.964 1.6-1.614 3.263-1.83a.5.5 0 1 1 .129.992c-1.364.177-2.147.654-2.517 1.322a1.953 1.953 0 0 0-.202.543L5.152 6.31z"/><path d="M5.901 5.046a.5.5 0 1 1-1 0V1a.5.5 0 0 1 .647-.478c.27.083.644.27 1.017.6 1.038.92 1.353 2.368.558 4.33a.5.5 0 1 1-.927-.376c.638-1.575.422-2.571-.294-3.205v3.175z"/><path d="M6.528 6.165a.5.5 0 1 1 .499-.867l3.619 2.08a.5.5 0 0 1 .09.8c-.111.103-.297.24-.55.373-1.398.735-3.022.442-4.536-1.497a.5.5 0 1 1 .788-.615C7.512 7.814 8.496 8.122 9.39 7.81L6.528 6.165z"/><path d="M7.242 5.888c0 .742-.604 1.343-1.347 1.343s-1.346-.6-1.346-1.343c0-.742.603-1.343 1.346-1.343.744 0 1.347.601 1.347 1.343zm-1 0a.345.345 0 0 0-.347-.343.344.344 0 0 0-.346.343c0 .19.154.343.346.343a.345.345 0 0 0 .347-.343z"/></g></svg>
