<?xml version="1.0" encoding="UTF-8"?>
<svg width="12px" height="10px" viewBox="0 0 12 10" version="1.1" xmlns="http://www.w3.org/2000/svg" xmlns:xlink="http://www.w3.org/1999/xlink">
    <!-- Generator: Sketch 50.2 (55047) - http://www.bohemiancoding.com/sketch -->
    <title>black/youtube</title>
    <desc>Created with Sketch.</desc>
    <defs></defs>
    <g id="Page-1" stroke="none" stroke-width="1" fill="none" fill-rule="evenodd">
        <g id="sprite-sheet" transform="translate(-69.000000, -10.000000)">
            <g id="black/youtube" transform="translate(60.000000, 0.000000)">
                <rect id="Mask" x="0" y="0" width="30" height="30"></rect>
                <path d="M13.761,16.5490381 L13.760625,13.193442 L17.002875,14.8770249 L13.761,16.5490381 Z M20.88,12.6119696 C20.88,12.6119696 20.762625,11.7890256 20.403,11.4266317 C19.946625,10.9507798 19.435125,10.9485405 19.20075,10.9209224 C17.5215,10.8 15.002625,10.8 15.002625,10.8 L14.997375,10.8 C14.997375,10.8 12.4785,10.8 10.79925,10.9209224 C10.5645,10.9485405 10.053375,10.9507798 9.596625,11.4266317 C9.237,11.7890256 9.12,12.6119696 9.12,12.6119696 C9.12,12.6119696 9,13.5786022 9,14.5448616 L9,15.451033 C9,16.4176656 9.12,17.383925 9.12,17.383925 C9.12,17.383925 9.237,18.206869 9.596625,18.5692629 C10.053375,19.0451149 10.653,19.0301862 10.92,19.0798241 C11.88,19.1716355 15,19.2 15,19.2 C15,19.2 17.5215,19.1962678 19.20075,19.0753454 C19.435125,19.0473542 19.946625,19.0451149 20.403,18.5692629 C20.762625,18.206869 20.88,17.383925 20.88,17.383925 C20.88,17.383925 21,16.4176656 21,15.451033 L21,14.5448616 C21,13.5786022 20.88,12.6119696 20.88,12.6119696 L20.88,12.6119696 Z" id="Fill-25" fill="#333D47"></path>
            </g>
        </g>
    </g>
</svg>