<?xml version="1.0" encoding="UTF-8"?>
<svg width="140px" height="22px" viewBox="0 0 140 22" version="1.1" xmlns="http://www.w3.org/2000/svg" xmlns:xlink="http://www.w3.org/1999/xlink">
    <!-- Generator: Sketch 51.2 (57519) - http://www.bohemiancoding.com/sketch -->
    <title>vandebron-logo-blauw</title>
    <desc>Created with Sketch.</desc>
    <defs></defs>
    <g id="Designs" stroke="none" stroke-width="1" fill="none" fill-rule="evenodd">
        <g id="D-bronnen" transform="translate(-60.000000, -42.000000)" fill="#333D47">
            <g id="Navigation">
                <path d="M69.5689944,63.1086191 L65.319068,63.1086191 L60,48.2741914 L64.5969534,48.2741914 L67.457351,57.5227985 L70.3170383,48.2741914 L74.9150573,48.2741914 L69.5689944,63.1086191 M82.8029065,58.8505232 C81.0588916,58.8505232 79.646275,57.4339994 79.646275,55.6921157 C79.646275,53.9477455 81.0588916,52.5347737 82.8029065,52.5347737 C84.4542152,52.5347737 85.8110659,53.8035357 85.9474614,55.4193247 L85.9474614,55.9617098 C85.8110659,57.5810508 84.45386,58.8505232 82.8029065,58.8505232 M86.0025168,49.0407055 C85.0331855,48.5750429 83.9501913,48.313263 82.8029065,48.313263 C78.7277368,48.313263 75.4233435,51.6173011 75.4233435,55.6921157 C75.4233435,59.7669302 78.7277368,63.0706131 82.8029065,63.0706131 C83.9501913,63.0706131 85.0331855,62.8091884 86.0025168,62.3413946 C86.1392675,62.7662096 86.539574,63.0706131 87.0063022,63.0706131 L90.1799832,63.0706131 L90.1799832,48.313263 L87.0063022,48.313263 C86.539574,48.313263 86.1392675,48.6166009 86.0025168,49.0407055 M150.524676,52.607589 C148.875499,52.607589 147.5222,53.8756406 147.383673,55.4964024 L147.383673,56.0380771 C147.5222,57.6545765 148.875499,58.9233384 150.524676,58.9233384 C152.271888,58.9233384 153.689122,57.5103667 153.689122,55.7659965 C153.689122,54.0234024 152.272243,52.607589 150.524676,52.607589 M150.524676,63.1441387 C149.379878,63.1441387 148.295818,62.8827141 147.330038,62.4170515 C147.18867,62.8408009 146.796533,63.1441387 146.324122,63.1441387 L143.152927,63.1441387 L143.152927,42 L147.383673,42 L147.383673,49.090433 C148.337376,48.6389783 149.404031,48.3871439 150.524676,48.3871439 C154.606594,48.3871439 157.906015,51.6908268 157.906015,55.7659965 C157.906015,59.8404559 154.606594,63.1441387 150.524676,63.1441387 M176.931051,58.9233384 C175.281874,58.9233384 173.928575,57.6545765 173.790048,56.0380771 L173.790048,55.495692 C173.928575,53.8756406 175.281874,52.607589 176.931051,52.607589 C178.678263,52.607589 180.095497,54.0234024 180.095497,55.7667069 C180.095497,57.5100115 178.677908,58.9233384 176.931051,58.9233384 M176.942773,48.4120077 C171.889037,48.4120077 169.461979,52.3902088 169.461979,55.7681277 L169.461979,55.7926363 C169.461979,59.1947086 171.889037,63.1725545 176.942773,63.1725545 C181.996154,63.1725545 184.422856,59.1947086 184.422856,55.7926363 C184.422856,52.3902088 181.996154,48.4120077 176.942773,48.4120077 M116.494007,52.607589 C118.143185,52.607589 119.496484,53.8756406 119.63501,55.4964024 L119.63501,56.0380771 C119.496484,57.6545765 118.14283,58.9233384 116.494007,58.9233384 C114.746085,58.9233384 113.329206,57.5103667 113.329206,55.7659965 C113.329206,54.0234024 114.746085,52.607589 116.494007,52.607589 M116.494007,63.1441387 C112.412444,63.1441387 109.113024,59.8404559 109.113024,55.7659965 C109.113024,51.6908268 112.412444,48.3871439 116.494007,48.3871439 C117.615008,48.3871439 118.681308,48.6389783 119.63501,49.090433 L119.63501,42 L123.865756,42 L123.865756,63.1441387 L120.694561,63.1441387 C120.22215,63.1441387 119.829303,62.8408009 119.689,62.4170515 C118.72251,62.8827141 117.638451,63.1441387 116.494007,63.1441387 Z M167.842638,48.2880441 L167.842638,52.50991 C167.761653,52.5035164 167.681379,52.4974781 167.598618,52.4974781 C165.959741,52.4974781 164.461167,53.5538326 164.461167,55.0815328 L164.461167,63.1071983 L160.226869,63.1071983 L160.226869,48.2756122 L163.397708,48.2756122 C163.869765,48.2756122 164.263678,48.5793052 164.40327,49.0034099 C165.369404,48.5384576 166.454175,48.2756122 167.598618,48.2756122 C167.681379,48.2756122 167.760943,48.2855577 167.842638,48.2880441 Z M193.36777,52.4971229 C191.900809,52.4971229 191.019566,53.3844038 191.019566,55.0815328 L191.019566,63.1725545 L186.734831,63.1725545 L186.734831,48.2763226 L189.906736,48.2763226 C190.378792,48.2763226 190.771639,48.5796604 190.912297,49.0030547 C191.878076,48.5381024 192.962136,48.2763226 194.10729,48.2763226 C194.10729,48.2763226 195.34586,48.21736 196.62066,48.618732 C199.648355,49.5234176 200,52.5809493 200,54.2176949 L200,63.1725545 L195.71562,63.1725545 L195.71562,55.0815328 C195.71562,54.1988695 195.511382,52.4971229 193.36777,52.4971229 Z M100.035266,52.4971229 C98.5683043,52.4971229 97.6874169,53.3844038 97.6874169,55.0815328 L97.6874169,63.1725545 L93.4030364,63.1725545 L93.4030364,48.2763226 L96.5735206,48.2763226 C97.0466424,48.2763226 97.4394897,48.5796604 97.5794372,49.0030547 C98.5462821,48.5381024 99.6299867,48.2763226 100.774785,48.2763226 C100.774785,48.2763226 102.013711,48.21736 103.288866,48.618732 C106.316561,49.5234176 106.667495,52.5809493 106.667495,54.2176949 L106.667495,63.1725545 L102.38347,63.1725545 L102.38347,55.0815328 C102.38347,54.1988695 102.179232,52.4971229 100.035266,52.4971229 Z M136.274547,54.2532145 L130.82228,54.2532145 C130.705775,54.2496626 130.272436,54.1981591 130.49692,53.6163472 C131.017993,52.4509474 132.183393,51.6371921 133.543441,51.6371921 C134.938297,51.6371921 136.132113,52.4932157 136.631164,53.7086983 C136.777505,54.2038422 136.385013,54.250373 136.274547,54.2532145 M138.825213,50.4572293 C137.516669,49.0733836 135.679948,48.2425789 133.540599,48.2425789 C129.287476,48.2425789 126.217157,51.8414301 126.217157,55.7425536 C126.217157,59.8937353 129.614612,63.1405868 133.615901,63.1405868 C135.050184,63.1405868 136.43474,62.7132854 137.592326,61.8828359 C138.77513,61.076895 139.756538,59.8699372 140.436029,58.3088485 L136.158042,58.3088485 C135.654729,59.0384221 134.950019,59.6181028 133.615901,59.6181028 C131.980931,59.6181028 130.570801,58.6356293 130.395334,57.1509078 L140.788739,57.1509078 C141.115875,54.5846129 140.586988,52.345454 138.825213,50.4572293" id="vandebron-logo-blauw"></path>
            </g>
        </g>
    </g>
</svg>