<svg xmlns="http://www.w3.org/2000/svg" viewBox="0 0 326.05 326.05"><path d="M14.257 275.602C-17.052 220.391 4.253 133.798 69.023 69.01c73.553-73.543 175.256-91.076 227.182-39.16.061.068.112.145.195.214-10.392 30.235-43.486 94.567-142.686 129.348-90.872 31.878-125.926 82.56-139.457 116.19zM310.81 48.75c-7.871 18.361-21.57 42.356-45.173 65.957-23.725 23.735-57.445 47.046-105.208 63.8C63.49 212.5 36.405 268.149 28.848 295.116c.357.36.664.733 1.011 1.083 51.921 51.918 153.628 34.386 227.176-39.169 65.444-65.445 86.491-153.161 53.775-208.28z"/></svg>
