<svg viewBox="0 0 20 20" xmlns="http://www.w3.org/2000/svg"><path d="M20 10c0 5.523-4.477 10-10 10-5.522 0-10-4.477-10-10S4.478 0 10 0c.196 0 .381.005.56.016a1 1 0 1 1-.121 1.997A8 8 0 0 0 2 10a8 8 0 1 0 15.988-.44 1 1 0 1 1 1.996-.121c.01.179.016.364.016.56zm-7.358-7.554a1 1 0 0 1 .66-1.888c.354.124.7.268 1.038.43a1 1 0 0 1-.869 1.802 7.943 7.943 0 0 0-.829-.344zm2.704 1.602a1 1 0 1 1 1.337-1.487c.278.25.543.516.791.795a1 1 0 1 1-1.494 1.33c-.2-.225-.411-.437-.634-.638zm1.882 2.519a1 1 0 0 1 1.806-.86c.16.338.303.686.424 1.04a1 1 0 0 1-1.891.65 7.935 7.935 0 0 0-.339-.83zm-8.71 4.81a1 1 0 0 1-.945-1.329l1.78-5.096a1 1 0 1 1 1.888.66L9.926 9.377h1.557a1 1 0 0 1 .965 1.263l-1.187 4.341a1 1 0 0 1-1.93-.527l.842-3.077H8.517z" fill-rule="nonzero"/></svg>
