<svg xmlns="http://www.w3.org/2000/svg" viewBox="0 0 47 47"><path d="M22.792 1.242c-8.038 0-14.855 6.243-14.855 13.945 0 9.146 6.352 11.478 6.352 16.8 0 1.316 1.006 2.539 2.517 3.439-.316.263-.492.551-.492.853 0 .406.318.785.866 1.109-.513.318-.812.685-.812 1.077 0 .395.305.765.83 1.086-.536.322-.848.699-.848 1.098 0 .489.46.936 1.231 1.3-.299.271-.47.569-.47.884 0 .932 1.452 1.724 3.493 2.041A2.181 2.181 0 0 0 22.537 46c.848 0 1.574-.457 1.932-1.119 2.062-.312 3.53-1.108 3.53-2.043 0-.312-.165-.607-.457-.874.786-.366 1.256-.82 1.256-1.312 0-.396-.304-.767-.83-1.087.536-.323.849-.696.849-1.096 0-.406-.319-.785-.865-1.11.517-.317.813-.686.813-1.076 0-.313-.19-.609-.531-.879 1.488-.897 2.477-2.108 2.477-3.413 0-5.325 6.344-7.654 6.344-16.801-.003-7.482-6.543-13.6-14.263-13.948l.042 3.825c5.664.279 10.41 4.71 10.41 10.119 0 4.014-1.529 6.257-3.147 8.632-1.45 2.13-3.091 4.536-3.192 7.846-.497.556-2.278 1.458-4.405 1.458-2.128 0-3.909-.902-4.406-1.46-.101-3.31-1.744-5.717-3.197-7.847-1.62-2.374-3.15-4.616-3.15-8.629 0-5.589 5.162-10.119 11.087-10.119l-.042-3.825zm-3.696 6.809a8.255 8.255 0 0 0-4.872 5.568.702.702 0 0 0 .682.879c.314 0 .6-.21.683-.528a6.837 6.837 0 0 1 4.037-4.611.709.709 0 0 0 .389-.919.708.708 0 0 0-.919-.389z"/></svg>
