<svg xmlns="http://www.w3.org/2000/svg" version="1" viewBox="0 0 80 67"><path d="M23.7 19.2c-.9.7-2.5 3.3-3.5 5.8-1.1 2.5-2.9 5.4-4.1 6.4-1.9 1.7-2.1 3-2.1 12.3C14 53.9 14 54 16.4 54c1.5 0 2.6-.7 2.8-1.6.3-1.4 2.8-1.6 20.1-1.8 18.2-.1 19.8 0 20.3 1.7.4 1.2 1.3 1.7 2.7 1.5 2.1-.3 2.2-.9 2.5-10.2.3-9.4.1-10.1-2.2-12.5-1.3-1.4-3.2-4.5-4.1-6.9-1-2.3-2.6-4.7-3.6-5.2-2.7-1.5-29.2-1.3-31.2.2zm32 5.7c1.2 1.8 2 3.7 1.7 4.2-.4.7-34.3.1-35.2-.6-1-.8 1.4-5.8 3.2-6.5 1.1-.5 7.9-.8 15.1-.7l12.9.2 2.3 3.4zM25.8 37.6c1.8.8 3.1 1.8 2.7 2.4-1 1.6-10.1 1.2-11.9-.6-4.3-4.3.6-5.3 9.2-1.8zm37.8-1.1c1.1 2.8-1.6 4.5-7.2 4.5-8.8 0-7.6-1.7 3.6-5.4 2.5-.8 3-.7 3.6.9z"/><path d="M13.7 26.7c-1.4 1.3-.6 2.3 1.8 2.3 1.8 0 2.3-.4 1.9-1.5-.6-1.6-2.6-2-3.7-.8zM61.7 27.5c-.5 1.1 0 1.5 1.9 1.5 1.6 0 2.4-.5 2.2-1.3-.7-1.8-3.5-2-4.1-.2z"/></svg>
