<svg xmlns="http://www.w3.org/2000/svg" viewBox="0 0 512 512"><path d="M305.055 62.427c-51.706-13.101-105.42-5.286-151.245 22.01-45.826 27.295-78.281 70.803-91.383 122.509S57.14 312.366 84.436 358.19c27.296 45.828 70.806 78.283 122.513 91.386 51.704 13.102 105.417 5.286 151.243-22.012 45.825-27.295 78.278-70.803 91.384-122.507 13.104-51.707 5.289-105.421-22.009-151.248-27.298-45.824-70.806-78.278-122.512-91.382zM150.983 318.554c-34.493-57.907-15.442-133.079 42.464-167.57 57.906-34.491 133.079-15.442 167.571 42.465 34.49 57.906 15.44 133.079-42.465 167.571-57.907 34.492-133.079 15.442-167.57-42.466zm280.995-17.955c-11.912 47.005-41.416 86.557-83.076 111.371l-21.058-35.352c66.509-39.614 88.387-125.951 48.771-192.458-39.613-66.507-125.95-88.388-192.457-48.773a141.74 141.74 0 0 0-11.358 7.536l-21.141-35.491a185.09 185.09 0 0 1 11.442-7.397c41.66-24.813 90.489-31.921 137.495-20.008 47.006 11.911 86.559 41.416 111.373 83.076 24.814 41.66 31.921 90.491 20.009 137.496z"/><path d="M114.798 397.205c37.718 37.716 87.865 58.488 141.204 58.488 53.339 0 103.487-20.771 141.204-58.488 37.717-37.718 58.489-87.866 58.489-141.205 0-53.341-20.772-103.489-58.49-141.206-37.717-37.716-87.863-58.487-141.204-58.487-53.339 0-103.486 20.771-141.204 58.487C77.08 152.512 56.307 202.66 56.307 256c.002 53.339 20.775 103.487 58.491 141.205zM378.238 256c0 67.401-54.835 122.236-122.236 122.236-67.401 0-122.236-54.835-122.236-122.236 0-67.4 54.835-122.236 122.236-122.236 67.401 0 122.236 54.834 122.236 122.236zM127.635 127.631c34.289-34.288 79.877-53.171 128.367-53.171v41.147c-77.412 0-140.39 62.979-140.39 140.392 0 77.412 62.979 140.391 140.39 140.391 4.593 0 9.134-.229 13.615-.662v41.311c-4.508.332-9.049.5-13.615.5-48.49 0-94.079-18.883-128.367-53.171C93.346 350.079 74.463 304.49 74.463 256c0-48.493 18.883-94.082 53.172-128.369z"/><path d="M256.001 62.5H292.5v56h-36.499z"/></svg>
