<svg xmlns="http://www.w3.org/2000/svg" viewBox="0 0 300 512"><path d="M295 208h-2.689l6.77-9.524c1.1-1.598 1.218-5.035.331-6.746-.908-1.726-2.66-5.73-4.584-5.73h-98.234l30.435-57.661L299.175 2.417c.92-1.598.909.025-.031-1.584-.898-1.586-2.608-.833-4.466-.833H79.533c-2.361 0-4.423.264-5.021 2.553L.167 287.773a5.241 5.241 0 0 0 .919 4.503C2.069 293.552 3.564 295 5.167 295h117.541L75.494 506.455c-.534 2.435.726 3.842 2.981 4.85.684.277 1.368.591 2.083.591.379 0 .807-.146 1.171-.286L295 208z"/></svg>
