
<svg viewBox="0 0 322 514" version="1.1" xmlns="http://www.w3.org/2000/svg" xmlns:xlink="http://www.w3.org/1999/xlink">
  <g stroke="none" stroke-width="1" fill="none" fill-rule="evenodd">
    <path d="M320.01774,199.625293 C321.192134,198.027529 321.318001,194.591037 320.370805,192.880289 C319.403342,191.154544 317.534551,187.151136 315.482294,187.151136 L210.699833,187.151136 L243.163686,129.498652 L320.119073,3.59525137 C321.100401,1.9974874 321.087602,3.62024768 320.086006,2.01148533 C319.127077,0.425719586 317.304152,1.17860837 315.322294,1.17860837 L85.8342629,1.17860837 C83.316941,1.17860837 81.1164176,1.44256937 80.4785538,3.73123128 L1.17864488,288.909104 C0.745580166,290.453875 1.11037852,292.136627 2.15890712,293.410439 C3.20743573,294.68725 4.8020952,296.135036 6.51195415,296.135036 L131.888455,296.135036 L81.5270824,507.558804 C80.9574849,509.993444 82.3014789,511.400236 84.7057347,512.408087 C85.4363981,512.685047 86.1649281,513 86.9275913,513 C87.3318562,513 87.7883875,512.854022 88.1766524,512.714042 L320.01774,199.625293 Z" id="Icon-elektriciteit-Copy-14" stroke="#D2D2D2" stroke-width="1.5"></path>
  </g>
</svg>
