<svg xmlns="http://www.w3.org/2000/svg" viewBox="0 0 395.889 395.887"><path d="M376.219 395.887H32.828c-12.806 0-23.225-10.42-23.225-23.225V10.593c0-14.125 27.869-14.125 27.869 0v357.424h338.744c13.426.001 13.426 27.87.003 27.87z"/><path d="M360.919 350.659c3.832 0 6.969-3.135 6.969-6.967V95.808c0-3.832-3.137-6.968-6.969-6.968h-88.13c-3.832 0-6.968 3.136-6.968 6.968v247.884c0 3.832 3.136 6.967 6.968 6.967h88.13zM241.967 350.659c3.832 0 6.97-3.135 6.97-6.967V40.069c0-3.832-3.138-6.967-6.97-6.967h-71.994c-3.832 0-6.969 3.135-6.969 6.967v303.625c0 3.832 3.137 6.967 6.969 6.967l71.994-.002zM139.151 350.659c3.832 0 6.967-3.135 6.967-6.967V164.321c0-3.832-3.135-6.968-6.967-6.968H60.766c-3.832 0-6.969 3.136-6.969 6.968v179.373c0 3.832 3.137 6.967 6.969 6.967l78.385-.002z"/></svg>
