<svg xmlns="http://www.w3.org/2000/svg" viewBox="0 0 352 512"><path d="M0 320.502C0 426.298 78.844 512.063 176.063 512c97.187-.031 175.968-85.827 175.937-191.592 0-2.875-.094-5.752-.219-8.627-.031-1.094-.094-2.188-.156-3.313-.094-1.813-.25-3.594-.406-5.392a61.396 61.396 0 0 0-.281-3.393c-11.125-114.172-109.219-235.097-153.5-284.464C197.156 14.893 185.969 0 175.625 0c-5.438 0-11.125 4.172-15.344 8.157h-.094l-5.906 6.517C108.563 65.713 5.531 193.107.219 310.469v.313c-.156 3-.219 6.064-.219 9.064v.656z"/></svg>
