<svg xmlns="http://www.w3.org/2000/svg" viewBox="0 0 1190.549 841.891"><path d="M1015.311 314.014L980.703 96.223c-4.962-31.247-29.463-55.749-60.711-60.709L702.203.905a73.086 73.086 0 0 0-63.145 20.499l-443.32 443.32c-28.543 28.546-28.543 74.814 0 103.36l252.4 252.398c28.544 28.543 74.811 28.543 103.358-.005L994.814 377.16a73.089 73.089 0 0 0 20.497-63.146zm-482.79 449.903c-11.153 11.153-29.244 11.153-40.399 0L252.303 524.098c-11.153-11.155-11.153-29.245 0-40.4 11.149-11.149 29.244-11.153 40.399 0l239.818 239.82c11.154 11.153 11.149 29.246.001 40.399zm322.62-525.001c-21.496 21.496-56.348 21.494-77.837 0-21.496-21.497-21.501-56.341 0-77.837 21.491-21.497 56.339-21.497 77.837 0 21.492 21.494 21.492 56.343 0 77.837z"/></svg>
