<svg xmlns="http://www.w3.org/2000/svg" viewBox="0 0 512 512"><path d="M412.324 190.138l-172.541-.194s10.003-40.938 11.8-60.12c1.214-13.112 1.506-26.175-1.505-39.093-4.468-19.425-9.469-31.565-17.434-46.62-4.273-7.964-12.529-12.918-21.513-12.918H177.72c-13.452 0-24.33 10.927-24.281 24.378.097 22.484.097 52.496-.388 53.516-13.112 27.583-28.312 54.05-45.455 79.302-7.818 11.558-16.026 22.776-25.544 33.022-4.176 4.468-6.458 10.393-6.458 16.463v212.314c0 6.264 2.428 12.334 6.798 16.851 6.507 6.702 18.163 14.666 37.296 14.666 60.363-.243 158.168-.777 227.708-.291 8.693.048 16.754-4.517 21.125-12.044l61.334-104.991c4.177-7.284 6.362-15.54 6.41-23.941l.34-125.922c0-13.452-10.876-24.329-24.281-24.378z"/></svg>
