<svg xmlns="http://www.w3.org/2000/svg" viewBox="0 0 100 100"><path d="M96.556 25.732L71.655 6.58c-1.521-1.17-3.683-.156-3.836 1.705h-.05l-1.159 9.334H26.803c-3.467 0-5.583 3.812-3.747 6.753l23.201 42.232H35.512c-3.338-5.036-9.055-8.358-15.549-8.358-10.294 0-18.643 8.347-18.643 18.643 0 10.295 8.348 18.644 18.643 18.644 6.332 0 11.922-3.16 15.292-7.985h37.679c3.49 0 5.619-3.838 3.772-6.801l-23.35-43.081H66.64l1.13 9.102h.022v.02c0 1.993 2.285 3.117 3.863 1.903l24.9-19.152a2.4 2.4 0 0 0 .001-3.807z"/></svg>
