<svg xmlns="http://www.w3.org/2000/svg" viewBox="0 0 47 47"><path d="M17.567 15.938l-2.859-2.702a4.19 4.19 0 0 0 .539-2.029c0-2.342-1.897-4.239-4.24-4.239a4.24 4.24 0 1 0 0 8.48 4.21 4.21 0 0 0 2.242-.654l2.855 2.699a9.71 9.71 0 0 1 1.463-1.555zM29.66 15.6l3.799-6.393c.374.107.762.184 1.169.184a4.24 4.24 0 1 0 0-8.48 4.237 4.237 0 0 0-3.012 7.22l-3.787 6.375A9.488 9.488 0 0 1 29.66 15.6zm13.102 5.352a4.236 4.236 0 0 0-3.968 2.775l-5.278-.521.006.117a9.72 9.72 0 0 1-.213 2.009l5.276.521A4.232 4.232 0 0 0 47 25.191a4.238 4.238 0 0 0-4.238-4.239zM28.197 37.624l-1.18-5.156a9.662 9.662 0 0 1-2.082.481l1.182 5.157c-1.355.709-2.29 2.11-2.29 3.746a4.236 4.236 0 0 0 4.243 4.237 4.236 4.236 0 0 0 4.238-4.237 4.229 4.229 0 0 0-4.111-4.228zM14.357 25.37l-6.57 2.201A4.236 4.236 0 0 0 0 29.884a4.242 4.242 0 0 0 8.481 0l-.029-.284 6.591-2.207a9.682 9.682 0 0 1-.686-2.023z"/><circle cx="23.83" cy="23.323" r="7.271"/></svg>
