<svg xmlns="http://www.w3.org/2000/svg" viewBox="0 0 92.833 92.833"><path d="M89.834 36.75H3c-1.654 0-3 1.346-3 3v13.334c0 1.653 1.346 3 3 3h86.833c1.653 0 3-1.347 3-3V39.75a3.002 3.002 0 0 0-2.999-3zm-1.417 15.417h-57.5v-11.5h57.5v11.5zM89.834 1.75H3c-1.654 0-3 1.346-3 3v13.334c0 1.654 1.346 3 3 3h86.833c1.653 0 3-1.346 3-3V4.75a3.002 3.002 0 0 0-2.999-3zm-1.417 15.417h-32.5v-11.5h32.5v11.5zm1.417 54.583H3c-1.654 0-3 1.346-3 3v13.334c0 1.653 1.346 3 3 3h86.833c1.653 0 3-1.347 3-3V74.75a3 3 0 0 0-2.999-3zm-1.417 15.417h-44v-11.5h44v11.5z"/></svg>
