<?xml version="1.0" encoding="utf-8"?>
<!-- Generator: Adobe Illustrator 21.0.2, SVG Export Plug-In . SVG Version: 6.00 Build 0)  -->
<svg version="1.1" xmlns="http://www.w3.org/2000/svg" xmlns:xlink="http://www.w3.org/1999/xlink" x="0px" y="0px"
	 viewBox="0 0 96 96" style="enable-background:new 0 0 96 96;" xml:space="preserve">
<style type="text/css">
	.st0{fill:#343E48;}
	.st1{fill:#FFFFFF;}
	.st2{fill:#2C3B46;}
</style>
<g id="Guidelines">
</g>
<g id="Your_Icons">
	<path class="st0" d="M40.4,87.8l45.1-45.3c1.5-1.5,2.2-3.6,1.8-5.7l-3.2-19.8c-0.5-2.8-2.7-5.1-5.5-5.5L58.8,8.3
		c-2.1-0.3-4.2,0.4-5.7,1.9L8,55.5L40.4,87.8z M72.8,29.9c-1.9,2-5.1,2-7.1,0c-2-1.9-2-5.1,0-7.1c1.9-2,5.1-2,7.1,0
		C74.7,24.8,74.7,27.9,72.8,29.9z"/>
	<g>
		<path class="st1" d="M41.1,77.1c-0.3,0-0.5-0.1-0.7-0.3L19,55.6c-0.4-0.4-0.4-1,0-1.4c0.4-0.4,1-0.4,1.4,0l21.3,21.2
			c0.4,0.4,0.4,1,0,1.4C41.6,77,41.3,77.1,41.1,77.1z"/>
	</g>
	<g>
		<path class="st1" d="M42.9,51.6c0.2,0.2,0.4,0.4,0.6,0.6c0.2,0.2,0.5,0.4,0.7,0.6l5.6-5.7l1.4,1.3L46,53.8c2.4,1,5.1,0.5,7-1.5
			c1.5-1.5,2-3.6,1.5-5.4l3.4-1.2c0.7,2.9,0.2,6.3-2.5,9c-3.5,3.6-8.3,4.3-12.4,2L41.8,58l-1.4-1.3l1-1c-0.3-0.2-0.5-0.4-0.7-0.6
			c-0.2-0.2-0.4-0.4-0.6-0.6l-1,1l-1.3-1.3l1.2-1.3c-2.4-3.9-1.6-8.8,1.9-12.4c2.7-2.8,6-3.3,8.9-2.6l-1.1,3.4
			c-1.9-0.5-4,0.1-5.4,1.5c-2,2-2.5,4.7-1.5,7.1l5.3-5.3l1.3,1.3L42.9,51.6z"/>
	</g>
</g>
</svg>
