<?xml version="1.0" encoding="utf-8"?>
<!-- Generator: Adobe Illustrator 21.0.2, SVG Export Plug-In . SVG Version: 6.00 Build 0)  -->
<svg version="1.1" xmlns="http://www.w3.org/2000/svg" xmlns:xlink="http://www.w3.org/1999/xlink" x="0px" y="0px"
	 viewBox="0 0 96 96" style="enable-background:new 0 0 96 96;" xml:space="preserve">
<style type="text/css">
	.st0{fill:#343E48;}
	.st1{fill:#FFFFFF;}
	.st2{fill:#2C3B46;}
</style>
<g id="Guidelines">
</g>
<g id="Your_Icons">
	<g>
		<rect x="41.8" y="51.6" class="st0" width="12.5" height="36.4"/>
		<path class="st0" d="M54.2,9v6.2H41.8V9c0-0.6,0.3-1,0.8-1h10.9C53.9,8,54.2,8.5,54.2,9z"/>
		<path class="st0" d="M88,18.4v30.1c0,0.6-0.4,1-1,1H9c-0.6,0-1-0.5-1-1V18.4c0-0.6,0.4-1,1-1h78C87.6,17.4,88,17.8,88,18.4z"/>
		<g>
			<path class="st1" d="M17.9,32.9c0-4.5,3.3-7.8,7.8-7.8c4.5,0,7.8,3.3,7.8,7.8s-3.3,7.8-7.8,7.8C21.2,40.7,17.9,37.5,17.9,32.9z
				 M30.2,32.9c0-2.8-1.8-4.9-4.5-4.9c-2.8,0-4.5,2.1-4.5,4.9c0,2.8,1.8,4.9,4.5,4.9C28.4,37.9,30.2,35.7,30.2,32.9z"/>
			<path class="st1" d="M36.1,40.2V25.7h7.3c3.4,0,5.2,2.1,5.2,4.7c0,2.5-1.9,4.7-5.2,4.7h-4v5.2H36.1z M45.1,30.4c0-1.2-1-2-2.3-2
				h-3.5v3.9h3.5C44.1,32.3,45.1,31.6,45.1,30.4z"/>
			<path class="st1" d="M50.6,40.2V25.7H61v2.7h-7.3v3.1h7.1v2.7h-7.1v3.3H61v2.7H50.6z"/>
			<path class="st1" d="M75,40.2l-7.2-9.5v9.5h-3.2V25.7h3.3l7,9.1v-9.1h3.2v14.5H75z"/>
		</g>
	</g>
</g>
</svg>
