<svg xmlns="http://www.w3.org/2000/svg" viewBox="0 0 671 512"><path d="M544.084 384.223s.769-36.204.217-42.304c-.962.324-1.13.078-.217-.853.088-.088.159.221.217.853 5.944-2.005 42.316-25.883 42.316-45.411 0-22.72-.936-87.966-.936-87.966s6.619-81.53-69.488-81.53c-51.121 0-25.391.937-25.391.937-67.859 0-70.451 83.248-70.451 83.248v83.966c0 28.345 41.598 45.904 41.598 45.904v42.22l42.658 42.747L502.89 511H671v-60.496l-126.916-66.281zm-251.04-128.535c-.988.248-1.151-.068-.173-1.057.067-.07.124.312.173 1.057 5.883-1.477 41.179-23.052 41.179-43.118 0-23.497-1.002-137.806-1.002-137.806S326.506 0 273.635 0c-52.901 0-90.128.985-90.128.985-53.839 0-57.837 73.779-57.837 73.779V212.57c0 29.314 43.129 43.439 43.129 43.439v83.966L0 450.377.938 512h460.48v-86.341l-168.547-86.093s.811-74.135.173-83.878z" clip-rule="evenodd"/></svg>
