<svg xmlns="http://www.w3.org/2000/svg" viewBox="0 0 23 35"><g fill-rule="evenodd"><path d="M9.438 8.188C12.5 8.188 12.5 11.5 12.5 11.5v10.125h-2.25v12.813H2.375V21.624H0V11.5s.063-3.313 3.125-3.313h6.313M6.25 0a3.375 3.375 0 1 1 0 6.75 3.375 3.375 0 0 1 0-6.75"/><path d="M14.375 21.625V11.5c0-1.188-.438-2.313-1.125-3.313h5.938c3.062 0 3.125 3.313 3.125 3.313v10.125H20v12.813h-7.875V23.5h.375a1.842 1.842 0 0 0 1.875-1.875M16.063 0a3.375 3.375 0 1 1-.001 6.75 3.375 3.375 0 0 1 0-6.75"/></g></svg>
