<svg xmlns="http://www.w3.org/2000/svg" xmlns:xlink="http://www.w3.org/1999/xlink" viewBox="0 0 52 35"><defs><path id="a" d="M.547.514h6.684v6.683H.547z"/><path id="c" d="M.409.594H12.69v25.81H.409z"/><path id="e" d="M.137.514h6.685v6.683H.137z"/><path id="g" d="M.205.594h12.28v25.81H.205z"/><path id="i" d="M.453.594h7.73v25.81H.453z"/><path id="k" d="M.342.514h6.684v6.684H.342z"/><path id="m" d="M0 .594h10.026v25.81H0z"/><path id="o" d="M.342.514h6.684v6.684H.342z"/><path id="q" d="M.205.594H10.23v25.81H.205z"/><path id="s" d="M.134.514h6.684v6.684H.134z"/></defs><g fill-rule="evenodd"><g transform="translate(31.93 .1)"><mask id="b" fill="#fff"><use xlink:href="#a"/></mask><path d="M3.889.514a3.342 3.342 0 1 1 0 6.684 3.342 3.342 0 0 1 0-6.684" mask="url(#b)"/></g><g transform="translate(9.21 8.083)"><mask id="d" fill="#fff"><use xlink:href="#c"/></mask><path d="M9.67.594c2.98 0 2.98 3.262 3.02 3.262V13.8h-2.255v12.603h-7.73V13.8H.409V3.856S.45.594 3.47.594h6.202" mask="url(#d)"/></g><g transform="translate(12.28 .1)"><mask id="f" fill="#fff"><use xlink:href="#e"/></mask><path d="M3.48.514a3.342 3.342 0 1 1 0 6.684 3.342 3.342 0 0 1 0-6.684" mask="url(#f)"/></g><g transform="translate(29.474 8.083)"><mask id="h" fill="#fff"><use xlink:href="#g"/></mask><path d="M9.466.594c2.98 0 2.98 3.262 3.02 3.262V13.8H10.23v12.603H2.5V13.8H.205V3.856S.245.594 3.265.594h6.201" mask="url(#h)"/></g><g transform="translate(21.491 8.083)"><mask id="j" fill="#fff"><use xlink:href="#i"/></mask><path d="M6.345 13.8V3.833c.012-.999.339-2.234 1.082-3.237L7.419.594H1.218c-.021 0-.039.004-.06.004.565.773.937 1.764 1.065 2.935.02.104.028.212.028.322v9.946a1.84 1.84 0 0 1-1.798 1.837v10.766h7.73V15.642a1.841 1.841 0 0 1-1.838-1.841" mask="url(#j)"/></g><g transform="translate(22.105 .1)"><mask id="l" fill="#fff"><use xlink:href="#k"/></mask><path d="M3.684 7.198a3.342 3.342 0 1 0 0-6.685 3.342 3.342 0 0 0 0 6.685" mask="url(#l)"/></g><g transform="translate(0 8.083)"><mask id="n" fill="#fff"><use xlink:href="#m"/></mask><path d="M7.778 13.8V3.833c.012-.999.339-2.235 1.082-3.238h-5.8C.04.594 0 3.855 0 3.855v9.946h2.295v12.603h7.731V15.643H9.62A1.842 1.842 0 0 1 7.778 13.8" mask="url(#n)"/></g><g transform="translate(2.456 .1)"><mask id="p" fill="#fff"><use xlink:href="#o"/></mask><path d="M3.684 7.198a3.342 3.342 0 1 0 0-6.685 3.342 3.342 0 0 0 0 6.685" mask="url(#p)"/></g><g transform="translate(41.754 8.083)"><mask id="r" fill="#fff"><use xlink:href="#q"/></mask><path d="M2.453 13.8V3.833c-.013-1-.34-2.236-1.083-3.239h5.801c3.02 0 3.06 3.261 3.06 3.261v9.946H7.936v12.603H.205V15.643H.61A1.842 1.842 0 0 0 2.453 13.8" mask="url(#r)"/></g><g transform="translate(42.368 .1)"><mask id="t" fill="#fff"><use xlink:href="#s"/></mask><path d="M3.476 7.198a3.342 3.342 0 1 1 0-6.685 3.342 3.342 0 0 1 0 6.685" mask="url(#t)"/></g></g></svg>
