<svg xmlns="http://www.w3.org/2000/svg" viewBox="0 0 43 35"><g fill-rule="evenodd"><path d="M36.469 0a3.4 3.4 0 1 1 0 6.8 3.4 3.4 0 0 1 0-6.8M19.256 8.206c3.032 0 3.032 3.319 3.075 3.319V21.65h-2.319v12.825h-7.868V21.65H9.806V11.525s.044-3.319 3.125-3.319h6.325M16.056 0a3.4 3.4 0 1 1 0 6.8 3.4 3.4 0 0 1 0-6.8M39.65 8.206c3.031 0 3.031 3.319 3.075 3.319V21.65h-2.3v12.825h-7.869V21.65H30.22V11.525s.043-3.319 3.125-3.319h6.312M28.344 21.65V11.494a5.832 5.832 0 0 1 1.1-3.294h-6.375a6.16 6.16 0 0 1 1.081 2.988c.01.11.01.22 0 .33v10.126a1.875 1.875 0 0 1-1.831 1.875v10.956h7.9v-10.95a1.875 1.875 0 0 1-1.875-1.875M26.262 0a3.4 3.4 0 1 1 0 6.8 3.4 3.4 0 0 1 0-6.8"/><path d="M7.931 21.65V11.494a5.832 5.832 0 0 1 1.1-3.294H3.125C.05 8.2 0 11.519 0 11.519v10.125h2.337v12.831h7.882v-10.95h-.413a1.875 1.875 0 0 1-1.875-1.875M6.263 0a3.4 3.4 0 1 1-.001 6.8 3.4 3.4 0 0 1 0-6.8"/></g></svg>
