<svg xmlns="http://www.w3.org/2000/svg" viewBox="0 0 96 96"><path d="M27.1 10.7c-.9-1.3-1.8-2.4-3.5-2.6h-1.4c-2.2.5-4.3 1.1-6.2 2.2-1.2.7-2.4 1.4-3.6 2.2-2.2 1.4-3.3 3.5-3.6 6.1-.1 1.7-.4 3.4-.6 5.1v3.9c.2 1.3.3 2.6.4 3.9.6 5 2 9.8 4.1 14.4 6.1 13.8 16.1 24.6 29 33.1 7.3 4.1 14.8 7.3 23 8.3 1.4.1 2.7.3 4.1.4h3.6c1.4-.2 2.7-.3 4.1-.5 1.1-.2 2.3-.3 3.4-.6 1.3-.4 2.3-1.3 3-2.4 2.3-3 4.1-6.4 4.8-10.2 0-.1.1-.2.1-.3v-1.4c-.3-1.6-1.3-2.6-2.6-3.4-3.1-2-6.2-4.1-9.3-6.1-3-2-6-4-9.2-5.9l-3.9 5.3c-.9 1.2-1.7 2.5-2.6 3.7-1.5 1.9-3.5 2.7-5.9 2-1.1-.3-2.3-.7-3.3-1.2-7.9-4-14.4-9.8-19.1-17.3-1.4-2.3-2.8-4.5-3.6-7.1-.9-3-.1-5.4 2.3-7.4.8-.6 1.7-1.2 2.5-1.8.2-.1.3-.2.5-.3l5.5-3.5-12-18.6z"/></svg>
