<svg xmlns="http://www.w3.org/2000/svg" viewBox="0 0 40 36"><path d="M10.2 28.1c-.3.3-.6 1-.6 1.5V36h3.7V25.9c0-.5-.3-.6-.6-.3l-2.5 2.5zm16.4-6c-.3.3-.6 1-.6 1.5V36h3.7V19.9c0-.5-.3-.6-.6-.3l-2.5 2.5zm5.4-5.4c-.3.3-.6 1-.6 1.5V36h3.5V14.8c0-.5-.3-.6-.6-.3L32 16.7zM21.2 27.4l-.4.4c-.2.2-.4.8-.4 1.3v7h3.7V25.3c0-.5-.3-.6-.6-.3l-2.3 2.4zm-5.5-1.9c-.3-.3-.6-.2-.6.3V36h3.7v-6.5c0-.5-.3-1.1-.6-1.5l-.6-.6-1.9-1.9zM5.5 32.8L4.3 34c-.3.3-.6.9-.6 1.3v.7h4.2v-4.6c0-.5-.3-.6-.6-.3l-1.8 1.7zm33.9-18.2c.3.3.6.2.6-.3V1.7c0-.9-.9-1.7-1.8-1.7H25.5c-.5 0-.6.3-.3.6l4.5 4.5-1.8 1.8-8.5 8.5-4.5-4.5c-.3-.3-.9-.3-1.3 0L1 23.4c-1.4 1.4-1.4 3.6 0 5l.1.1c1.4 1.4 3.7 1.4 5.1 0l8.1-8 4.5 4.5c.3.3.9.3 1.3 0L35 10.2l4.4 4.4z"/></svg>
