<svg xmlns="http://www.w3.org/2000/svg" viewBox="0 0 100 100"><path d="M50 0C22.386 0 0 22.386 0 50s22.386 50 50 50 50-22.386 50-50S77.614 0 50 0zm.157 85.982c-3.975 0-7.322-3.451-7.322-7.428 0-3.869 3.347-7.217 7.322-7.217 3.974 0 7.322 3.348 7.322 7.217 0 3.977-3.348 7.428-7.322 7.428zm3.241-29.498c0 1.674.838 3.662 2.303 4.707l-9.31 3.139c-2.51-2.406-3.661-5.543-3.661-8.996 0-12.76 16.84-14.016 16.84-22.907 0-4.079-3.242-7.531-9.937-7.531-6.485 0-11.087 2.824-14.539 7.322l-7.113-7.845c5.334-6.59 13.389-10.355 22.803-10.355 13.18 0 21.233 7.008 21.233 16.422.001 15.481-18.619 16.736-18.619 26.044z"/></svg>
