<svg viewBox="0 0 20 20" xmlns="http://www.w3.org/2000/svg"><path d="M3.062 9.707l-2.77-2.77c-.942-.943.472-2.356 1.415-1.414l1.074 1.074A7.001 7.001 0 0 1 16.77 7a1 1 0 0 1-2 0 5 5 0 0 0-9.982-.433l1.044-1.044a1 1 0 0 1 1.414 1.415l-2.72 2.72a1.006 1.006 0 0 1-.547.32.976.976 0 0 1-.917-.27zM2.77 7c0-.135.003-.27.01-.403l1.697 1.696L2.769 9V7zm12.293 4.706h1.414l-2.77 2.77c-.943.943-2.357-.47-1.414-1.414l2.77-2.77a.99.99 0 0 1 .89-.276.994.994 0 0 1 .565.317l2.728 2.73a1 1 0 1 1-1.414 1.413l-1.074-1.074a6.992 6.992 0 0 1-4.335 6.077A6.98 6.98 0 0 1 9.77 20a6.97 6.97 0 0 1-3.603-.998A7.034 7.034 0 0 1 4.025 17a6.97 6.97 0 0 1-1.256-4 1 1 0 0 1 2 0 4.97 4.97 0 0 0 .896 2.856c.404.58.927 1.069 1.532 1.432A4.97 4.97 0 0 0 9.77 18a4.98 4.98 0 0 0 2.879-.912A4.992 4.992 0 0 0 14.769 13v-2l1.708.707-2.77 2.77-1.414-1.415 2.77-2.77a1.01 1.01 0 0 1 .89-.276 1.032 1.032 0 0 1 .524.277l.041.04a.98.98 0 0 1 .252.667v2c0 .135-.004.269-.012.402l-1.695-1.696z" fill-rule="nonzero"/></svg>
