<svg xmlns="http://www.w3.org/2000/svg" viewBox="0 0 395.889 395.887"><path d="M8.952 222.959c8.216-36.342 19.931-68.646 29.715-103.022 4.574-16.07 8.877-32.222 12.979-48.419 2.825-11.159 9.426-16.406 21.099-16.387 83.727.14 167.455.187 251.181-.038 13.594-.036 18.828 7.459 21.967 19.207 12.554 47.004 25.5 93.904 38.393 140.816.749 2.729 1.694 6.766 2.132 9.717 1.443 9.76 3.407 18.286-2.416 26.25-4.203 5.747-9.792 7.643-16.584 7.666-112.748.389-225.501.438-338.248-.126-6.754-.033-13.841-4.353-17.836-10.623-4.77-7.489-4.34-16.38-2.382-25.041zm344.095-7.873c-.771-4.689-.991-7.572-1.732-10.312-9.747-36.054-19.916-71.999-29.146-108.182-2.575-10.099-7.317-12.782-17.356-12.722-70.912.431-141.829.423-212.741.007-9.986-.06-14.818 2.515-17.412 12.676-9.237 36.179-19.463 72.106-29.179 108.167-.833 3.087-.652 6.445-1.006 10.365l308.572.001zM126.534 316.462c-2.718-24.767-2.563-24.872 41.665-28.953l2.079-12.818h55.597l2.734 12.685c44.667 3.235 44.667 3.235 41.967 29.088-47.832-.002-95.413-.002-144.042-.002z"/><path d="M321.978 200.51h-61.124c-1.88-13.558-3.734-26.947-5.901-42.585 17.769 0 34.672-.239 51.55.282 2.307.069 5.782 3.565 6.516 6.11 3.328 11.578 5.871 23.381 8.959 36.193zM141.669 157.848c-2.108 15.327-3.897 28.343-5.792 42.113H74.923c3.104-12.824 5.712-24.988 9.229-36.886.676-2.283 4.885-4.922 7.532-4.995 16.073-.464 32.167-.232 49.985-.232zM168.004 200.327l1.958-41.736h56.935v41.736h-58.893zM225.166 133.549h-53.351l2.033-33.39h48.917c.772 10.717 1.532 21.291 2.401 33.39zM252.115 133.115c-1.274-11.062-2.488-21.573-3.902-33.831 15.282 0 28.906-.369 42.479.31 2.732.138 6.653 3.772 7.629 6.618 2.832 8.254 4.446 16.928 6.897 26.903h-53.103zM144.314 134.115c1.274-11.062 2.488-21.573 3.902-33.831-15.282 0-28.906-.369-42.479.31-2.731.138-6.652 3.772-7.629 6.618-2.832 8.254-4.445 16.928-6.896 26.903h53.102z"/></svg>
