<svg xmlns="http://www.w3.org/2000/svg" viewBox="0 0 800 800"><path d="M337.174 439.31c0 22.686-18.39 41.076-41.076 41.076-22.685 0-41.075-18.39-41.075-41.076s18.39-41.076 41.075-41.076c22.686.001 41.076 18.39 41.076 41.076zm166.729-41.075c-22.686 0-41.076 18.39-41.076 41.076s18.391 41.076 41.076 41.076c22.685 0 41.076-18.39 41.076-41.076-.001-22.687-18.391-41.076-41.076-41.076zM800 416.414v78.062c0 39.193-31.771 70.965-70.965 70.965H677.54C626.514 707.121 496.215 792.696 400 792.696s-226.514-85.575-277.54-227.255H70.965C31.771 565.441 0 533.669 0 494.476v-78.062c0-26.97 15.047-50.423 37.203-62.43.744-110.83 33.046-197.388 96.148-257.228C195.941 37.402 285.655 7.304 400 7.304s204.06 30.098 266.65 89.451c63.101 59.84 95.402 146.398 96.148 257.228C784.953 365.991 800 389.444 800 416.414zm-150.198 23.157c0-18.261-.934-35.417-2.315-52.042-31.495-28.815-88.67-50.679-160.828-58.803 9.474 10.654 17.658 24.668 22.621 43.115-44.197-34.82-130.955-26.532-196.577-104.451a208.248 208.248 0 0 1-9.829-12.31c-.033-.045-.069-.081-.101-.126l.008.003c-11.674-15.788-15.655-25.179-15.878-14.784-1.925 89.56-65.404 159.379-135.893 169.23-.446 9.849-.811 19.793-.811 30.17 0 37.855 6.182 72.355 16.692 103.447 39.594 47.759 104.982 61.246 162.858 64.823 10.743-17.094 34.85-29.027 62.923-29.027 38.061 0 68.915 21.902 68.915 48.919s-30.854 48.919-68.915 48.919c-29.277 0-54.226-12.981-64.212-31.259-40.449-2.351-84.914-9.246-124.544-27.96C259.649 699.58 346.045 743.02 400 743.02c84.784 0 249.802-107.106 249.802-303.449zm70.271-94.122C715.556 152.049 605.165 49.884 400 49.884S84.445 152.049 79.928 345.449h27.303c9.983-65.185 31.083-118.795 63.117-160.015C221.399 119.75 298.664 86.444 400 86.444s178.601 33.306 229.653 98.99c32.033 41.22 53.134 94.83 63.117 160.015h27.303z"/></svg>
