<svg xmlns="http://www.w3.org/2000/svg" viewBox="0 0 116.26 170.08"><path d="M52.052 170l-2.15-100.823c.128-.012.235-.005.375-.017 3.987-.272 4.529-1.113 6.454.398 1.926 1.511.412 1.85 5.356 2.117 4.942.278 45.213-4.834 45.213-4.834s5.524-2.841.44-2.841H51.845s-2.475-.087-3.295-.91c-.831-.831-1.249-.143-1.9-1.658-.651-1.504-3.131-3.979-2.854-7.001.269-3.019-1.938-5.624-4.688-9.615-2.752-3.983-23.063-30.456-23.063-30.456s-4.466-2.89-2.749.007l27.63 48.872v1.511l.722 4.259s-1.616 4.676-3.132 5.641c-1.508.953-3.484 1.095-5.013 4.668-1.53 3.57-18.021 40.648-17.335 41.766.684 1.115 3.724-.611 5.296-4.974 1.572-4.356 22.785-41.741 22.785-41.741s.133-.483.406-.963L41.496 170"/></svg>
