<svg xmlns="http://www.w3.org/2000/svg" viewBox="0 0 96 96"><defs><style>.cls-1{fill:#343e48;}</style></defs><title>Battery_Icon</title><g id="Your_Icons" data-name="Your Icons"><path class="cls-1" d="M57.68,6.91A1.91,1.91,0,0,0,55.77,5H40A1.91,1.91,0,0,0,38,6.91V12H57.68Z"/><path class="cls-1" d="M70.73,14H24.91A1.92,1.92,0,0,0,23,15.92V88.63H72.65V15.92A1.91,1.91,0,0,0,70.73,14ZM57,48.76,43.64,68l-.08,0a.27.27,0,0,1-.12,0c-.14-.05-.22-.14-.19-.3l2.9-13H38.94a.36.36,0,0,1-.25-.16.3.3,0,0,1-.05-.28l4.55-17.49c0-.14.16-.16.32-.16H56.7c.11,0,.22,0,.27.05s.05,0,0,.1l-4.43,7.73L50.68,48h6c.12,0,.23.24.28.35A.5.5,0,0,1,57,48.76Z"/></g></svg>