<?xml version="1.0" encoding="utf-8"?>
<!-- Generator: Adobe Illustrator 16.0.0, SVG Export Plug-In . SVG Version: 6.00 Build 0)  -->
<!DOCTYPE svg PUBLIC "-//W3C//DTD SVG 1.1//EN" "http://www.w3.org/Graphics/SVG/1.1/DTD/svg11.dtd">
<svg version="1.1" id="Capa_1" xmlns="http://www.w3.org/2000/svg" xmlns:xlink="http://www.w3.org/1999/xlink" x="0px" y="0px"
	 width="47px" height="47px" viewBox="0 0 47 47" enable-background="new 0 0 47 47" xml:space="preserve">
<g>
	<path d="M22.792,1.242c-8.038,0-14.855,6.243-14.855,13.945c0,9.146,6.352,11.478,6.352,16.8c0,1.316,1.006,2.539,2.517,3.439
		c-0.316,0.263-0.492,0.551-0.492,0.853c0,0.406,0.318,0.785,0.866,1.109c-0.513,0.318-0.812,0.685-0.812,1.077
		c0,0.395,0.305,0.765,0.83,1.086c-0.536,0.322-0.848,0.699-0.848,1.098c0,0.489,0.46,0.936,1.231,1.3
		c-0.299,0.271-0.47,0.569-0.47,0.884c0,0.932,1.452,1.724,3.493,2.041C20.961,45.539,21.688,46,22.537,46
		c0.848,0,1.574-0.457,1.932-1.119c2.062-0.312,3.53-1.108,3.53-2.043c0-0.312-0.165-0.607-0.457-0.874
		c0.786-0.366,1.256-0.82,1.256-1.312c0-0.396-0.304-0.767-0.83-1.087c0.536-0.323,0.849-0.696,0.849-1.096
		c0-0.406-0.319-0.785-0.865-1.11c0.517-0.317,0.813-0.686,0.813-1.076c0-0.313-0.19-0.609-0.531-0.879
		c1.488-0.897,2.477-2.108,2.477-3.413c0-5.325,6.344-7.654,6.344-16.801C37.052,7.708,30.512,1.59,22.792,1.242l0.042,3.825
		c5.664,0.279,10.41,4.71,10.41,10.119c0,4.014-1.529,6.257-3.147,8.632c-1.45,2.13-3.091,4.536-3.192,7.846
		c-0.497,0.556-2.278,1.458-4.405,1.458c-2.128,0-3.909-0.902-4.406-1.46c-0.101-3.31-1.744-5.717-3.197-7.847
		c-1.62-2.374-3.15-4.616-3.15-8.629c0-5.589,5.162-10.119,11.087-10.119L22.792,1.242z M19.096,8.051
		c-2.403,0.974-4.224,3.055-4.872,5.568c-0.098,0.376,0.129,0.759,0.506,0.856c0.059,0.017,0.118,0.023,0.176,0.023
		c0.314,0,0.6-0.21,0.683-0.528c0.537-2.081,2.046-3.805,4.037-4.611c0.36-0.146,0.533-0.558,0.389-0.919
		C19.867,8.08,19.458,7.906,19.096,8.051z"/>
</g>
</svg>
