<?xml version="1.0" encoding="utf-8"?>
<!-- Generator: Adobe Illustrator 21.0.2, SVG Export Plug-In . SVG Version: 6.00 Build 0)  -->
<svg version="1.1" xmlns="http://www.w3.org/2000/svg" xmlns:xlink="http://www.w3.org/1999/xlink" x="0px" y="0px"
	 viewBox="0 0 96 96" style="enable-background:new 0 0 96 96;" xml:space="preserve">
<style type="text/css">
	.st0{fill:#343E48;}
	.st1{fill:#FFFFFF;}
	.st2{fill:#2C3B46;}
</style>
<g id="Guidelines">
</g>
<g id="Your_Icons">
	<g>
		<path class="st0" d="M86.8,13.6l0,70.3c0,2.3-1.9,4.2-4.2,4.2h-4.4c-0.1,0-0.3,0-0.5,0l-64.4,0c-2.3,0-4.2-1.9-4.2-4.2l0-70.3
			l10.2,0l0,7.3c0,1.1,0.9,1.9,1.9,1.9l9.7,0c1,0,1.9-0.9,1.9-1.9l0-7.3l8.3,0l0,7.3c0,1.1,0.9,1.9,1.9,1.9l9.7,0
			c1.1,0,1.9-0.9,1.9-1.9l0-7.3l8.3,0l0,7.3c0,1.1,0.9,1.9,1.9,1.9l9.7,0c1.1,0,1.9-0.9,1.9-1.9v-7.3L86.8,13.6L86.8,13.6z"/>
		<g>
			<path class="st1" d="M34.2,45.9l-9,9.1l3.5,3.6l4.8-4.8l0,20.8h6.1l0-28.6L34.2,45.9z"/>
			<path class="st1" d="M65.8,63.2l0-17.3l-8.4,0L46,63.8v4.8l13.7,0l0,5.9l6.1,0v-5.9l3.7,0v-5.4L65.8,63.2z M59.7,63.2l-7.7,0
				l7.7-11.9L59.7,63.2z"/>
		</g>
		<g>
			<rect x="44" y="7.9" class="st0" width="7.9" height="12.1"/>
			<rect x="65.9" y="7.9" class="st0" width="7.9" height="12.1"/>
			<rect x="22.2" y="7.9" class="st0" width="7.9" height="12.1"/>
		</g>
		<g>
			<path class="st1" d="M77.4,34.6H18.6c-0.6,0-1-0.4-1-1s0.4-1,1-1h58.8c0.6,0,1,0.4,1,1S77.9,34.6,77.4,34.6z"/>
		</g>
	</g>
</g>
</svg>
