<?xml version="1.0" standalone="no"?>
<!DOCTYPE svg PUBLIC "-//W3C//DTD SVG 20010904//EN"
 "http://www.w3.org/TR/2001/REC-SVG-20010904/DTD/svg10.dtd">
<svg version="1.0" xmlns="http://www.w3.org/2000/svg"
 width="80.000000pt" height="67.000000pt" viewBox="0 0 80.000000 67.000000"
 preserveAspectRatio="xMidYMid meet">

<g transform="translate(0.000000,67.000000) scale(0.100000,-0.100000)"
fill="#000000" stroke="none">
<path d="M237 478 c-9 -7 -25 -33 -35 -58 -11 -25 -29 -54 -41 -64 -19 -17
-21 -30 -21 -123 0 -102 0 -103 24 -103 15 0 26 7 28 16 3 14 28 16 201 18
182 1 198 0 203 -17 4 -12 13 -17 27 -15 21 3 22 9 25 102 3 94 1 101 -22 125
-13 14 -32 45 -41 69 -10 23 -26 47 -36 52 -27 15 -292 13 -312 -2z m320 -57
c12 -18 20 -37 17 -42 -4 -7 -343 -1 -352 6 -10 8 14 58 32 65 11 5 79 8 151
7 l129 -2 23 -34z m-299 -127 c18 -8 31 -18 27 -24 -10 -16 -101 -12 -119 6
-43 43 6 53 92 18z m378 11 c11 -28 -16 -45 -72 -45 -88 0 -76 17 36 54 25 8
30 7 36 -9z"/>
<path d="M137 403 c-14 -13 -6 -23 18 -23 18 0 23 4 19 15 -6 16 -26 20 -37 8z"/>
<path d="M617 395 c-5 -11 0 -15 19 -15 16 0 24 5 22 13 -7 18 -35 20 -41 2z"/>
</g>
</svg>
