<?xml version="1.0" encoding="utf-8"?>
<!-- Generator: Adobe Illustrator 16.0.0, SVG Export Plug-In . SVG Version: 6.00 Build 0)  -->
<!DOCTYPE svg PUBLIC "-//W3C//DTD SVG 1.1//EN" "http://www.w3.org/Graphics/SVG/1.1/DTD/svg11.dtd">
<svg version="1.1" id="Layer_1" xmlns="http://www.w3.org/2000/svg" xmlns:xlink="http://www.w3.org/1999/xlink" x="0px" y="0px"
	 width="512px" height="512px" viewBox="0 0 512 512" enable-background="new 0 0 512 512" xml:space="preserve">
<path d="M305.055,62.427c-51.706-13.101-105.42-5.286-151.245,22.01c-45.826,27.295-78.281,70.803-91.383,122.509
	S57.14,312.366,84.436,358.19c27.296,45.828,70.806,78.283,122.513,91.386c51.704,13.102,105.417,5.286,151.243-22.012
	c45.825-27.295,78.278-70.803,91.384-122.507c13.104-51.707,5.289-105.421-22.009-151.248
	C400.269,107.985,356.761,75.531,305.055,62.427z M150.983,318.554c-34.493-57.907-15.442-133.079,42.464-167.57
	c57.906-34.491,133.079-15.442,167.571,42.465c34.49,57.906,15.44,133.079-42.465,167.571
	C260.646,395.512,185.474,376.462,150.983,318.554z M431.978,300.599c-11.912,47.005-41.416,86.557-83.076,111.371l-21.058-35.352
	c66.509-39.614,88.387-125.951,48.771-192.458c-39.613-66.507-125.95-88.388-192.457-48.773c-3.947,2.351-7.73,4.872-11.358,7.536
	l-21.141-35.491c3.703-2.592,7.519-5.061,11.442-7.397c41.66-24.813,90.489-31.921,137.495-20.008
	c47.006,11.911,86.559,41.416,111.373,83.076C436.783,204.763,443.89,253.594,431.978,300.599z"/>
<path d="M114.798,397.205c37.718,37.716,87.865,58.488,141.204,58.488c53.339,0,103.487-20.771,141.204-58.488
	c37.717-37.718,58.489-87.866,58.489-141.205c0-53.341-20.772-103.489-58.49-141.206c-37.717-37.716-87.863-58.487-141.204-58.487
	c-53.339,0-103.486,20.771-141.204,58.487C77.08,152.512,56.307,202.66,56.307,256C56.309,309.339,77.082,359.487,114.798,397.205z
	 M378.238,256c0,67.401-54.835,122.236-122.236,122.236c-67.401,0-122.236-54.835-122.236-122.236
	c0-67.4,54.835-122.236,122.236-122.236C323.403,133.764,378.238,188.598,378.238,256z M127.635,127.631
	c34.289-34.288,79.877-53.171,128.367-53.171v41.147c-77.412,0-140.39,62.979-140.39,140.392
	c0,77.412,62.979,140.391,140.39,140.391c4.593,0,9.134-0.229,13.615-0.662v41.311c-4.508,0.332-9.049,0.5-13.615,0.5
	c-48.49,0-94.079-18.883-128.367-53.171C93.346,350.079,74.463,304.49,74.463,256C74.463,207.507,93.346,161.918,127.635,127.631z"
	/>
<rect x="256.001" y="62.5" width="36.499" height="56"/>
</svg>
