<?xml version="1.0" encoding="utf-8"?>
<!-- Generator: Adobe Illustrator 16.0.0, SVG Export Plug-In . SVG Version: 6.00 Build 0)  -->
<!DOCTYPE svg PUBLIC "-//W3C//DTD SVG 1.1//EN" "http://www.w3.org/Graphics/SVG/1.1/DTD/svg11.dtd">
<svg version="1.1" id="Capa_1" xmlns="http://www.w3.org/2000/svg" xmlns:xlink="http://www.w3.org/1999/xlink" x="0px" y="0px"
	 width="97.16px" height="97.16px" viewBox="0 0 97.16 97.16" enable-background="new 0 0 97.16 97.16" xml:space="preserve">
<g>
	<g>
		<path d="M0,48.58c0,26.787,21.793,48.58,48.58,48.58s48.58-21.793,48.58-48.58S75.367,0,48.58,0S0,21.793,0,48.58z M10.336,48.58
			c0-21.088,17.157-38.243,38.244-38.243S86.824,27.492,86.824,48.58S69.667,86.823,48.58,86.823S10.336,69.668,10.336,48.58z"/>
		<path d="M19.262,51.08c0,2.209,1.791,4,4,4h25.832c2.209,0,4-1.791,4-4V20.83c0-2.209-1.791-4-4-4s-4,1.791-4,4v26.25H23.262
			C21.053,47.08,19.262,48.871,19.262,51.08z"/>
	</g>
</g>
</svg>
