<svg xmlns="http://www.w3.org/2000/svg" viewBox="0 0 112 112"><path d="M69.697 72.334c.182.766.303 1.539.303 2.332v4.668C70 89.643 54.329 98 35 98S0 89.643 0 79.334v-4.668c0-.793.121-1.566.303-2.332C2.459 81.541 17.154 88.666 35 88.666s32.541-7.125 34.697-16.332zM35 102.666c-17.846 0-32.541-7.125-34.697-16.332C.121 87.1 0 87.873 0 88.666v4.668C0 103.643 15.671 112 35 112s35-8.357 35-18.666v-4.668c0-.793-.121-1.566-.303-2.332-2.156 9.207-16.851 16.332-34.697 16.332zm0-55.999c-19.329 0-35 8.358-35 18.667C0 75.643 15.671 84 35 84s35-8.357 35-18.666c0-10.31-15.671-18.667-35-18.667zM77 84c-.789 0-1.559-.033-2.334-.057v9.328c.775.022 1.545.062 2.334.062 19.329 0 35-8.356 35-18.668v-4.666c0-.793-.121-1.567-.303-2.334C109.541 76.874 94.846 84 77 84zm0-46.667c19.33 0 35-8.357 35-18.667C112 8.357 96.33 0 77 0S42 8.357 42 18.667c0 10.309 15.67 18.666 35 18.666zM77 42c-17.846 0-32.541-7.126-34.697-16.333-.182.765-.303 1.54-.303 2.333v4.667c0 3.962 2.333 7.63 6.281 10.654 6.822 1.386 12.754 3.798 17.249 6.967a63.015 63.015 0 0 0 11.471 1.045c19.329 0 35-8.358 35-18.667v-4.667c0-.793-.121-1.568-.303-2.333C109.541 34.874 94.846 42 77 42zm0 14c-1.965 0-3.878-.098-5.754-.266 2.17 2.898 3.402 6.114 3.416 9.54.773.022 1.549.062 2.338.062 19.329 0 35-8.357 35-18.667v-4.667c0-.793-.121-1.568-.303-2.333C109.541 48.874 94.846 56 77 56zm0 14c-.789 0-1.559-.033-2.334-.057v9.328c.775.022 1.545.062 2.334.062 19.329 0 35-8.356 35-18.668v-4.666c0-.793-.121-1.568-.303-2.333C109.541 62.874 94.846 70 77 70z"/></svg>
