<svg xmlns="http://www.w3.org/2000/svg" width="112" height="112" viewBox="0 0 112 112"><path d="M69.697 72.334c.182.766.303 1.539.303 2.332v4.668c0 10.309-15.671 18.666-35 18.666s-35-8.357-35-18.666v-4.668c0-.793.121-1.566.303-2.332 2.156 9.207 16.851 16.332 34.697 16.332s32.541-7.125 34.697-16.332zm-34.697 30.332c-17.846 0-32.541-7.125-34.697-16.332-.182.766-.303 1.539-.303 2.332v4.668c0 10.309 15.671 18.666 35 18.666s35-8.357 35-18.666v-4.668c0-.793-.121-1.566-.303-2.332-2.156 9.207-16.851 16.332-34.697 16.332zm0-55.999c-19.329 0-35 8.358-35 18.667 0 10.309 15.671 18.666 35 18.666s35-8.357 35-18.666c0-10.31-15.671-18.667-35-18.667zm42 37.333c-.789 0-1.559-.033-2.334-.057v9.328c.775.022 1.545.062 2.334.062 19.329 0 35-8.356 35-18.668v-4.666c0-.793-.121-1.567-.303-2.334-2.156 9.209-16.851 16.335-34.697 16.335zm0-46.667c19.33 0 35-8.357 35-18.667 0-10.309-15.67-18.666-35-18.666s-35 8.357-35 18.667c0 10.309 15.67 18.666 35 18.666zm0 4.667c-17.846 0-32.541-7.126-34.697-16.333-.182.765-.303 1.54-.303 2.333v4.667c0 3.962 2.333 7.63 6.281 10.654 6.822 1.386 12.754 3.798 17.249 6.967 3.598.667 7.447 1.045 11.471 1.045 19.329 0 35-8.358 35-18.667v-4.667c0-.793-.121-1.568-.303-2.333-2.157 9.208-16.852 16.334-34.698 16.334zm0 14c-1.965 0-3.878-.098-5.754-.266 2.17 2.898 3.402 6.114 3.416 9.54.773.022 1.549.062 2.338.062 19.329 0 35-8.357 35-18.667v-4.667c0-.793-.121-1.568-.303-2.333-2.156 9.205-16.851 16.331-34.697 16.331zm0 14c-.789 0-1.559-.033-2.334-.057v9.328c.775.022 1.545.062 2.334.062 19.329 0 35-8.356 35-18.668v-4.666c0-.793-.121-1.568-.303-2.333-2.156 9.208-16.851 16.334-34.697 16.334z"/></svg>
