<svg xmlns="http://www.w3.org/2000/svg" viewBox="0 0 23.305 19.604"><path d="M3.306 6.822h11.777v1.179H3.306zM3.306 3.932h11.777v1.18H3.306zM23.054 4.059l-1.948-1.685c-.267-.232-.646-.237-.841-.014l-1.22 1.407L21.97 6.3l1.22-1.408c.195-.222.132-.603-.136-.833z"/><path d="M18.725 4.136l-.395.457V0H0v19.604h18.33v-9.105l3.316-3.827-2.921-2.536zm-1.812 14.076H1.418V1.914h15.495v4.314l-3.417 3.945H3.306v1.179h9.169l-.128.148 2.918 2.534 1.647-1.901v6.079z"/><path d="M11.108 15.627l.148.131 3.681-1.342-2.922-2.535z"/><circle cx="5.715" cy="15.156" r="1.871"/></svg>
