<svg xmlns="http://www.w3.org/2000/svg" viewBox="0 0 51 25"><g fill-rule="evenodd"><path d="M13.557 0L0 12.542l1.975 2.302h1.098v9.823h20.994v-9.823h1.29l1.938-2.302L13.557 0zm-1.982 17.389h4.422v5.825l-.006-.007h-4.416V17.39z"/><path d="M25.203 0l-4.37 4.038 7.778 7.1 1.344 1.219-1.162 1.396-1.905 2.303-.581.701h-.278v7.91h9.426v-9.823h1.472l1.988-2.302z"/><path d="M36.817 0l-4.364 4.038 7.778 7.1 1.344 1.219-1.162 1.396-1.905 2.303-.581.701h-.277v7.91h9.424v-9.823h1.473l1.988-2.302z"/></g></svg>
