<?xml version="1.0" encoding="utf-8"?>
<!-- Generator: Adobe Illustrator 21.0.2, SVG Export Plug-In . SVG Version: 6.00 Build 0)  -->
<svg version="1.1" xmlns="http://www.w3.org/2000/svg" xmlns:xlink="http://www.w3.org/1999/xlink" x="0px" y="0px"
	 viewBox="0 0 96 96" style="enable-background:new 0 0 96 96;" xml:space="preserve">
<style type="text/css">
	.st0{fill:#343E48;}
	.st1{fill:#FFFFFF;}
	.st2{fill:#2C3B46;}
</style>
<g id="Guidelines">
</g>
<g id="Your_Icons">
	<path class="st0" d="M86.8,13.6l0,70.3c0,2.3-1.9,4.2-4.2,4.2h-4.4c-0.1,0-0.3,0-0.5,0l-64.4,0c-2.3,0-4.2-1.9-4.2-4.2l0-70.3
		l10.2,0l0,7.3c0,1.1,0.9,1.9,1.9,1.9l9.7,0c1,0,1.9-0.9,1.9-1.9l0-7.3l8.3,0l0,7.3c0,1.1,0.9,1.9,1.9,1.9l9.7,0
		c1.1,0,1.9-0.9,1.9-1.9l0-7.3l8.3,0l0,7.3c0,1.1,0.9,1.9,1.9,1.9l9.7,0c1.1,0,1.9-0.9,1.9-1.9v-7.3L86.8,13.6L86.8,13.6z"/>
	<rect x="44" y="7.9" class="st0" width="7.9" height="12.1"/>
	<rect x="65.9" y="7.9" class="st0" width="7.9" height="12.1"/>
	<rect x="22.2" y="7.9" class="st0" width="7.9" height="12.1"/>
	<g>
		<path class="st1" d="M77.4,34.6H18.6c-0.6,0-1-0.4-1-1s0.4-1,1-1h58.8c0.6,0,1,0.4,1,1S77.9,34.6,77.4,34.6z"/>
	</g>
	<g>
		<path class="st1" d="M39.4,58.6c-0.1,0.5-0.1,1-0.1,1.4c0,0.5,0.1,1.1,0.1,1.6l13,0l0,3.1l-12.2,0c1.6,3.9,5.3,6.4,9.9,6.4
			c3.4,0,6.5-1.9,8-4.5l5.3,2.6c-2.6,4.2-7,7.5-13.3,7.5c-8.2,0-14.6-4.6-16.6-11.9l-2.9,0l0-3.1l2.4,0c-0.1-0.5-0.1-1-0.1-1.6
			c0-0.5,0-1,0.1-1.4l-2.4,0l0-3.1l2.9,0c1.8-7.3,8.3-12.1,16.6-12.1c6.4,0,10.7,3.2,13.3,7.4l-5.2,2.7c-1.6-2.7-4.6-4.5-8.1-4.5
			c-4.6,0-8.3,2.6-9.9,6.5l12.3,0l0,3.1L39.4,58.6z"/>
	</g>
</g>
</svg>
