<?xml version="1.0" encoding="UTF-8" standalone="no"?>
<svg width="22px" height="16px" viewBox="0 0 22 16" version="1.1" xmlns="http://www.w3.org/2000/svg" xmlns:xlink="http://www.w3.org/1999/xlink">
    <!-- Generator: Sketch 3.6 (26304) - http://www.bohemiancoding.com/sketch -->
    <title>Car</title>
    <desc>Created with Sketch.</desc>
    <defs></defs>
    <g id="Overzicht" stroke="none" stroke-width="1" fill="none" fill-rule="evenodd">
        <g transform="translate(-753.000000, -794.000000)" id="Goed-bezig!-" fill="#E83F7A">
            <g transform="translate(715.000000, 577.000000)">
                <path d="M54.8465,228.49447 C53.9520625,228.49447 53.2246875,227.75847 53.2246875,226.850643 C53.2246875,225.9456 53.9520625,225.2096 54.8465,225.2096 C55.7436875,225.2096 56.4710625,225.9456 56.4710625,226.850643 C56.4710625,227.75847 55.7436875,228.49447 54.8465,228.49447 M41.031875,226.850643 C41.031875,225.9456 41.7599375,225.2096 42.654375,225.2096 C43.550875,225.2096 44.2789375,225.9456 44.2789375,226.850643 C44.2789375,227.75847 43.550875,228.49447 42.654375,228.49447 C41.7599375,228.49447 41.031875,227.75847 41.031875,226.850643 M43.5,219.714643 C45.605125,218.312904 51.8765,218.312904 53.978875,219.714643 C54.39,219.986643 54.9159375,221.084383 55.3971875,222.429774 L42.082375,222.429774 C42.5629375,221.084383 43.088875,219.986643 43.5,219.714643 M59.357875,221.761252 C59.253375,221.63047 59.09525,221.554643 58.9309375,221.554643 L56.838875,221.554643 C56.32325,220.179339 55.65225,218.829078 54.889125,218.320557 C52.2470625,216.559861 45.2345625,216.559861 42.5925,218.320557 C41.829375,218.829078 41.158375,220.179339 40.64,221.554643 L38.5506875,221.554643 C38.3843125,221.554643 38.22825,221.63047 38.12375,221.761252 C38.0185625,221.891339 37.9786875,222.059687 38.011,222.225948 L38.3224375,223.741774 C38.3733125,223.999861 38.5988125,224.184904 38.859375,224.184904 L39.4795,224.184904 C38.8806875,224.883339 38.5905625,225.764035 38.5878125,226.641252 C38.583,227.728557 38.9906875,228.709426 39.7373125,229.405078 C39.7455625,229.410643 39.7538125,229.418991 39.761375,229.423861 L39.761375,231.549078 C39.761375,232.008209 40.129875,232.383165 40.586375,232.383165 L42.514125,232.383165 C42.9685625,232.383165 43.339125,232.008209 43.339125,231.549078 L43.339125,230.695513 L54.1425,230.695513 L54.1425,231.549078 C54.1425,232.008209 54.511,232.383165 54.9675,232.383165 L56.89525,232.383165 C57.3496875,232.383165 57.72025,232.008209 57.72025,231.549078 L57.72025,229.464904 C58.5095,228.733774 58.8883125,227.725774 58.8938125,226.717774 C58.8965625,225.809948 58.5926875,224.897252 57.9588125,224.184904 L58.6195,224.184904 C58.8800625,224.184904 59.1055625,223.999861 59.1591875,223.741774 L59.4685625,222.225948 C59.5001875,222.059687 59.4603125,221.891339 59.357875,221.761252" id="Car"></path>
            </g>
        </g>
    </g>
</svg>