<?xml version="1.0" encoding="utf-8"?>
<!-- Generator: Adobe Illustrator 21.0.2, SVG Export Plug-In . SVG Version: 6.00 Build 0)  -->
<svg version="1.1" xmlns="http://www.w3.org/2000/svg" xmlns:xlink="http://www.w3.org/1999/xlink" x="0px" y="0px"
	 viewBox="0 0 96 96" style="enable-background:new 0 0 96 96;" xml:space="preserve">
<style type="text/css">
	.st0{fill:#343E48;}
	.st1{fill:#FFFFFF;}
	.st2{fill:#2C3B46;}
</style>
<g id="Guidelines">
</g>
<g id="Your_Icons">
	<g>
		<path class="st0" d="M12.4,77c-2.4,0-4.3-1.9-4.3-4.3l0-49.9c0-2.4,1.9-4.3,4.3-4.3l71.5,0c2.4,0,4.3,1.9,4.3,4.3l0,49.9
			c0,2.4-1.9,4.3-4.3,4.3L12.4,77z"/>
		<rect x="19" y="7" class="st0" width="7.9" height="10.5"/>
		<rect x="69.1" y="78" class="st0" width="7.9" height="11"/>
		<polygon class="st1" points="52.9,29.1 48.5,29.1 41.2,36.4 44,39.4 47.9,35.4 47.9,49.7 52.9,49.7 		"/>
		<path class="st1" d="M78.4,39.2c0-4.6-3.9-7.4-8.9-7.4c-3.2,0-6.7,1.2-9,3.8l2.8,3.3c1.6-1.6,3.6-2.7,6.3-2.7c1.9,0,3.8,1,3.8,3
			c0,2.6-2.3,4.8-9.8,10.4l7.4,0C75.8,45.9,78.4,42.8,78.4,39.2z"/>
		<g>
			<path class="st1" d="M78.6,55.3H17.8c-0.6,0-1-0.5-1-1c0-0.6,0.5-1,1-1h60.7c0.6,0,1,0.5,1,1C79.6,54.8,79.1,55.3,78.6,55.3z"/>
		</g>
		<path class="st1" d="M17.8,46.2l2.8-3.5c1.6,1.6,3.7,2.5,6.2,2.5c2.8,0,4.3-1.6,4.3-3.5c0-2.1-1.5-3.5-4.2-3.5
			c-1.9,0-3.5,0.6-4.9,1.9l-3.5-0.9V26h16v4.4h-11V36c1.1-1.1,3-2,5.1-2c3.9,0,7.5,2.8,7.5,7.5c0,4.9-3.7,8.1-9.3,8.1
			C22.8,49.7,19.8,48.3,17.8,46.2z"/>
		<g>
			<path class="st1" d="M39.2,68.3L37.6,66l-0.7,0.8v1.5h-1.6V60h1.6V65l2.3-2.7h1.9L38.8,65l2.4,3.3H39.2z"/>
			<path class="st1" d="M48.6,68.3l-1.4-5.7l-1.4,5.7h-1.9L41.5,60h2l1.4,6l1.6-6h1.4l1.6,6l1.4-6h2l-2.4,8.3H48.6z"/>
			<path class="st1" d="M58.3,68.3v-3.6c0-0.8-0.4-1.1-1.1-1.1c-0.6,0-1.1,0.3-1.4,0.7v4h-1.6V60h1.6v3c0.4-0.4,1.1-0.9,2.1-0.9
				c1.3,0,1.9,0.7,1.9,1.9v4.2H58.3z"/>
		</g>
	</g>
</g>
</svg>
