<svg xmlns="http://www.w3.org/2000/svg" viewBox="0 0 22 16"><path d="M16.846 11.494a1.634 1.634 0 0 1-1.621-1.643c0-.905.727-1.641 1.621-1.641.898 0 1.625.736 1.625 1.64 0 .908-.727 1.644-1.625 1.644M3.032 9.851c0-.905.728-1.641 1.622-1.641.897 0 1.625.736 1.625 1.64 0 .908-.728 1.644-1.625 1.644a1.634 1.634 0 0 1-1.622-1.643M5.5 2.715c2.105-1.402 8.377-1.402 10.479 0 .411.272.937 1.37 1.418 2.715H4.082C4.562 4.084 5.09 2.987 5.5 2.715M21.358 4.76a.549.549 0 0 0-.427-.206h-2.092c-.516-1.376-1.187-2.726-1.95-3.234C14.247-.44 7.235-.44 4.593 1.32c-.764.508-1.435 1.858-1.953 3.234H.55a.545.545 0 0 0-.426.206.563.563 0 0 0-.113.465l.311 1.516c.051.258.277.443.537.443h.62A3.78 3.78 0 0 0 .589 9.64c-.005 1.088.403 2.068 1.15 2.764l.023.019v2.125c0 .46.369.834.825.834h1.928a.831.831 0 0 0 .825-.834v-.853h10.803v.853c0 .46.369.834.826.834h1.927a.831.831 0 0 0 .825-.834v-2.084c.79-.731 1.168-1.74 1.174-2.747a3.779 3.779 0 0 0-.935-2.533h.66c.261 0 .487-.185.54-.443l.31-1.516a.574.574 0 0 0-.111-.465"/></svg>
