<?xml version="1.0" encoding="utf-8"?>
<!-- Generator: Adobe Illustrator 21.0.2, SVG Export Plug-In . SVG Version: 6.00 Build 0)  -->
<svg version="1.1" xmlns="http://www.w3.org/2000/svg" xmlns:xlink="http://www.w3.org/1999/xlink" x="0px" y="0px"
	 viewBox="0 0 96 96" style="enable-background:new 0 0 96 96;" xml:space="preserve">
<style type="text/css">
	.st0{fill:#343E48;}
	.st1{fill:#FFFFFF;}
	.st2{fill:#2C3B46;}
</style>
<g id="Guidelines">
</g>
<g id="Your_Icons">
	<path class="st0" d="M56.3,8H16V88H80V30.2c0-0.6-0.2-1.1-0.6-1.5L57.7,8.6C57.3,8.2,56.9,8,56.3,8z"/>
	<polygon class="st1" points="57.1,29.4 73.1,29.4 57.1,14.4 	"/>
	<path class="st1" d="M68.3,72H27.7c-0.6,0-1.1-0.5-1.1-1.1v0c0-0.6,0.5-1.1,1.1-1.1h40.5c0.6,0,1.1,0.5,1.1,1.1v0
		C69.3,71.5,68.8,72,68.3,72z"/>
	<path class="st1" d="M68.3,64.5H27.7c-0.6,0-1.1-0.5-1.1-1.1v0c0-0.6,0.5-1.1,1.1-1.1h40.5c0.6,0,1.1,0.5,1.1,1.1v0
		C69.3,64,68.8,64.5,68.3,64.5z"/>
	<path class="st1" d="M52.3,57.1H27.8c-0.6,0-1.1-0.5-1.1-1.1v0c0-0.6,0.5-1.1,1.1-1.1h24.5c0.6,0,1.1,0.5,1.1,1.1v0
		C53.3,56.6,52.9,57.1,52.3,57.1z"/>
</g>
</svg>
