<?xml version="1.0" encoding="utf-8"?>
<!-- Generator: Adobe Illustrator 21.0.2, SVG Export Plug-In . SVG Version: 6.00 Build 0)  -->
<svg version="1.1" xmlns="http://www.w3.org/2000/svg" xmlns:xlink="http://www.w3.org/1999/xlink" x="0px" y="0px"
	 viewBox="0 0 96 96" style="enable-background:new 0 0 96 96;" xml:space="preserve">
<style type="text/css">
	.st0{fill:#343E48;}
	.st1{fill:#FFFFFF;}
	.st2{fill:#2C3B46;}
</style>
<g id="Guidelines">
</g>
<g id="Your_Icons">
	<g>
		<path class="st0" d="M84.4,88.8l-26.7,4l-0.4-2.9c-0.2-1.2,0.6-2.3,1.8-2.5l8.8-1.3l-3.9-25.9c-8.2,0.7-13.4-2.4-16.5-8.4
			c3.7-3.5,6.2-8.9,7.4-16.3c1.3-7.6,1.6-16.1,1.7-20.9l19.6-3c0,0,4.3,12.7,6,23.9c1.9,12.6-1.2,21.4-13.2,23.9l3.9,25.9l8.8-1.3
			c1.2-0.2,2.3,0.6,2.4,1.8L84.4,88.8z"/>
		<path class="st0" d="M53.2,13.9c-0.1,4.9-0.5,13-1.7,20.2c-1,6.2-3,11.2-6.1,14.4C42.6,51.4,39,53,34.1,53c-0.8,0-1.7,0-2.6-0.1
			l-4.3,25.8l8.8,1.4c1.2,0.2,1.9,1.3,1.7,2.5l-0.5,2.9l-26.7-4.4l0.5-2.9c0.2-1.1,1.1-1.8,2.1-1.8c0.1,0,0.2,0,0.3,0l8.8,1.5
			l4.3-25.8c-12-2.7-14.9-11.6-12.8-24.1c0,0,0-0.1,0-0.2c1.8-11.1,6.8-23.6,6.8-23.6l32.5,5.4C53.2,9.6,53.2,11.3,53.2,13.9z"/>
	</g>
</g>
</svg>
