<svg xmlns="http://www.w3.org/2000/svg" viewBox="0 0 96 96"><path d="M84.4 88.8l-26.7 4-.4-2.9c-.2-1.2.6-2.3 1.8-2.5l8.8-1.3L64 60.2c-8.2.7-13.4-2.4-16.5-8.4 3.7-3.5 6.2-8.9 7.4-16.3 1.3-7.6 1.6-16.1 1.7-20.9l19.6-3s4.3 12.7 6 23.9C84.1 48.1 81 56.9 69 59.4l3.9 25.9 8.8-1.3c1.2-.2 2.3.6 2.4 1.8l.3 3zM53.2 13.9c-.1 4.9-.5 13-1.7 20.2-1 6.2-3 11.2-6.1 14.4C42.6 51.4 39 53 34.1 53c-.8 0-1.7 0-2.6-.1l-4.3 25.8 8.8 1.4c1.2.2 1.9 1.3 1.7 2.5l-.5 2.9-26.7-4.4.5-2.9c.2-1.1 1.1-1.8 2.1-1.8h.3l8.8 1.5 4.3-25.8c-12-2.7-14.9-11.6-12.8-24.1v-.2c1.8-11.1 6.8-23.6 6.8-23.6L53 9.6c.2 0 .2 1.7.2 4.3z"/></svg>
