<svg xmlns="http://www.w3.org/2000/svg" width="300" height="512" viewBox="0 0 300 512"><path fill="#F7B838" d="M295 208h-2.689l6.77-9.524c1.1-1.598 1.218-5.035.331-6.746-.908-1.726-2.66-5.73-4.584-5.73h-98.234l30.435-57.661 72.146-125.922c.92-1.598.909.025-.031-1.584-.898-1.586-2.608-.833-4.466-.833h-215.145c-2.361 0-4.423.264-5.021 2.553l-74.345 285.22c-.406 1.545-.064 3.228.919 4.503.983 1.276 2.478 2.724 4.081 2.724h117.541l-47.214 211.455c-.534 2.435.726 3.842 2.981 4.85.684.277 1.368.591 2.083.591.379 0 .807-.146 1.171-.286l213.271-303.61z"/></svg>