<svg viewBox="0 0 17 26" version="1.1" xmlns="http://www.w3.org/2000/svg" xmlns:xlink="http://www.w3.org/1999/xlink">
  <g stroke="none" stroke-width="1" fill="none" fill-rule="evenodd">
    <path d="M15.9539565,10.3105606 C16.0090063,10.2356654 16.0149063,10.0745798 15.9705065,9.99438857 C15.9251567,9.91349427 15.8375571,9.72583449 15.7413575,9.72583449 L10.8296797,9.72583449 L12.3514228,7.02337433 L15.9587065,1.12165241 C16.0047063,1.04675722 16.0041063,1.12282411 15.9571565,1.04741337 C15.9122067,0.973080606 15.8267571,1.00837227 15.7338575,1.00837227 L4.97660608,1.00837227 C4.85860661,1.00837227 4.75545707,1.02074544 4.72555721,1.12802647 L1.00837398,14.4957392 C0.98807407,14.5681504 1.00517399,14.6470294 1.05432377,14.7067393 C1.10347355,14.7665898 1.17822321,14.8344548 1.25837285,14.8344548 L7.13539634,14.8344548 L4.77470699,24.7449439 C4.74800711,24.8590677 4.81100682,24.9250111 4.92370631,24.9722541 C4.95795616,24.9852366 4.99210601,25 5.02785584,25 C5.04680576,25 5.06820566,24.9931573 5.08640558,24.9865957 L15.9539565,10.3105606 Z" stroke="#D2D2D2" stroke-width="1.5"></path>
  </g>
</svg>
