
<svg width="15px" height="22px" viewBox="0 0 15 22" version="1.1" xmlns="http://www.w3.org/2000/svg" xmlns:xlink="http://www.w3.org/1999/xlink">
    <g id="Symbols" stroke="none" stroke-width="1" fill="none" fill-rule="evenodd">
        <path d="M13.4616305,8.75880051 C13.5075053,8.69638785 13.5124219,8.56214987 13.4754221,8.4953238 C13.4376306,8.42791189 13.3646309,8.27152874 13.2844646,8.27152874 L9.19139972,8.27152874 L10.459519,6.01947861 L13.4655888,1.10137701 C13.5039219,1.03896435 13.5034219,1.10235342 13.4642971,1.03951115 C13.4268389,0.977567171 13.3556309,1.00697689 13.2782146,1.00697689 L4.3138384,1.00697689 C4.21550551,1.00697689 4.12954756,1.01728787 4.10463101,1.10668872 L1.00697832,12.2464494 C0.990061725,12.306792 1.00431166,12.3725245 1.04526981,12.4222828 C1.08622796,12.4721582 1.14851934,12.5287124 1.21531071,12.5287124 L6.11283028,12.5287124 L4.14558916,20.7874533 C4.12333926,20.8825564 4.17583902,20.9375092 4.26975526,20.9768784 C4.2982968,20.9876971 4.326755,21 4.35654654,21 C4.37233813,21 4.39017138,20.9942977 4.40533798,20.9888298 L13.4616305,8.75880051 Z" id="Icon-elektriciteit-Copy-14" stroke="#D2D2D2" stroke-width="1.5"></path>
    </g>
</svg>
