<?xml version="1.0" standalone="no"?>
<!DOCTYPE svg PUBLIC "-//W3C//DTD SVG 20010904//EN"
 "http://www.w3.org/TR/2001/REC-SVG-20010904/DTD/svg10.dtd">
<svg version="1.0" xmlns="http://www.w3.org/2000/svg"
 width="24.000000pt" height="16.000000pt" viewBox="0 0 24.000000 16.000000"
 preserveAspectRatio="xMidYMid meet">
<metadata>
Created by potrace 1.11, written by Peter Selinger 2001-2013
</metadata>
<g transform="translate(0.000000,16.000000) scale(0.100000,-0.100000)"
fill="#000000" stroke="none">
<path d="M58 98 l62 -62 62 62 62 62 -124 0 -124 0 62 -62z"/>
<path d="M1 73 l2 -73 112 0 c94 0 114 3 119 16 9 23 7 114 -2 114 -5 0 -19
-11 -32 -25 l-24 -25 30 -33 29 -32 -34 30 -33 30 -15 -23 c-19 -28 -37 -28
-63 1 l-21 22 -25 -29 c-14 -15 -27 -26 -30 -24 -2 3 7 17 22 33 l26 28 -32
31 -31 31 2 -72z"/>
</g>
</svg>
