<svg xmlns="http://www.w3.org/2000/svg" width="392" height="512" viewBox="0 0 392 512"><path fill="#24B6EA" d="M0 322.035v1.044c0 91.316 62.638 166.901 150.204 186.985.426.105 2.194-2.064 2.625-2.064h.155c3.229 0 5.845-.484 5.845-3.734 0-2.623-1.7-2.53-4.065-3.318-35.733-15.542-62.436-50.185-68.067-88.337-.602-4.029-1.001-12.433-1.103-15.023.32-5.511 1.167-17.996 1.753-20.863 10.693-52.3 46.239-97.889 83.32-139.378.725-.331 1.396-.792 1.955-1.41 5.051-5.639 10.096-11.056 15.03-16.12.133-.139.266-.289.378-.438l1.694-2.091 1.273-1.29c1.268-.501 2.488-1.077 3.596-1.716.336-.203.768-.448 1.183-.683.602-.341 1.151-.618 1.386-.661l.452-.096c.133.063.282.148.395.182l.367.191.527.299.059.053c2.18 1.141 4.912 3.635 7.496 6.833.213.267.416.479.533.618 16.148 16.534 40.166 43.26 60.395 74.334l.672 1.055c1.736 2.688 3.442 5.395 5.109 8.145.533.875 1.038 1.76 1.566 2.645 1.39 2.334 2.771 4.669 4.102 7.047.613 1.098 1.194 2.217 1.796 3.314 1.215 2.238 2.435 4.467 3.586 6.727.559 1.098 1.07 2.218 1.619 3.326 1.135 2.303 2.28 4.615 3.34 6.951.427.938.8 1.887 1.216 2.824 1.092 2.494 2.195 4.989 3.186 7.505 1.354 3.422 2.616 6.854 3.757 10.298 3.531 10.639 5.844 20.979 6.894 30.775.038.299.069.598.134.918.037.244.069.521.102.905.068.597.147 1.173.233 1.771l.063.404c-.197.661-.431 1.6-.377 2.719.048.777-.021 1.566-.054 2.355-.048.811-.102 1.609-.102 2.452 0 29.539-11.993 58.556-32.898 79.632-10.145 10.213-21.608 18.122-34.071 23.474-2.813 1.204-4.246 4.392-3.298 7.302.97 2.932 4.002 4.638 6.979 3.955 42.265-9.701 80.651-33.739 108.035-67.691 27.821-34.465 43.113-77.885 43.113-122.23 0-2.783-.018-5.746-.165-8.742-.032-.66-.064-1.321-.102-1.982l-.096-1.406c-.102-1.834-.251-3.668-.416-5.373-.085-1.216-.182-2.432-.314-3.529-5.28-49.815-28.85-105.973-69.996-166.928-33.319-49.37-70.806-90.956-96.447-117.201l.106.107c-5.446-6.29-16.341-16.876-27.768-16.876-5.961 0-11.375 3.529-15.637 6.386-1.135.768-2.456 1.492-3.388 2.025-.784.298-1.892.757-2.494 1.364l-6.968 6.46c-48.269 49.528-157.403 177.408-168.403 295.545v11.151-.896zm10.462 0"/></svg>