<?xml version="1.0" encoding="utf-8"?>
<!-- Generator: Adobe Illustrator 16.0.0, SVG Export Plug-In . SVG Version: 6.00 Build 0)  -->
<!DOCTYPE svg PUBLIC "-//W3C//DTD SVG 1.1//EN" "http://www.w3.org/Graphics/SVG/1.1/DTD/svg11.dtd">
<svg version="1.1" id="Layer_0_xA0_Image_1_" xmlns="http://www.w3.org/2000/svg" xmlns:xlink="http://www.w3.org/1999/xlink"
	 x="0px" y="0px" width="467px" height="640px" viewBox="0 0 467 640" enable-background="new 0 0 467 640" xml:space="preserve">
<path d="M350.885,455.375c0.008-3.013-1.205-4.615-4.275-5.692c-13.29-4.664-26.503-9.562-39.624-14.685
	c-1.929-0.752-3.827-2.892-4.687-4.852c-4.121-9.387-8.027-18.877-11.655-28.465c-0.808-2.137-0.978-5.16-0.093-7.187
	c5.645-12.912,11.717-25.636,17.491-38.492c0.636-1.416,1.032-3.95,0.255-4.827c-6.037-6.815-12.389-13.352-18.316-19.627
	c-15.303,7.115-29.254,13.695-43.32,20.021c-1.633,0.734-4.121,0.629-5.834-0.048c-9.843-3.893-19.616-7.972-29.298-12.249
	c-1.827-0.807-3.767-2.506-4.562-4.282c-2.294-5.13-4.03-10.51-5.984-15.791c-3.483-9.414-6.966-18.827-10.443-28.225
	c-8.362,0-16.193,0.184-24.009-0.08c-3.703-0.125-5.462,0.959-6.731,4.646c-4.583,13.312-9.539,26.497-14.604,39.635
	c-0.632,1.64-2.535,3.212-4.227,3.95c-9.56,4.168-19.324,7.875-28.814,12.19c-2.732,1.242-4.615,1.309-7.267,0.043
	c-12.881-6.145-25.903-11.994-38.814-18.078c-2.256-1.063-3.795-1.052-5.611,0.836c-4.733,4.923-9.546,9.78-14.552,14.422
	c-2.884,2.674-3.248,5.036-1.479,8.661c6.034,12.367,11.791,24.875,17.345,37.465c0.836,1.896,0.644,4.755-0.125,6.766
	c-3.717,9.721-7.681,19.354-11.839,28.895c-0.802,1.841-2.579,3.862-4.386,4.562c-12.978,5.033-26.049,9.834-39.166,14.495
	C3.333,450.424,1.354,451.81,1,455c0,7,0,14,0,21c0.216,3.599,2.281,5.083,5.645,6.242c12.837,4.421,25.509,9.323,38.299,13.887
	c2.756,0.983,4.065,2.562,5.105,5.322c3.554,9.426,7.333,18.783,11.515,27.944c1.328,2.907,1.481,5.054,0.154,7.857
	c-5.882,12.431-11.446,25.014-17.446,37.386c-1.594,3.286-1.249,5.38,1.292,7.784c5.07,4.797,10.039,9.711,14.85,14.768
	c2.027,2.131,3.79,1.894,6.146,0.779c12.739-6.023,25.558-11.879,38.286-17.926c2.633-1.251,4.665-1.042,7.373,0.175
	c9.343,4.2,18.953,7.806,28.342,11.91c1.848,0.809,3.911,2.539,4.61,4.337c5.099,13.11,9.987,26.308,14.664,39.576
	c0.985,2.794,2.354,4.434,5.165,4.958c7.333,0,14.667,0,22,0c2.766-0.555,4.267-2.034,5.27-4.905
	c4.588-13.134,9.62-26.112,14.262-39.228c1.016-2.872,2.705-3.953,5.423-4.983c9.278-3.516,18.504-7.231,27.489-11.43
	c3.075-1.437,5.303-1.572,8.266-0.159c12.43,5.931,25,11.569,37.427,17.505c2.788,1.332,4.792,1.365,7.012-0.956
	c4.942-5.17,9.967-10.272,15.161-15.188c2.305-2.18,1.919-4.031,0.729-6.542c-6.033-12.732-12.025-25.489-17.713-38.379
	c-0.83-1.882-0.537-4.753,0.25-6.771c3.604-9.238,7.82-18.244,11.267-27.537c1.198-3.229,2.476-5.265,5.849-6.443
	c12.983-4.538,25.83-9.468,38.807-14.027c3.16-1.109,4.484-2.841,4.438-6.088C350.834,469.039,350.866,462.206,350.885,455.375z
	 M175.79,503.816c-20.595-0.241-37.72-17.52-37.73-38.066c-0.011-20.841,17.203-37.827,38.288-37.78
	c20.803,0.046,37.674,16.997,37.65,37.828C213.974,486.665,196.493,504.059,175.79,503.816z M452.467,87.881
	c-13.611,0.776-27.246,1.134-40.862,1.841c-3.218,0.168-5.337-0.568-7.675-3.101c-6.973-7.557-14.541-14.562-21.666-21.983
	c-1.392-1.449-2.631-3.82-2.593-5.74c0.282-14.468,0.999-28.928,1.278-43.395c0.031-1.593-1.459-4.007-2.894-4.703
	C370.822,7.29,363.373,4.223,356,1c-0.666,0-1.334,0-2,0c-10.68,11.821-21.316,23.682-32.112,35.396
	c-0.913,0.991-2.884,1.395-4.37,1.41c-10.755,0.115-21.514,0.13-32.268-0.016c-1.604-0.021-3.682-0.589-4.713-1.683
	C269.595,24.495,258.82,12.726,248,1c-0.334,0-0.666,0-1,0c-7.314,3.07-14.579,6.265-21.963,9.153
	c-3.34,1.307-4.257,3.34-4.056,6.794c0.805,13.795,1.302,27.607,2.034,41.407c0.154,2.895-0.788,4.656-3.023,6.707
	c-7.342,6.734-14.479,13.737-21.167,21.115c-2.42,2.67-4.468,3.677-7.973,3.491c-14.128-0.747-28.271-1.263-42.416-1.589
	c-1.436-0.033-3.636,1.453-4.249,2.796c-3.021,6.618-5.475,13.494-8.448,20.136c-1.286,2.871-0.469,4.423,1.67,6.359
	c10.499,9.497,20.919,19.086,31.158,28.861c1.41,1.346,2.288,3.899,2.332,5.917c0.225,10.288-0.085,20.588,0.197,30.873
	c0.086,3.139-0.68,5.23-2.971,7.305c-10.371,9.39-20.546,18.996-30.941,28.359c-2.069,1.864-2.658,3.362-1.515,5.978
	c2.851,6.52,5.576,13.105,8.051,19.775c1.135,3.06,2.931,3.788,5.977,3.63c14.13-0.737,28.268-1.389,42.411-1.766
	c1.914-0.051,4.301,1.184,5.742,2.575c7.406,7.151,14.398,14.739,21.931,21.75c2.33,2.169,3.389,4.018,3.22,7.129
	c-0.761,13.964-1.282,27.942-2.022,41.908c-0.149,2.813,0.527,4.555,3.348,5.659c6.788,2.656,13.485,5.548,20.174,8.449
	c2.525,1.097,4.154,0.41,5.967-1.594c9.386-10.378,19.029-20.524,28.335-30.971c2.263-2.541,4.419-3.194,7.716-3.082
	c9.611,0.324,19.249,0.362,28.858,0.018c3.444-0.124,5.876,0.382,8.259,3.05c9.321,10.434,18.94,20.602,28.266,31.032
	c1.863,2.084,3.433,2.614,5.928,1.536c6.693-2.891,13.522-5.481,20.107-8.594c1.454-0.688,3.039-3.057,3.009-4.621
	c-0.279-14.149-0.804-28.297-1.51-42.432c-0.155-3.106,0.575-5.029,2.956-7.227c7.322-6.757,14.518-13.71,21.129-21.15
	c2.586-2.91,4.902-3.684,8.438-3.497c13.465,0.71,26.947,1.083,40.408,1.845c3.6,0.204,5.364-1.048,6.664-4.303
	c2.797-7.005,5.957-13.865,8.969-20.784c0-0.667,0-1.333,0-2c-11.801-10.733-23.639-21.426-35.334-32.272
	c-0.994-0.923-1.434-2.871-1.451-4.352c-0.131-10.926-0.146-21.855-0.035-32.782c0.015-1.48,0.485-3.427,1.488-4.355
	C444.363,136.403,456.2,125.722,468,115c0-0.667,0-1.333,0-2c-3.055-7.075-6.199-14.113-9.122-21.243
	C457.629,88.71,455.848,87.688,452.467,87.881z M301.185,205.979c-20.479-0.023-37.921-17.268-38.075-37.646
	c-0.159-20.943,17.28-38.38,38.338-38.331c20.609,0.048,37.543,17.107,37.554,37.834
	C339.013,188.849,322.006,206.003,301.185,205.979z"/>
</svg>
