<svg xmlns="http://www.w3.org/2000/svg" viewBox="0 0 467 640"><path d="M350.885 455.375c.008-3.013-1.205-4.615-4.275-5.692a1217.04 1217.04 0 0 1-39.624-14.685c-1.929-.752-3.827-2.892-4.687-4.852-4.121-9.387-8.027-18.877-11.655-28.465-.808-2.137-.978-5.16-.093-7.187 5.645-12.912 11.717-25.636 17.491-38.492.636-1.416 1.032-3.95.255-4.827-6.037-6.815-12.389-13.352-18.316-19.627-15.303 7.115-29.254 13.695-43.32 20.021-1.633.734-4.121.629-5.834-.048a807.352 807.352 0 0 1-29.298-12.249c-1.827-.807-3.767-2.506-4.562-4.282-2.294-5.13-4.03-10.51-5.984-15.791l-10.443-28.225c-8.362 0-16.193.184-24.009-.08-3.703-.125-5.462.959-6.731 4.646-4.583 13.312-9.539 26.497-14.604 39.635-.632 1.64-2.535 3.212-4.227 3.95-9.56 4.168-19.324 7.875-28.814 12.19-2.732 1.242-4.615 1.309-7.267.043-12.881-6.145-25.903-11.994-38.814-18.078-2.256-1.063-3.795-1.052-5.611.836-4.733 4.923-9.546 9.78-14.552 14.422-2.884 2.674-3.248 5.036-1.479 8.661 6.034 12.367 11.791 24.875 17.345 37.465.836 1.896.644 4.755-.125 6.766a682.462 682.462 0 0 1-11.839 28.895c-.802 1.841-2.579 3.862-4.386 4.562-12.978 5.033-26.049 9.834-39.166 14.495C3.333 450.424 1.354 451.81 1 455v21c.216 3.599 2.281 5.083 5.645 6.242 12.837 4.421 25.509 9.323 38.299 13.887 2.756.983 4.065 2.562 5.105 5.322 3.554 9.426 7.333 18.783 11.515 27.944 1.328 2.907 1.481 5.054.154 7.857-5.882 12.431-11.446 25.014-17.446 37.386-1.594 3.286-1.249 5.38 1.292 7.784 5.07 4.797 10.039 9.711 14.85 14.768 2.027 2.131 3.79 1.894 6.146.779 12.739-6.023 25.558-11.879 38.286-17.926 2.633-1.251 4.665-1.042 7.373.175 9.343 4.2 18.953 7.806 28.342 11.91 1.848.809 3.911 2.539 4.61 4.337a1317.786 1317.786 0 0 1 14.664 39.576c.985 2.794 2.354 4.434 5.165 4.958h22c2.766-.555 4.267-2.034 5.27-4.905 4.588-13.134 9.62-26.112 14.262-39.228 1.016-2.872 2.705-3.953 5.423-4.983 9.278-3.516 18.504-7.231 27.489-11.43 3.075-1.437 5.303-1.572 8.266-.159 12.43 5.931 25 11.569 37.427 17.505 2.788 1.332 4.792 1.365 7.012-.956 4.942-5.17 9.967-10.272 15.161-15.188 2.305-2.18 1.919-4.031.729-6.542-6.033-12.732-12.025-25.489-17.713-38.379-.83-1.882-.537-4.753.25-6.771 3.604-9.238 7.82-18.244 11.267-27.537 1.198-3.229 2.476-5.265 5.849-6.443 12.983-4.538 25.83-9.468 38.807-14.027 3.16-1.109 4.484-2.841 4.438-6.088-.103-6.829-.071-13.662-.052-20.493zM175.79 503.816c-20.595-.241-37.72-17.52-37.73-38.066-.011-20.841 17.203-37.827 38.288-37.78 20.803.046 37.674 16.997 37.65 37.828-.024 20.867-17.505 38.261-38.208 38.018zM452.467 87.881c-13.611.776-27.246 1.134-40.862 1.841-3.218.168-5.337-.568-7.675-3.101-6.973-7.557-14.541-14.562-21.666-21.983-1.392-1.449-2.631-3.82-2.593-5.74.282-14.468.999-28.928 1.278-43.395.031-1.593-1.459-4.007-2.894-4.703C370.822 7.29 363.373 4.223 356 1h-2c-10.68 11.821-21.316 23.682-32.112 35.396-.913.991-2.884 1.395-4.37 1.41-10.755.115-21.514.13-32.268-.016-1.604-.021-3.682-.589-4.713-1.683C269.595 24.495 258.82 12.726 248 1h-1c-7.314 3.07-14.579 6.265-21.963 9.153-3.34 1.307-4.257 3.34-4.056 6.794.805 13.795 1.302 27.607 2.034 41.407.154 2.895-.788 4.656-3.023 6.707-7.342 6.734-14.479 13.737-21.167 21.115-2.42 2.67-4.468 3.677-7.973 3.491a1425.402 1425.402 0 0 0-42.416-1.589c-1.436-.033-3.636 1.453-4.249 2.796-3.021 6.618-5.475 13.494-8.448 20.136-1.286 2.871-.469 4.423 1.67 6.359 10.499 9.497 20.919 19.086 31.158 28.861 1.41 1.346 2.288 3.899 2.332 5.917.225 10.288-.085 20.588.197 30.873.086 3.139-.68 5.23-2.971 7.305-10.371 9.39-20.546 18.996-30.941 28.359-2.069 1.864-2.658 3.362-1.515 5.978 2.851 6.52 5.576 13.105 8.051 19.775 1.135 3.06 2.931 3.788 5.977 3.63 14.13-.737 28.268-1.389 42.411-1.766 1.914-.051 4.301 1.184 5.742 2.575 7.406 7.151 14.398 14.739 21.931 21.75 2.33 2.169 3.389 4.018 3.22 7.129-.761 13.964-1.282 27.942-2.022 41.908-.149 2.813.527 4.555 3.348 5.659 6.788 2.656 13.485 5.548 20.174 8.449 2.525 1.097 4.154.41 5.967-1.594 9.386-10.378 19.029-20.524 28.335-30.971 2.263-2.541 4.419-3.194 7.716-3.082 9.611.324 19.249.362 28.858.018 3.444-.124 5.876.382 8.259 3.05 9.321 10.434 18.94 20.602 28.266 31.032 1.863 2.084 3.433 2.614 5.928 1.536 6.693-2.891 13.522-5.481 20.107-8.594 1.454-.688 3.039-3.057 3.009-4.621-.279-14.149-.804-28.297-1.51-42.432-.155-3.106.575-5.029 2.956-7.227 7.322-6.757 14.518-13.71 21.129-21.15 2.586-2.91 4.902-3.684 8.438-3.497 13.465.71 26.947 1.083 40.408 1.845 3.6.204 5.364-1.048 6.664-4.303 2.797-7.005 5.957-13.865 8.969-20.784v-2c-11.801-10.733-23.639-21.426-35.334-32.272-.994-.923-1.434-2.871-1.451-4.352a1480.289 1480.289 0 0 1-.035-32.782c.015-1.48.485-3.427 1.488-4.355C444.363 136.403 456.2 125.722 468 115v-2c-3.055-7.075-6.199-14.113-9.122-21.243-1.249-3.047-3.03-4.069-6.411-3.876zM301.185 205.979c-20.479-.023-37.921-17.268-38.075-37.646-.159-20.943 17.28-38.38 38.338-38.331 20.609.048 37.543 17.107 37.554 37.834.011 21.013-16.996 38.167-37.817 38.143z"/></svg>
