<svg xmlns="http://www.w3.org/2000/svg" width="512" height="410" viewBox="0 0 512 410"><path d="M509.55 211.191l-232.126-200.96-3.355-3.49c-3.457-2.964-9.529-6.741-18.105-6.741-8.602 0-14.672 3.662-18.129 6.626l-3.368 3.374h-.012l-232.114 201.09c-3.281 4.139-7.424 13.138 19.406 13.239l39.253.069v152.984c0 18.011 17.129 32.618 37.763 32.618h314.381c20.634 0 37.856-14.607 37.856-32.617v-152.985l39.189-.012c26.819-.101 22.641-9.056 19.361-13.195zm-110.55 13.207v140.602h-286v-186.003l91-78.317v.175l52-44.907 52 44.907v-.175l91 78.318v45.4z"/></svg>