<svg xmlns="http://www.w3.org/2000/svg" width="352" height="512" viewBox="0 0 352 512"><path d="M0 320.502c0 105.796 78.844 191.561 176.063 191.498 97.187-.031 175.968-85.827 175.937-191.592 0-2.875-.094-5.752-.219-8.627-.031-1.094-.094-2.188-.156-3.313-.094-1.813-.25-3.594-.406-5.392-.063-1.141-.156-2.266-.281-3.393-11.125-114.172-109.219-235.097-153.5-284.464-.282-.326-11.469-15.219-21.813-15.219-5.438 0-11.125 4.172-15.344 8.157h-.094l-5.906 6.517c-45.718 51.039-148.75 178.433-154.062 295.795v.313c-.156 3-.219 6.064-.219 9.064v.656z"/></svg>