<?xml version="1.0" encoding="utf-8"?>
<!-- Generator: Adobe Illustrator 16.0.0, SVG Export Plug-In . SVG Version: 6.00 Build 0)  -->
<!DOCTYPE svg PUBLIC "-//W3C//DTD SVG 1.1//EN" "http://www.w3.org/Graphics/SVG/1.1/DTD/svg11.dtd">
<svg version="1.1" id="Layer_1" xmlns="http://www.w3.org/2000/svg" xmlns:xlink="http://www.w3.org/1999/xlink" x="0px" y="0px"
	 width="300px" height="300px" viewBox="0 0 300 300" enable-background="new 0 0 300 300" xml:space="preserve">
<g>
	<path fill="#003CE9" d="M149.502,16.515c-73.448,0-132.989,59.541-132.989,132.986c0,73.45,59.541,132.991,132.989,132.991
		c73.448,0,132.989-59.541,132.989-132.991C282.491,76.056,222.95,16.515,149.502,16.515z M165.121,225.479h-31.242V116.241h31.242
		V225.479z M149.5,99.114c-8.627,0-15.621-6.995-15.621-15.619c0-8.627,6.994-15.622,15.621-15.622s15.621,6.995,15.621,15.622
		C165.121,92.12,158.127,99.114,149.5,99.114z"/>
</g>
</svg>
