<svg xmlns="http://www.w3.org/2000/svg" viewBox="0 0 30 30"><path d="M20.006 15.02c0 2.742-2.237 4.974-4.987 4.974s-4.987-2.232-4.987-4.975c0-.455.062-.896.177-1.315H8.675v7.13c0 .252.206.457.46.457h11.77a.459.459 0 0 0 .458-.458v-7.129H19.83c.115.42.177.86.177 1.315"/><path d="M15.02 18.164a3.15 3.15 0 0 0 3.152-3.145 3.15 3.15 0 0 0-3.153-3.146 3.15 3.15 0 0 0-3.153 3.146 3.15 3.15 0 0 0 3.153 3.145m3.631-6.367h2.216a.458.458 0 0 0 .459-.458V9.13a.458.458 0 0 0-.459-.457H18.65a.458.458 0 0 0-.458.457v2.21c0 .253.204.458.457.458"/><path d="M23.197 21.253a1.946 1.946 0 0 1-1.949 1.944H8.752a1.947 1.947 0 0 1-1.949-1.944V8.748c0-1.074.873-1.945 1.949-1.945h12.496c1.077 0 1.949.87 1.949 1.945v12.505zM15 0C6.716 0 0 6.716 0 15c0 8.285 6.716 15 15 15 8.284 0 15-6.715 15-15 0-8.284-6.716-15-15-15z"/></svg>
