<?xml version="1.0" encoding="utf-8"?>
<!-- Generator: Adobe Illustrator 16.0.4, SVG Export Plug-In . SVG Version: 6.00 Build 0)  -->
<!DOCTYPE svg PUBLIC "-//W3C//DTD SVG 1.1//EN" "http://www.w3.org/Graphics/SVG/1.1/DTD/svg11.dtd">
<svg version="1.1" id="Capa_1" xmlns="http://www.w3.org/2000/svg" xmlns:xlink="http://www.w3.org/1999/xlink" x="0px" y="0px"
	 width="1190.549px" height="841.891px" viewBox="0 0 1190.549 841.891" enable-background="new 0 0 1190.549 841.891"
	 xml:space="preserve">
<path fill="#231F20" d="M1015.311,314.014L980.703,96.223c-4.962-31.247-29.463-55.749-60.711-60.709L702.203,0.905
	C679.082-2.77,655.6,4.861,639.058,21.404l-443.32,443.32c-28.543,28.546-28.543,74.814,0,103.36l252.4,252.398
	c28.544,28.543,74.811,28.543,103.358-0.005L994.814,377.16C1011.357,360.615,1018.987,337.133,1015.311,314.014z M532.521,763.917
	c-11.153,11.153-29.244,11.153-40.399,0L252.303,524.098c-11.153-11.155-11.153-29.245,0-40.4c11.149-11.149,29.244-11.153,40.399,0
	l239.818,239.82C543.674,734.671,543.669,752.764,532.521,763.917z M855.141,238.916c-21.496,21.496-56.348,21.494-77.837,0
	c-21.496-21.497-21.501-56.341,0-77.837c21.491-21.497,56.339-21.497,77.837,0C876.633,182.573,876.633,217.422,855.141,238.916z"/>
</svg>
