<?xml version="1.0" encoding="utf-8"?>
<!-- Generator: Adobe Illustrator 16.0.0, SVG Export Plug-In . SVG Version: 6.00 Build 0)  -->
<!DOCTYPE svg PUBLIC "-//W3C//DTD SVG 1.1//EN" "http://www.w3.org/Graphics/SVG/1.1/DTD/svg11.dtd">
<svg version="1.1" id="Capa_1" xmlns="http://www.w3.org/2000/svg" xmlns:xlink="http://www.w3.org/1999/xlink" x="0px" y="0px"
	 width="551.391px" height="551.391px" viewBox="0 0 551.391 551.391" enable-background="new 0 0 551.391 551.391"
	 xml:space="preserve">
<g>
	<path d="M413.695,0c0,0-45.366,44.014-94.431,61.759c-363.333,131.419-210.1,387.519-205.101,388.362
		c0,0,20.374-35.48,47.896-55.717C336.704,266.015,372.2,118.233,372.2,118.233s-39.19,177.83-194.562,288.479
		c-34.316,24.426-57.552,84.568-67.388,144.679c0,0,24.325-9.828,34.785-12.489c4.079-26.618,12.607-52.106,27.025-74.875
		C389.211,489.88,460.332,314.902,469.623,253.89C491.552,109.79,413.695,0,413.695,0z"/>
</g>
</svg>
