<?xml version="1.0" encoding="utf-8"?>
<!-- Generator: Adobe Illustrator 16.0.0, SVG Export Plug-In . SVG Version: 6.00 Build 0)  -->
<!DOCTYPE svg PUBLIC "-//W3C//DTD SVG 1.1//EN" "http://www.w3.org/Graphics/SVG/1.1/DTD/svg11.dtd">
<svg version="1.1" id="Layer_1" xmlns="http://www.w3.org/2000/svg" xmlns:xlink="http://www.w3.org/1999/xlink" x="0px" y="0px"
	 width="512px" height="512px" viewBox="0 0 512 512" enable-background="new 0 0 512 512" xml:space="preserve">
<path d="M412.324,190.138l-172.541-0.194c0,0,10.003-40.938,11.8-60.12c1.214-13.112,1.506-26.175-1.505-39.093
	c-4.468-19.425-9.469-31.565-17.434-46.62c-4.273-7.964-12.529-12.918-21.513-12.918h-33.411c-13.452,0-24.33,10.927-24.281,24.378
	c0.097,22.484,0.097,52.496-0.388,53.516c-13.112,27.583-28.312,54.05-45.455,79.302c-7.818,11.558-16.026,22.776-25.544,33.022
	c-4.176,4.468-6.458,10.393-6.458,16.463v212.314c0,6.264,2.428,12.334,6.798,16.851c6.507,6.702,18.163,14.666,37.296,14.666
	c60.363-0.243,158.168-0.777,227.708-0.291c8.693,0.048,16.754-4.517,21.125-12.044l61.334-104.991
	c4.177-7.284,6.362-15.54,6.41-23.941l0.34-125.922C436.605,201.064,425.729,190.187,412.324,190.138z"/>
</svg>
