<?xml version="1.0" encoding="utf-8"?>
<!-- Generator: Adobe Illustrator 16.0.0, SVG Export Plug-In . SVG Version: 6.00 Build 0)  -->
<!DOCTYPE svg PUBLIC "-//W3C//DTD SVG 1.1//EN" "http://www.w3.org/Graphics/SVG/1.1/DTD/svg11.dtd">
<svg version="1.1" id="Layer_1" xmlns="http://www.w3.org/2000/svg" xmlns:xlink="http://www.w3.org/1999/xlink" x="0px" y="0px"
	 width="100px" height="100px" viewBox="0 0 100 100" enable-background="new 0 0 100 100" xml:space="preserve">
<path fill="#2C3C46" d="M96.556,25.732L71.655,6.58c-1.521-1.17-3.683-0.156-3.836,1.705h-0.05l-1.159,9.334H26.803
	c-3.467,0-5.583,3.812-3.747,6.753l23.201,42.232H35.512c-3.338-5.036-9.055-8.358-15.549-8.358
	c-10.294,0-18.643,8.347-18.643,18.643c0,10.295,8.348,18.644,18.643,18.644c6.332,0,11.922-3.16,15.292-7.985h37.679
	c3.49,0,5.619-3.838,3.772-6.801l-23.35-43.081H66.64l1.13,9.102h0.022v0.02c0,1.993,2.285,3.117,3.863,1.903l24.9-19.152
	C97.806,28.577,97.806,26.692,96.556,25.732z"/>
</svg>
