<svg xmlns="http://www.w3.org/2000/svg" width="405" height="512" viewBox="0 0 405 512"><path d="M227.48 497.322c52.61-51.026 171.145-178.431 177.249-295.784l.021-.294c.151-3.034.25-6.07.25-9.102h-.01l.01-.644c-.031-105.793-90.72-191.54-202.569-191.498-111.826.037-202.457 85.835-202.431 191.621 0 2.849.097 5.719.234 8.589.055 1.112.143 2.224.205 3.336.117 1.794.266 3.588.442 5.386.089 1.141.19 2.271.325 3.383 12.799 114.172 125.661 235.101 176.612 284.456.356.328 13.21 15.229 25.088 15.229 6.271 0 12.822-4.172 17.651-8.151h.12m-18.178-162.744c-88.365.021-160.027-66.709-160.046-149.042-.021-82.346 71.58-149.105 159.941-149.144 88.354-.013 160.012 66.723 160.038 149.053.021 82.336-71.564 149.102-159.933 149.133z"/></svg>