<svg xmlns="http://www.w3.org/2000/svg" viewBox="0 0 46 44" width="46" height="44" enable-background="new 0 0 46 44"><path d="M28.7 42.9c-.4-.4-.6-.9-.6-1.5v-27.5h-3.8c-.8 0-1.6-.6-1.9-1.3-.3-.8-.1-1.7.5-2.2l9.2-9.1c1.1-1.1 2.8-1.1 3.9 0l9.1 9.1c.6.6.8 1.5.4 2.3-.3.8-1.1 1.3-1.9 1.3h-3.8v27.5c0 1.1-.9 2.1-2.1 2.1h-7.5c-.6-.1-1.1-.3-1.5-.7zM17.8 2.5v27.5h3.8c.8 0 1.6.5 1.9 1.3.3.8.1 1.7-.4 2.3l-9.1 9.1c-1.1 1.1-2.8 1.1-3.9 0l-9.2-9.1c-.6-.6-.8-1.5-.5-2.2.3-.8 1.1-1.3 1.9-1.3h3.8v-27.5c0-.5.2-1.1.6-1.5s.9-.6 1.5-.6h7.5c1.2 0 2.1.9 2.1 2z"/></svg>
