<svg xmlns="http://www.w3.org/2000/svg" xmlns:xlink="http://www.w3.org/1999/xlink" viewBox="0 0 43 36"><defs><ellipse id="a" cx="6" cy="3.515" rx="3.112" ry="3.171"/><path id="b" d="M8.925 9.169H3.15C.337 9.169.3 12.263.3 12.263v9.436h2.138v11.957h7.199V21.7h2.1v-9.436c-.037 0-.037-3.094-2.812-3.094z"/><circle id="c" cx="6" cy="3" r="3"/><path id="d" d="M8.295 9H2.741C.036 9 0 12.033 0 12.033v9.248h2.056V33H8.98V21.28H11v-9.247c-.036 0-.036-3.033-2.705-3.033z"/></defs><g transform="translate(11 1)"><ellipse cx="6" cy="3.515" rx="3.112" ry="3.171"/><path d="M8.925 9.169H3.15C.337 9.169.3 12.263.3 12.263v9.436h2.138v11.957h7.199V21.7h2.1v-9.436c-.037 0-.037-3.094-2.812-3.094z"/></g><g transform="translate(31 1)"><ellipse cx="6" cy="3.515" rx="3.112" ry="3.171"/><path d="M8.925 9.169H3.15C.337 9.169.3 12.263.3 12.263v9.436h2.138v11.957h7.199V21.7h2.1v-9.436c-.037 0-.037-3.094-2.812-3.094z"/></g><g transform="translate(21 1)"><use xlink:href="#a"/><ellipse cx="6" cy="3.515" rx="3.513" ry="3.571"/></g><g transform="translate(21 1)"><use xlink:href="#b"/><path d="M12.098 11.863h.04v10.236h-2.1v11.957h-8V22.1H-.1v-9.84c.001-.116.016-.305.055-.544a4.47 4.47 0 0 1 .353-1.168C.821 9.448 1.754 8.77 3.15 8.77h5.775c1.382 0 2.296.678 2.797 1.781.175.385.317.975.376 1.313z"/></g><g transform="translate(1 1)"><use xlink:href="#c"/><circle cx="6" cy="3" r="3.4"/></g><g transform="translate(1 1)"><use xlink:href="#d"/><path d="M11.36 11.633h.04V21.68H9.38V33.4H1.656V21.68H-.4v-9.651a3.75 3.75 0 0 1 .053-.533c.062-.388.171-.778.34-1.145C.487 9.268 1.39 8.6 2.74 8.6h5.554c1.337 0 2.221.669 2.705 1.753.167.375.304.948.36 1.28z"/></g></svg>
