<svg xmlns="http://www.w3.org/2000/svg" xmlns:xlink="http://www.w3.org/1999/xlink" viewBox="0 0 32 35"><defs><circle id="a" cx="6" cy="3" r="3"/><path id="b" d="M8.295 9H2.741C.036 9 0 12.033 0 12.033v9.248h2.056V33H8.98V21.28H11v-9.247c-.036 0-.036-3.033-2.705-3.033z"/></defs><g transform="translate(0 1)"><ellipse cx="6" cy="3.515" rx="3.112" ry="3.171"/><path d="M8.925 9.169H3.15C.337 9.169.3 12.263.3 12.263v9.436h2.138v11.957h7.199V21.7h2.1v-9.436c-.037 0-.037-3.094-2.812-3.094z"/></g><g transform="translate(20 1)"><ellipse cx="6" cy="3.515" rx="3.112" ry="3.171"/><path d="M8.925 9.169H3.15C.337 9.169.3 12.263.3 12.263v9.436h2.138v11.957h7.199V21.7h2.1v-9.436c-.037 0-.037-3.094-2.812-3.094z"/></g><g transform="translate(10 1)"><use xlink:href="#a"/><circle cx="6" cy="3" r="3.5"/></g><g transform="translate(10 1)"><use xlink:href="#b"/><path d="M11.444 11.533h.056V21.78H9.48V33.5H1.556V21.78H-.5v-9.753a4.387 4.387 0 0 1 .402-1.719C.412 9.193 1.348 8.5 2.74 8.5h5.554c1.38 0 2.298.694 2.796 1.813.16.357.29.883.353 1.22z"/></g></svg>
