<?xml version="1.0" encoding="utf-8"?>
<!-- Generator: Adobe Illustrator 21.0.2, SVG Export Plug-In . SVG Version: 6.00 Build 0)  -->
<svg version="1.1" xmlns="http://www.w3.org/2000/svg" xmlns:xlink="http://www.w3.org/1999/xlink" x="0px" y="0px"
	 viewBox="0 0 96 96" style="enable-background:new 0 0 96 96;" xml:space="preserve">
<style type="text/css">
	.st0{fill:#343E48;}
	.st1{fill:#FFFFFF;}
	.st2{fill:#2C3B46;}
</style>
<g id="Guidelines">
</g>
<g id="Your_Icons">
	<g>
		<path class="st0" d="M27.1,10.7c-0.9-1.3-1.8-2.4-3.5-2.6h-1.4C20,8.6,17.9,9.2,16,10.3c-1.2,0.7-2.4,1.4-3.6,2.2
			c-2.2,1.4-3.3,3.5-3.6,6.1c-0.1,1.7-0.4,3.4-0.6,5.1v3.9c0.2,1.3,0.3,2.6,0.4,3.9c0.6,5,2,9.8,4.1,14.4
			c6.1,13.8,16.1,24.6,29,33.1c7.3,4.1,14.8,7.3,23,8.3c1.4,0.1,2.7,0.3,4.1,0.4h3.6c1.4-0.2,2.7-0.3,4.1-0.5
			c1.1-0.2,2.3-0.3,3.4-0.6c1.3-0.4,2.3-1.3,3-2.4c2.3-3,4.1-6.4,4.8-10.2c0-0.1,0.1-0.2,0.1-0.3v-1.4c-0.3-1.6-1.3-2.6-2.6-3.4
			c-3.1-2-6.2-4.1-9.3-6.1c-3-2-6-4-9.2-5.9l-3.9,5.3c-0.9,1.2-1.7,2.5-2.6,3.7c-1.5,1.9-3.5,2.7-5.9,2c-1.1-0.3-2.3-0.7-3.3-1.2
			c-7.9-4-14.4-9.8-19.1-17.3c-1.4-2.3-2.8-4.5-3.6-7.1c-0.9-3-0.1-5.4,2.3-7.4c0.8-0.6,1.7-1.2,2.5-1.8c0.2-0.1,0.3-0.2,0.5-0.3
			l0,0l5.5-3.5L27.1,10.7z"/>
	</g>
</g>
</svg>
