<?xml version="1.0" encoding="utf-8"?>
<!-- Generator: Adobe Illustrator 16.0.0, SVG Export Plug-In . SVG Version: 6.00 Build 0)  -->
<!DOCTYPE svg PUBLIC "-//W3C//DTD SVG 1.1//EN" "http://www.w3.org/Graphics/SVG/1.1/DTD/svg11.dtd">
<svg version="1.1" id="Layer_1" xmlns="http://www.w3.org/2000/svg" xmlns:xlink="http://www.w3.org/1999/xlink" x="0px" y="0px"
	 width="512px" height="512px" viewBox="0 0 512 512" enable-background="new 0 0 512 512" xml:space="preserve">
<g>
	<path fill="#020202" d="M249.487,44.571c-113.785,3.443-204.97,96.754-204.97,211.375c0,116.798,94.683,211.482,211.483,211.482
		c116.798,0,211.483-94.685,211.483-211.482c0-32.748-7.446-63.755-20.732-91.427l-1.338,0.692l-186.419,96.517
		c-0.939,0.488-1.97,0.729-2.994,0.729c-1.175,0-2.348-0.317-3.385-0.949c-1.942-1.181-3.128-3.289-3.128-5.562V44.571"/>
	<path fill="#020202" d="M262.512,44.571v16.28v184.391l176.006-91.127l2.225-1.151C405.576,90.014,339.178,46.892,262.512,44.571"
		/>
	<path fill="#020202" d="M262.512,44.571"/>
	<path fill="#020202" d="M249.487,44.571"/>
</g>
</svg>
