<svg viewBox="0 0 12 22" xmlns="http://www.w3.org/2000/svg"><g fill-rule="evenodd"><path d="M4 6h4V1a1 1 0 1 1 2 0v5h1v3c0 .393-.166 1.096-.342 1.447l-1.105 2.211C9.237 13.289 9 14.295 9 15H3c0-.705-.237-1.711-.553-2.342l-1.105-2.211C1.166 10.096 1 9.393 1 9V6h1V1a1 1 0 1 1 2 0v5zm1 10a1 1 0 0 1 2 0v5a1 1 0 0 1-2 0v-5z"/><g transform="translate(0 5)"><path d="M11 0H1C.45 0 0 .45 0 1v3c0 .55.201 1.402.447 1.895l1.106 2.21C1.799 8.598 2 9.45 2 10s.45 1 1 1h6c.55 0 1-.45 1-1s.201-1.402.447-1.895l1.106-2.21C11.799 5.402 12 4.55 12 4V1c0-.55-.45-1-1-1m-1 2v2c0 .242-.128.783-.236 1L8.658 7.211c-.25.5-.451 1.154-.563 1.789H3.904c-.111-.635-.313-1.289-.563-1.789L2.235 5C2.128 4.783 2 4.242 2 4V2h8"/></g></g></svg>
