<?xml version="1.0" encoding="utf-8"?>
<!-- Generator: Adobe Illustrator 16.0.0, SVG Export Plug-In . SVG Version: 6.00 Build 0)  -->
<!DOCTYPE svg PUBLIC "-//W3C//DTD SVG 1.1//EN" "http://www.w3.org/Graphics/SVG/1.1/DTD/svg11.dtd">
<svg version="1.1" id="Layer_1" xmlns="http://www.w3.org/2000/svg" xmlns:xlink="http://www.w3.org/1999/xlink" x="0px" y="0px"
	 width="100px" height="100px" viewBox="0 0 100 100" enable-background="new 0 0 100 100" xml:space="preserve">
<g>
	<path d="M50,0C22.386,0,0,22.386,0,50s22.386,50,50,50s50-22.386,50-50S77.614,0,50,0z M50.157,85.982
		c-3.975,0-7.322-3.451-7.322-7.428c0-3.869,3.347-7.217,7.322-7.217c3.974,0,7.322,3.348,7.322,7.217
		C57.479,82.531,54.131,85.982,50.157,85.982z M53.398,56.484c0,1.674,0.838,3.662,2.303,4.707l-9.31,3.139
		c-2.51-2.406-3.661-5.543-3.661-8.996c0-12.76,16.84-14.016,16.84-22.907c0-4.079-3.242-7.531-9.937-7.531
		c-6.485,0-11.087,2.824-14.539,7.322l-7.113-7.845c5.334-6.59,13.389-10.355,22.803-10.355c13.18,0,21.233,7.008,21.233,16.422
		C72.018,45.921,53.398,47.176,53.398,56.484z"/>
</g>
</svg>
