<svg xmlns="http://www.w3.org/2000/svg" viewBox="0 0 535.5 535.5"><path d="M446.25 0h-357c-28.05 0-51 22.95-51 51v357c0 28.05 22.95 51 51 51h102l76.5 76.5 76.5-76.5h102c28.05 0 51-22.95 51-51V51c0-28.05-22.95-51-51-51zm-153 408h-51v-51h51v51zm53.55-196.35l-22.95 22.95c-20.398 17.85-30.6 33.15-30.6 71.4h-51v-12.75c0-28.05 10.199-53.55 30.6-71.4l30.602-33.15c10.199-7.65 15.3-20.4 15.3-35.7 0-28.05-22.95-51-51-51s-51 22.95-51 51h-51c0-56.1 45.899-102 102-102 56.1 0 102 45.9 102 102-.002 22.95-10.202 43.35-22.952 58.65z"/></svg>
