<svg xmlns="http://www.w3.org/2000/svg" viewBox="0 0 29.124 29.123"><path d="M7.922 7.938c3.215-3.215 8.132-3.674 11.847-1.402-1.26 1.246-2.711 2.702-2.711 2.702-1.017 1.219.125 1.922.705 1.904l6.788-.002.651.002h1.971a.654.654 0 0 0 .652-.653V1.154c.042-.854-.896-1.682-1.864-.729 0 0-1.602 1.561-2.708 2.657C17.597-1.05 9.623-.583 4.512 4.528 1.53 7.51.139 11.466.306 15.373h4.83c-.171-2.669.745-5.394 2.786-7.435zm16.065 5.812c.171 2.669-.745 5.394-2.786 7.435-3.216 3.215-8.131 3.674-11.846 1.402 1.258-1.246 2.71-2.703 2.71-2.703 1.016-1.219-.125-1.922-.705-1.902l-6.789.002-.651-.002H1.946a.654.654 0 0 0-.652.652v9.334c-.041.854.896 1.682 1.865.729 0 0 1.601-1.561 2.708-2.656 5.66 4.135 13.632 3.666 18.743-1.444 2.98-2.981 4.373-6.938 4.207-10.845l-4.83-.002z"/></svg>
