<svg xmlns="http://www.w3.org/2000/svg" width="29.124" height="29.123" viewBox="0 0 29.124 29.123"><path d="M7.922 7.938c3.215-3.215 8.132-3.674 11.847-1.402-1.26 1.246-2.711 2.702-2.711 2.702-1.017 1.219.125 1.922.705 1.904l6.788-.002.651.002h1.971c.359 0 .651-.293.652-.653v-9.335c.042-.854-.896-1.682-1.864-.729 0 0-1.602 1.561-2.708 2.657-5.656-4.132-13.63-3.665-18.741 1.446-2.982 2.982-4.373 6.938-4.206 10.845h4.83c-.171-2.669.745-5.394 2.786-7.435zM23.987 13.75c.171 2.669-.745 5.394-2.786 7.435-3.216 3.215-8.131 3.674-11.846 1.402 1.258-1.246 2.71-2.703 2.71-2.703 1.016-1.219-.125-1.922-.705-1.902l-6.789.002-.651-.002h-1.974c-.359 0-.651.293-.652.652v9.334c-.041.854.896 1.682 1.865.729 0 0 1.601-1.561 2.708-2.656 5.66 4.135 13.632 3.666 18.743-1.444 2.98-2.981 4.373-6.938 4.207-10.845l-4.83-.002z"/></svg>