<svg xmlns="http://www.w3.org/2000/svg" width="514" height="512" viewBox="0 0 514 512"><path fill-rule="evenodd" clip-rule="evenodd" d="M329.809 260.756c13.93-25.232 21.867-54.248 21.867-85.126 0-97.253-78.7-176.109-175.838-176.109-97.106 0-175.838 78.855-175.838 176.109 0 97.285 78.732 176.142 175.838 176.142 34.579 0 66.818-10 94.006-27.261l181.51 187.01 62.646-60.992-184.191-189.773zm-151.587 26.106c-62.208 0-112.627-50.053-112.627-111.796 0-61.744 50.419-111.796 112.627-111.796s112.626 50.053 112.626 111.796c0 61.743-50.418 111.796-112.626 111.796z"/></svg>