<svg id="Layer_1" data-name="Layer 1" xmlns="http://www.w3.org/2000/svg" viewBox="0 0 189.88 429.13"><title>shovel</title><path d="M59.53,428.19c42.36,7.8,85.5-33.84,96.31-92.59.78-4.24,6.27-35.23,7.56-44.26L97,279.12,129.76,101.2c25.54.22,49.56-23.24,55.59-56,.47-2.57,4.77-26.65,4.51-26.69L89.23,0C89,0,84.41,24,83.93,26.55,78.24,57.46,90.5,86.39,112,97L79.08,275.82,11.2,263.32c-2,8.9-7.93,39.89-8.71,44.13-10.82,58.75,14.68,112.94,57,120.74ZM96.36,32.46c.35-1.92.69-3.26.87-3.23L172,43c.18,0,.13,1.05-.22,3C166.87,72.5,145.84,92,125,88.13S91.47,59,96.36,32.46ZM74.15,359.38c-2.36-.43-2.23-12.43-.05-28.93.67-5.16,1.57-10.74,2.65-16.6,1.28-6.95,2.68-13.38,4.11-19.17l10,1.84c-.69,5.93-1.65,12.43-2.93,19.38-1.08,5.86-2.28,11.38-3.49,16.45-3.84,16.2-7.95,27.46-10.3,27Zm0,0"/></svg>