<?xml version="1.0" encoding="utf-8"?>
<!-- Generator: Adobe Illustrator 16.0.4, SVG Export Plug-In . SVG Version: 6.00 Build 0)  -->
<!DOCTYPE svg PUBLIC "-//W3C//DTD SVG 1.1//EN" "http://www.w3.org/Graphics/SVG/1.1/DTD/svg11.dtd">
<svg version="1.1" id="Capa_1" xmlns="http://www.w3.org/2000/svg" xmlns:xlink="http://www.w3.org/1999/xlink" x="0px" y="0px"
	 width="395.889px" height="395.887px" viewBox="0 0 395.889 395.887" enable-background="new 0 0 395.889 395.887"
	 xml:space="preserve">
<g>
	<path d="M8.952,222.959c8.216-36.342,19.931-68.646,29.715-103.022c4.574-16.07,8.877-32.222,12.979-48.419
		c2.825-11.159,9.426-16.406,21.099-16.387c83.727,0.14,167.455,0.187,251.181-0.038c13.594-0.036,18.828,7.459,21.967,19.207
		c12.554,47.004,25.5,93.904,38.393,140.816c0.749,2.729,1.694,6.766,2.132,9.717c1.443,9.76,3.407,18.286-2.416,26.25
		c-4.203,5.747-9.792,7.643-16.584,7.666c-112.748,0.389-225.501,0.438-338.248-0.126c-6.754-0.033-13.841-4.353-17.836-10.623
		C6.564,240.511,6.994,231.62,8.952,222.959z M353.047,215.086c-0.771-4.689-0.991-7.572-1.732-10.312
		c-9.747-36.054-19.916-71.999-29.146-108.182c-2.575-10.099-7.317-12.782-17.356-12.722c-70.912,0.431-141.829,0.423-212.741,0.007
		c-9.986-0.06-14.818,2.515-17.412,12.676c-9.237,36.179-19.463,72.106-29.179,108.167c-0.833,3.087-0.652,6.445-1.006,10.365
		C147.422,215.086,249.26,215.086,353.047,215.086z"/>
	<path d="M126.534,316.462c-2.718-24.767-2.563-24.872,41.665-28.953c0.618-3.812,1.285-7.928,2.079-12.818
		c18.434,0,36.49,0,55.597,0c0.815,3.782,1.705,7.908,2.734,12.685c44.667,3.235,44.667,3.235,41.967,29.088
		C222.744,316.462,175.163,316.462,126.534,316.462z"/>
	<path d="M321.978,200.51c-20.896,0-40.271,0-61.124,0c-1.88-13.558-3.734-26.947-5.901-42.585c17.769,0,34.672-0.239,51.55,0.282
		c2.307,0.069,5.782,3.565,6.516,6.11C316.347,175.895,318.89,187.698,321.978,200.51z"/>
	<path d="M141.669,157.848c-2.108,15.327-3.897,28.343-5.792,42.113c-20.232,0-39.609,0-60.954,0
		c3.104-12.824,5.712-24.988,9.229-36.886c0.676-2.283,4.885-4.922,7.532-4.995C107.757,157.616,123.851,157.848,141.669,157.848z"
		/>
	<path d="M168.004,200.327c0.703-14.979,1.313-27.998,1.958-41.736c19.438,0,37.37,0,56.935,0c0,14.008,0,27.423,0,41.736
		C208.078,200.327,189.16,200.327,168.004,200.327z"/>
	<path d="M225.166,133.549c-18.729,0-35.182,0-53.351,0c0.695-11.406,1.335-21.924,2.033-33.39c16.555,0,31.961,0,48.917,0
		C223.537,110.876,224.297,121.45,225.166,133.549z"/>
	<path d="M252.115,133.115c-1.274-11.062-2.488-21.573-3.902-33.831c15.282,0,28.906-0.369,42.479,0.31
		c2.732,0.138,6.653,3.772,7.629,6.618c2.832,8.254,4.446,16.928,6.897,26.903C287.473,133.115,270.763,133.115,252.115,133.115z"/>
</g>
<path d="M144.314,134.115c1.274-11.062,2.488-21.573,3.902-33.831c-15.282,0-28.906-0.369-42.479,0.31
	c-2.731,0.138-6.652,3.772-7.629,6.618c-2.832,8.254-4.445,16.928-6.896,26.903C108.956,134.115,125.666,134.115,144.314,134.115z"
	/>
</svg>
