<?xml version="1.0" encoding="utf-8"?>
<!-- Generator: Adobe Illustrator 19.2.1, SVG Export Plug-In . SVG Version: 6.00 Build 0)  -->
<svg version="1.1" id="Laag_1" xmlns="http://www.w3.org/2000/svg" xmlns:xlink="http://www.w3.org/1999/xlink" x="0px" y="0px"
	 viewBox="0 0 96 96" style="enable-background:new 0 0 96 96;" xml:space="preserve">
<style type="text/css">
	.st0{fill:#343E48;}
</style>
<path class="st0" d="M48.5,10l11.8,23.9c0.1,0.2,0.2,0.3,0.4,0.3l26.4,3.8c0.5,0.1,0.7,0.6,0.3,1L68.3,57.6
	c-0.1,0.1-0.2,0.3-0.2,0.5l4.5,26.3c0.1,0.5-0.4,0.8-0.8,0.6L48.3,72.6c-0.2-0.1-0.4-0.1-0.5,0L24.2,85c-0.4,0.2-0.9-0.1-0.8-0.6
	l4.5-26.3c0-0.2,0-0.4-0.2-0.5L8.6,39c-0.3-0.3-0.2-0.9,0.3-1l26.4-3.8c0.2,0,0.3-0.1,0.4-0.3L47.5,10C47.7,9.6,48.3,9.6,48.5,10z"
	/>
</svg>
