<svg xmlns="http://www.w3.org/2000/svg" viewBox="0 0 512 512"><path d="M400.885 155.703c8.998-15.409 14.158-33.333 14.158-52.464 0-57.554-46.656-104.208-104.208-104.208-36.781 0-69.109 19.057-87.656 47.833a93.612 93.612 0 0 0-30.34-5.046c-51.798 0-93.788 41.99-93.788 93.788a93.69 93.69 0 0 0 4.436 28.539c-12.848 16.047-20.547 36.394-20.547 58.55 0 51.798 41.99 93.787 93.788 93.787 19.588 0 37.763-6.017 52.799-16.291L211.339 512.97h89.322l-18.187-212.78c15.036 10.274 33.211 16.291 52.8 16.291 51.797 0 93.787-41.989 93.787-93.787 0-26.249-10.797-49.967-28.176-66.991z"/></svg>
