<?xml version="1.0" encoding="utf-8"?>
<!-- Generator: Adobe Illustrator 16.0.0, SVG Export Plug-In . SVG Version: 6.00 Build 0)  -->
<!DOCTYPE svg PUBLIC "-//W3C//DTD SVG 1.1//EN" "http://www.w3.org/Graphics/SVG/1.1/DTD/svg11.dtd">
<svg version="1.1" id="Layer_1" xmlns="http://www.w3.org/2000/svg" xmlns:xlink="http://www.w3.org/1999/xlink" x="0px" y="0px"
	 width="512px" height="512px" viewBox="0 0 512 512" enable-background="new 0 0 512 512" xml:space="preserve">
<path d="M400.885,155.703c8.998-15.409,14.158-33.333,14.158-52.464c0-57.554-46.656-104.208-104.208-104.208
	c-36.781,0-69.109,19.057-87.656,47.833c-9.519-3.254-19.718-5.046-30.34-5.046c-51.798,0-93.788,41.99-93.788,93.788
	c0,9.953,1.563,19.538,4.436,28.539c-12.848,16.047-20.547,36.394-20.547,58.55c0,51.798,41.99,93.787,93.788,93.787
	c19.588,0,37.763-6.017,52.799-16.291L211.339,512.97h89.322L282.474,300.19c15.036,10.274,33.211,16.291,52.8,16.291
	c51.797,0,93.787-41.989,93.787-93.787C429.061,196.445,418.264,172.727,400.885,155.703z"/>
</svg>
