<svg xmlns="http://www.w3.org/2000/svg" viewBox="0 0 672 512"><path d="M672 60.579c-24.742 10.31-51.324 17.261-79.221 20.401 28.49-16.027 50.357-41.334 60.634-71.562-26.646 14.872-56.135 25.604-87.562 31.384C540.705 15.668 504.906 0 465.233 0c-76.097 0-137.855 57.861-137.855 129.234 0 10.122 1.249 20.011 3.53 29.446-114.52-5.343-216.107-56.846-284.145-135.015-11.807 19.059-18.617 41.288-18.617 64.954 0 44.849 24.303 84.464 61.352 107.567-22.648-.609-43.921-6.467-62.446-16.121-.031.484-.031 1.047-.031 1.625 0 62.641 47.513 114.861 110.584 126.734a147.55 147.55 0 0 1-36.299 4.561c-8.934 0-17.524-.843-25.99-2.313 17.556 51.302 68.474 88.667 128.827 89.697C156.942 435.049 97.495 455.7 32.926 455.7c-11.121 0-22.148-.594-32.925-1.78C61.04 490.567 133.481 512 211.359 512c253.562 0 392.198-196.953 392.198-367.785 0-5.593-.126-11.153-.375-16.714 26.957-18.215 50.323-40.99 68.818-66.922z"/></svg>
