<svg viewBox="0 0 30 30" xmlns="http://www.w3.org/2000/svg"><path d="M14.991.044c8.225 0 14.964 6.629 14.964 14.745 0 8.09-6.74 14.72-14.964 14.72C6.739 29.508 0 22.878 0 14.788 0 6.673 6.739.044 14.991.044zm8.04 10.398a8.08 8.08 0 0 0 1.331-1.519 3.887 3.887 0 0 1-2.13.602h-.026a4.033 4.033 0 0 0 1.57-1.99c-.558.288-1.198.498-1.837.681l-.08.026-.478.105a3.81 3.81 0 0 0-2.77-1.205h-.079c-.293 0-.586.026-.879.08a4.414 4.414 0 0 0-1.198.497l-.266.209c-.533.367-.932.89-1.225 1.466l-.133.34a3.38 3.38 0 0 0-.16.708c-.026.13-.026.236-.053.34v.21l.027.34.053.446h-.293a9.655 9.655 0 0 1-3.701-.812l-.665-.314c-.133-.053-.24-.132-.373-.21-.745-.42-1.41-.969-1.997-1.571a9.19 9.19 0 0 1-1.012-1.257 4.388 4.388 0 0 0-.505 2.043c0 .261.026.523.08.785 0 .13.026.236.053.34.24.786.665 1.493 1.251 2.017l.293.262-.373-.079c-.479-.13-.958-.288-1.41-.471a4.174 4.174 0 0 0 1.01 2.488 4.39 4.39 0 0 0 2.157 1.387l-.985.053-.825-.026a4.388 4.388 0 0 0 3.7 2.67c-1.544 1.127-3.46 1.756-5.51 1.756a11.057 11.057 0 0 0 5.138 1.596h1.225c5.83-.314 10.436-5.054 10.436-10.867v-.55c.213-.183.426-.366.64-.576z" fill-rule="evenodd"/></svg>
