<svg xmlns="http://www.w3.org/2000/svg" width="672" height="512" viewBox="0 0 672 512"><path d="M672 60.579c-24.742 10.31-51.324 17.261-79.221 20.401 28.49-16.027 50.357-41.334 60.634-71.562-26.646 14.872-56.135 25.604-87.562 31.384-25.146-25.134-60.945-40.802-100.618-40.802-76.097 0-137.855 57.861-137.855 129.234 0 10.122 1.249 20.011 3.53 29.446-114.52-5.343-216.107-56.846-284.145-135.015-11.807 19.059-18.617 41.288-18.617 64.954 0 44.849 24.303 84.464 61.352 107.567-22.648-.609-43.921-6.467-62.446-16.121-.031.484-.031 1.047-.031 1.625 0 62.641 47.513 114.861 110.584 126.734-11.558 2.937-23.772 4.561-36.299 4.561-8.934 0-17.524-.843-25.99-2.313 17.556 51.302 68.474 88.667 128.827 89.697-47.201 34.68-106.648 55.331-171.217 55.331-11.121 0-22.148-.594-32.925-1.78 61.039 36.647 133.48 58.08 211.358 58.08 253.562 0 392.198-196.953 392.198-367.785 0-5.593-.126-11.153-.375-16.714 26.957-18.215 50.323-40.99 68.818-66.922z"/></svg>