<svg xmlns="http://www.w3.org/2000/svg" viewBox="0 0 32 32"><path d="M10.697 26.199H4.798c-1.127 0-2.06-.885-2.06-2.012V5.901c0-1.127.933-2.006 2.06-2.006h14.277c1.127 0 2.046.879 2.046 2.006v15.322l2.637-3.134V3.943c0-1.482-1.171-2.684-2.652-2.684H2.661A2.56 2.56 0 0 0 .102 3.834v22.382a2.673 2.673 0 0 0 2.669 2.687h10.358l-1.224-1.063a4.654 4.654 0 0 1-1.208-1.641z"/><path d="M17.977 7.275H6.136c-.728 0-1.314.591-1.314 1.318 0 .726.587 1.317 1.314 1.317h11.84c.728 0 1.312-.591 1.312-1.317a1.313 1.313 0 0 0-1.311-1.318zM17.977 11.667H6.136a1.318 1.318 0 1 0 0 2.636h11.84c.728 0 1.312-.594 1.312-1.318a1.313 1.313 0 0 0-1.311-1.318zM17.977 16.061H6.136c-.728 0-1.314.558-1.314 1.285 0 .725.587 1.283 1.314 1.283h11.84c.728 0 1.312-.559 1.312-1.283.002-.727-.585-1.285-1.311-1.285zM4.821 21.536c0 .726.587 1.284 1.314 1.284h4.418c.185-.473.469-1.023.857-1.479.408-.473.889-.82 1.412-1.092H6.136c-.728.002-1.315.562-1.315 1.287zM17.977 20.251h-.988c.324.136.633.366.916.612l1.312 1.123a1.25 1.25 0 0 0 .076-.437 1.306 1.306 0 0 0-1.316-1.298z"/><path d="M31.001 16.73a2.298 2.298 0 0 0-3.246.259l-7.565 8.868-3.782-3.248a2.304 2.304 0 0 0-3.247.248 2.3 2.3 0 0 0 .248 3.246l5.533 4.752a2.317 2.317 0 0 0 1.682.549 2.304 2.304 0 0 0 1.572-.801l9.066-10.627a2.304 2.304 0 0 0-.261-3.246z"/></svg>
