<?xml version="1.0" encoding="utf-8"?>
<!-- Generator: Adobe Illustrator 21.0.2, SVG Export Plug-In . SVG Version: 6.00 Build 0)  -->
<svg version="1.1" xmlns="http://www.w3.org/2000/svg" xmlns:xlink="http://www.w3.org/1999/xlink" x="0px" y="0px"
	 viewBox="0 0 96 96" style="enable-background:new 0 0 96 96;" xml:space="preserve">
<style type="text/css">
	.st0{fill:#343E48;}
	.st1{fill:#FFFFFF;}
	.st2{fill:#2C3B46;}
</style>
<g id="Guidelines">
</g>
<g id="Your_Icons">
	<path class="st0" d="M84.7,42.8h-3.2V24.7c0-1.2-1-2.2-2.2-2.2H10.2c-1.2,0-2.2,1-2.2,2.2v60.4c0,1.2,1,2.2,2.2,2.2h69.2
		c1.2,0,2.2-1,2.2-2.2V67h3.2c1.8,0,3.2-1.5,3.2-3.2V46.1C88,44.3,86.5,42.8,84.7,42.8z M84.5,63.4H64.4l-7.7-8.8l7.7-7.7h20.1V63.4
		z"/>
	<circle class="st2" cx="68.3" cy="54.5" r="3.3"/>
	<polygon class="st0" points="26,20.4 54.2,6.3 56.4,9.8 34.5,20.4 	"/>
	<polygon class="st0" points="38.7,20.4 72.3,20.4 65.9,7.3 	"/>
</g>
</svg>
