<?xml version="1.0" encoding="utf-8"?>
<!-- Generator: Adobe Illustrator 16.0.4, SVG Export Plug-In . SVG Version: 6.00 Build 0)  -->
<!DOCTYPE svg PUBLIC "-//W3C//DTD SVG 1.1//EN" "http://www.w3.org/Graphics/SVG/1.1/DTD/svg11.dtd">
<svg version="1.1" id="Layer_1" xmlns="http://www.w3.org/2000/svg" xmlns:xlink="http://www.w3.org/1999/xlink" x="0px" y="0px"
	 width="116.26px" height="170.08px" viewBox="0 0 116.26 170.08" enable-background="new 0 0 116.26 170.08" xml:space="preserve">
<path fill="#42AE49" d="M52.052,170l-2.15-100.823c0.128-0.012,0.235-0.005,0.375-0.017c3.987-0.272,4.529-1.113,6.454,0.398
	c1.926,1.511,0.412,1.85,5.356,2.117c4.942,0.278,45.213-4.834,45.213-4.834S112.824,64,107.74,64c-5.087,0-55.895,0-55.895,0
	s-2.475-0.087-3.295-0.91c-0.831-0.831-1.249-0.143-1.9-1.658c-0.651-1.504-3.131-3.979-2.854-7.001
	c0.269-3.019-1.938-5.624-4.688-9.615C36.356,40.833,16.045,14.36,16.045,14.36s-4.466-2.89-2.749,0.007l27.63,48.872v1.511
	l0.722,4.259c0,0-1.616,4.676-3.132,5.641c-1.508,0.953-3.484,1.095-5.013,4.668c-1.53,3.57-18.021,40.648-17.335,41.766
	c0.684,1.115,3.724-0.611,5.296-4.974c1.572-4.356,22.785-41.741,22.785-41.741s0.133-0.483,0.406-0.963L41.496,170"/>
</svg>
