<svg xmlns="http://www.w3.org/2000/svg" viewBox="0 0 486.392 486.392"><path d="M243.196 0C108.891 0 0 108.891 0 243.196s108.891 243.196 243.196 243.196 243.196-108.891 243.196-243.196C486.392 108.861 377.501 0 243.196 0zm149.413 297.641c-1.642 20.246-17.024 46.086-38.516 49.825-68.855 5.35-150.447 4.682-221.764 0-22.252-2.797-36.875-29.609-38.516-49.825-3.466-42.498-3.466-66.696 0-109.195 1.642-20.216 16.629-46.876 38.516-49.308 70.496-5.928 152.545-4.651 221.764 0 24.745.912 36.875 26.417 38.516 46.663 3.405 42.499 3.405 69.342 0 111.84z"/><path d="M212.796 303.995l91.199-60.799-91.199-60.799z"/></svg>
